<?xml version="1.0" encoding="UTF-8"?>
<svg xmlns="http://www.w3.org/2000/svg" xmlns:xlink="http://www.w3.org/1999/xlink" viewBox="0 0 404.46 477.62">
  <defs>
    <style>
      .cls-1 {
        fill: #312783;
      }

      .cls-2, .cls-3 {
        fill: #fff;
      }

      .cls-4 {
        fill: url(#Super_Soft_Black_Vignette-3);
        opacity: .4;
      }

      .cls-3, .cls-5 {
        stroke: #1d1d1b;
        stroke-width: 3px;
      }

      .cls-3, .cls-5, .cls-6, .cls-7 {
        stroke-miterlimit: 10;
      }

      .cls-5, .cls-6, .cls-7 {
        fill: none;
      }

      .cls-6 {
        stroke: #e30613;
      }

      .cls-8 {
        fill: #e30613;
      }

      .cls-7 {
        stroke: #312783;
      }

      .cls-9 {
        fill: url(#White_Black);
      }

      .cls-10 {
        fill: url(#Super_Soft_Black_Vignette-2);
      }

      .cls-10, .cls-11 {
        opacity: .3;
      }

      .cls-11 {
        fill: url(#Super_Soft_Black_Vignette);
      }

      .cls-12 {
        fill: #1d1d1b;
      }
    </style>
    <linearGradient id="White_Black" data-name="White, Black" x1="197.17" y1="59.21" x2="291.91" y2="59.21" gradientUnits="userSpaceOnUse">
      <stop offset="0" stop-color="#fff"/>
      <stop offset="1" stop-color="#1d1d1b"/>
    </linearGradient>
    <radialGradient id="Super_Soft_Black_Vignette" data-name="Super Soft Black Vignette" cx="198.54" cy="332.59" fx="198.54" fy="332.59" r="141.21" gradientUnits="userSpaceOnUse">
      <stop offset=".57" stop-color="#161412" stop-opacity="0"/>
      <stop offset=".8" stop-color="#161412" stop-opacity=".65"/>
      <stop offset=".83" stop-color="#161412" stop-opacity=".74"/>
      <stop offset="1" stop-color="#161412" stop-opacity=".95"/>
    </radialGradient>
    <radialGradient id="Super_Soft_Black_Vignette-2" data-name="Super Soft Black Vignette" cx="194.28" cy="261.34" fx="194.28" fy="261.34" r="172.06" xlink:href="#Super_Soft_Black_Vignette"/>
    <radialGradient id="Super_Soft_Black_Vignette-3" data-name="Super Soft Black Vignette" cx="229.54" cy="398.16" fx="229.54" fy="398.16" r="133.74" xlink:href="#Super_Soft_Black_Vignette"/>
  </defs>
  <g id="Layer_2" data-name="Layer 2">
    <g>
      <path class="cls-12" d="M197.19,116.92S193.1,16.83,290.64,1.51c0,0,19.4,83.74-93.45,115.4Z"/>
      <path class="cls-6" d="M197.19,116.92S193.1,16.83,290.64,1.51c0,0,19.4,83.74-93.45,115.4Z"/>
      <path class="cls-9" d="M197.19,116.92S193.1,16.83,290.64,1.51c0,0,19.4,83.74-93.45,115.4Z"/>
    </g>
    <g>
      <path class="cls-2" d="M79.92,449.31c-18.87-18.44-33.37-39.61-33.37-39.61,0,0-2.45-4.2-6.2-11.6-1.17-2.3-2.47-4.91-3.85-7.8l.07-.02c1.13,2.34,2.19,4.5,3.17,6.45,.44,.88,.87,1.71,1.28,2.51,1.61,1.05,3.23,2.07,4.87,3.09,19.62,12.16,54.07,8.71,90-6.47,36.67-15.47,74.88-43.15,100.42-78.88,24.95-34.89,73-71.15,92.35-85.03,4.99-3.57,8.07-5.66,8.37-5.87,.01,0,.02-.01,.02-.01,.27-1.08,.55-2.15,.86-3.2,.36-1.23,.74-2.45,1.14-3.65,.2-.59,.41-1.19,.62-1.78,.19-.52,.39-1.04,.59-1.56l.07,.02c-1.88,4.87-3.39,10.07-4.41,15.58-1.22,6.53-1.75,13.51-1.37,20.94,1.41,27.63,12.77,50.88,26.02,68.01l-.64,.2s-24.69,11.61-51.43,38.28c-31.44,31.35-106.76,69.11-177.45,74.27-26.08,1.91-51.53-.63-73.92-9.55"/>
      <path class="cls-5" d="M79.92,449.31c-18.87-18.44-33.37-39.61-33.37-39.61,0,0-2.45-4.2-6.2-11.6-1.17-2.3-2.47-4.91-3.85-7.8l.07-.02c1.13,2.34,2.19,4.5,3.17,6.45,.44,.88,.87,1.71,1.28,2.51,1.61,1.05,3.23,2.07,4.87,3.09,19.62,12.16,54.07,8.71,90-6.47,36.67-15.47,74.88-43.15,100.42-78.88,24.95-34.89,73-71.15,92.35-85.03,4.99-3.57,8.07-5.66,8.37-5.87,.01,0,.02-.01,.02-.01,.27-1.08,.55-2.15,.86-3.2,.36-1.23,.74-2.45,1.14-3.65,.2-.59,.41-1.19,.62-1.78,.19-.52,.39-1.04,.59-1.56l.07,.02c-1.88,4.87-3.39,10.07-4.41,15.58-1.22,6.53-1.75,13.51-1.37,20.94,1.41,27.63,12.77,50.88,26.02,68.01l-.64,.2s-24.69,11.61-51.43,38.28c-31.44,31.35-106.76,69.11-177.45,74.27-26.08,1.91-51.53-.63-73.92-9.55"/>
      <path class="cls-11" d="M79.92,449.31c-18.87-18.44-33.37-39.61-33.37-39.61,0,0-2.45-4.2-6.2-11.6-1.17-2.3-2.47-4.91-3.85-7.8l.07-.02c1.13,2.34,2.19,4.5,3.17,6.45,.44,.88,.87,1.71,1.28,2.51,1.61,1.05,3.23,2.07,4.87,3.09,19.62,12.16,54.07,8.71,90-6.47,36.67-15.47,74.88-43.15,100.42-78.88,24.95-34.89,73-71.15,92.35-85.03,4.99-3.57,8.07-5.66,8.37-5.87,.01,0,.02-.01,.02-.01,.27-1.08,.55-2.15,.86-3.2,.36-1.23,.74-2.45,1.14-3.65,.2-.59,.41-1.19,.62-1.78,.19-.52,.39-1.04,.59-1.56l.07,.02c-1.88,4.87-3.39,10.07-4.41,15.58-1.22,6.53-1.75,13.51-1.37,20.94,1.41,27.63,12.77,50.88,26.02,68.01l-.64,.2s-24.69,11.61-51.43,38.28c-31.44,31.35-106.76,69.11-177.45,74.27-26.08,1.91-51.53-.63-73.92-9.55"/>
    </g>
    <g>
      <path class="cls-8" d="M387.1,161.44h-.01s-.03,.03-.07,.05c-1.62,.92-27.36,15.96-42.23,44.34-1.66,3.15-3.17,6.47-4.5,9.95-.02,.03-.03,.07-.04,.1-.2,.52-.39,1.04-.58,1.56-.22,.59-.42,1.18-.62,1.78-.42,1.23-.81,2.47-1.18,3.74-.3,1.02-.58,2.07-.84,3.12-.01,.03-.01,.05-.02,.08,0,0-3.14,2.12-8.39,5.88-19.35,13.88-67.4,50.14-92.35,85.03-25.54,35.73-63.75,63.41-100.43,78.89-35.92,15.17-70.37,18.62-89.99,6.46-1.64-1.02-3.26-2.04-4.87-3.09-.21-.4-.41-.81-.63-1.23-1.17-2.3-2.47-4.91-3.85-7.8-11.55-24.07-29.52-67.67-34.01-113.54-.15-1.48-.28-2.97-.39-4.45-.07-.9-.13-1.79-.19-2.69-.16-2.5-.28-4.99-.36-7.49-.02-.39-.03-.78-.03-1.17-.02-.68-.03-1.36-.04-2.04-.03-1.88-.03-3.76,0-5.63,.05-2.69,.15-5.37,.3-8.05,.26-4.47,.69-8.92,1.32-13.34,11.75-83.23,74.56-118.46,110.81-118.98,36.26-.51,63.32,20.43,91.41,20.94,28.08,.51,52.59-20.95,91.91-20.94,39.32,0,83.75,37.79,89.87,48.52Z"/>
      <path class="cls-6" d="M387.1,161.44h-.01s-.03,.03-.07,.05c-1.62,.92-27.36,15.96-42.23,44.34-1.66,3.15-3.17,6.47-4.5,9.95-.02,.03-.03,.07-.04,.1-.2,.52-.39,1.04-.58,1.56-.22,.59-.42,1.18-.62,1.78-.42,1.23-.81,2.47-1.18,3.74-.3,1.02-.58,2.07-.84,3.12-.01,.03-.01,.05-.02,.08,0,0-3.14,2.12-8.39,5.88-19.35,13.88-67.4,50.14-92.35,85.03-25.54,35.73-63.75,63.41-100.43,78.89-35.92,15.17-70.37,18.62-89.99,6.46-1.64-1.02-3.26-2.04-4.87-3.09-.21-.4-.41-.81-.63-1.23-1.17-2.3-2.47-4.91-3.85-7.8-11.55-24.07-29.52-67.67-34.01-113.54-.15-1.48-.28-2.97-.39-4.45-.07-.9-.13-1.79-.19-2.69-.16-2.5-.28-4.99-.36-7.49-.02-.39-.03-.78-.03-1.17-.02-.68-.03-1.36-.04-2.04-.03-1.88-.03-3.76,0-5.63,.05-2.69,.15-5.37,.3-8.05,.26-4.47,.69-8.92,1.32-13.34,11.75-83.23,74.56-118.46,110.81-118.98,36.26-.51,63.32,20.43,91.41,20.94,28.08,.51,52.59-20.95,91.91-20.94,39.32,0,83.75,37.79,89.87,48.52Z"/>
      <path class="cls-10" d="M387.1,161.44h-.01s-.03,.03-.07,.05c-1.62,.92-27.36,15.96-42.23,44.34-1.66,3.15-3.17,6.47-4.5,9.95-.02,.03-.03,.07-.04,.1-.2,.52-.39,1.04-.58,1.56-.22,.59-.42,1.18-.62,1.78-.42,1.23-.81,2.47-1.18,3.74-.3,1.02-.58,2.07-.84,3.12-.01,.03-.01,.05-.02,.08,0,0-3.14,2.12-8.39,5.88-19.35,13.88-67.4,50.14-92.35,85.03-25.54,35.73-63.75,63.41-100.43,78.89-35.92,15.17-70.37,18.62-89.99,6.46-1.64-1.02-3.26-2.04-4.87-3.09-.21-.4-.41-.81-.63-1.23-1.17-2.3-2.47-4.91-3.85-7.8-11.55-24.07-29.52-67.67-34.01-113.54-.15-1.48-.28-2.97-.39-4.45-.07-.9-.13-1.79-.19-2.69-.16-2.5-.28-4.99-.36-7.49-.02-.39-.03-.78-.03-1.17-.02-.68-.03-1.36-.04-2.04-.03-1.88-.03-3.76,0-5.63,.05-2.69,.15-5.37,.3-8.05,.26-4.47,.69-8.92,1.32-13.34,11.75-83.23,74.56-118.46,110.81-118.98,36.26-.51,63.32,20.43,91.41,20.94,28.08,.51,52.59-20.95,91.91-20.94,39.32,0,83.75,37.79,89.87,48.52Z"/>
    </g>
    <g>
      <path class="cls-1" d="M401.95,352.32s-.03,.06-.1,.18c-1.29,2.41-15.5,28.79-31.56,57.02-16.85,29.61-43.91,65.36-79.15,66.38-35.23,1.02-49.02-19.92-81.7-18.38-32.68,1.53-48,18.45-82.72,18.41-15.05,0-32.11-12.48-46.61-26.62-9.02-8.78-17.05-18.2-22.98-25.68,22.39,8.92,47.84,11.46,73.92,9.55,70.69-5.16,146.01-42.92,177.45-74.27,26.74-26.67,51.43-38.28,51.43-38.28l.64-.2,.12-.04c2.83,3.64,5.74,7,8.66,10.07,2.78,2.92,5.57,5.58,8.3,7.94,10.01,8.69,19.21,13.57,24.3,13.92Z"/>
      <path class="cls-7" d="M401.95,352.32s-.03,.06-.1,.18c-1.29,2.41-15.5,28.79-31.56,57.02-16.85,29.61-43.91,65.36-79.15,66.38-35.23,1.02-49.02-19.92-81.7-18.38-32.68,1.53-48,18.45-82.72,18.41-15.05,0-32.11-12.48-46.61-26.62-9.02-8.78-17.05-18.2-22.98-25.68,22.39,8.92,47.84,11.46,73.92,9.55,70.69-5.16,146.01-42.92,177.45-74.27,26.74-26.67,51.43-38.28,51.43-38.28l.64-.2,.12-.04c2.83,3.64,5.74,7,8.66,10.07,2.78,2.92,5.57,5.58,8.3,7.94,10.01,8.69,19.21,13.57,24.3,13.92Z"/>
      <path class="cls-4" d="M401.95,352.32s-.03,.06-.1,.18c-1.29,2.41-15.5,28.79-31.56,57.02-16.85,29.61-43.91,65.36-79.15,66.38-35.23,1.02-49.02-19.92-81.7-18.38-32.68,1.53-48,18.45-82.72,18.41-15.05,0-32.11-12.48-46.61-26.62-9.02-8.78-17.05-18.2-22.98-25.68,22.39,8.92,47.84,11.46,73.92,9.55,70.69-5.16,146.01-42.92,177.45-74.27,26.74-26.67,51.43-38.28,51.43-38.28l.64-.2,.12-.04c2.83,3.64,5.74,7,8.66,10.07,2.78,2.92,5.57,5.58,8.3,7.94,10.01,8.69,19.21,13.57,24.3,13.92Z"/>
    </g>
  </g>
  <g id="Layer_1" data-name="Layer 1">
    <path class="cls-5" d="M387.06,161.4c-1.92,1.09-37.72,22.01-49.15,61.47-.31,1.05-.59,2.12-.86,3.2,0,0-3.14,2.12-8.39,5.88-19.35,13.88-67.4,50.14-92.35,85.03-50.56,70.72-150.77,109.93-190.42,85.35-1.64-1.02-3.26-2.04-4.87-3.09-.41-.8-.84-1.63-1.28-2.51-.98-1.95-2.04-4.11-3.17-6.45l-.07,.02c-11.58-24.13-29.54-67.76-33.97-113.63-.15-1.48-.28-2.97-.39-4.45-.07-.9-.13-1.79-.19-2.69-.17-2.49-.29-4.99-.36-7.49-.02-.39-.03-.78-.03-1.17-.02-.68-.03-1.36-.04-2.04-.03-1.88-.03-3.76,0-5.63,.05-2.69,.15-5.37,.3-8.05,.27-4.41,.7-8.79,1.32-13.15,11.75-83.23,74.56-118.47,110.81-118.98,36.26-.51,63.32,20.43,91.41,20.94,28.08,.51,52.59-20.96,91.91-20.95,39.17,.01,83.4,37.51,89.79,48.39Z"/>
    <path class="cls-5" d="M401.95,352.51s-14.81,27.57-31.66,57.19-43.91,65.36-79.15,66.38c-35.23,1.03-49.02-19.91-81.7-18.38-32.68,1.53-48,18.46-82.72,18.42-15.11-.02-32.25-12.6-46.8-26.81h.19c-9.02-8.78-17.05-18.2-22.98-25.68,83.08,33.12,208.33-21.81,251.37-64.72,26.74-26.67,51.43-38.28,51.43-38.28l.64-.2c2.84,3.67,5.77,7.05,8.69,10.14,12.95,13.61,26.07,21.42,32.59,21.93,.04,.01,.07,.01,.1,.01Z"/>
    <path class="cls-5" d="M197.19,117.1S193.1,17.02,290.64,1.7c0,0,19.4,83.74-93.45,115.4Z"/>
    <path class="cls-3" d="M387.14,161.53s-33.07,18.51-46.81,54.37l-.07-.02s.02-.07,.03-.1c1.33-3.48,2.84-6.8,4.5-9.95,14.85-28.44,40.65-43.51,42.27-44.43,0,.02,.02,.04,.03,.05,.02,.03,.04,.06,.05,.08Z"/>
  </g>
</svg>