<?xml version="1.0" encoding="UTF-8"?>
<svg id="Layer_1" data-name="Layer 1" xmlns="http://www.w3.org/2000/svg" viewBox="0 0 454.41 729.91">
  <defs>
    <style>
      .cls-1 {
        fill: #37b34a;
      }

      .cls-2 {
        fill: #eb008b;
      }

      .cls-3 {
        fill: #00adee;
      }

      .cls-4 {
        fill: #7f3f97;
      }

      .cls-5 {
        fill: #fff100;
      }

      .cls-6 {
        fill: #231f20;
      }
    </style>
  </defs>
  <path class="cls-6" d="M217.33,631.63c-23.14,0-44.54-8.86-63.69-26.39-52.88-48.42-80.59-156.09-94.51-237.89-15.08-88.56-17.71-166.7-17.74-167.48v-.03c0-.49,.85-49.91,23.34-98.96,13.22-28.84,31.24-51.92,53.53-68.61C146.13,11.4,180.79,.56,221.29,.02c40.52-.53,75.3,10.33,103.43,32.29,22.49,17.56,40.77,42.21,54.33,73.26,23.07,52.8,24.49,106.59,24.51,107.13-.04,1.07-3.79,103.46-27.83,205.68-14.13,60.08-32.39,108.35-54.28,143.48-27.45,44.05-60.74,67.47-98.92,69.62-1.74,.1-3.47,.15-5.18,.15ZM42.92,199.82c.05,1.53,2.73,79.26,17.72,167.27,13.89,81.56,41.47,188.88,94.04,237,20.26,18.54,43.06,27.23,67.75,25.85,37.66-2.12,70.53-25.3,97.71-68.9,21.81-34.98,40.01-83.1,54.1-143.01,24-102.08,27.76-204.34,27.79-205.36-.01-.49-1.44-54.02-24.4-106.55C356.48,57.76,312.19,.34,221.31,1.55,130.38,2.75,86.72,56.57,66.12,101.5c-22.21,48.43-23.18,97.19-23.2,98.32Z"/>
  <g>
    <path class="cls-6" d="M215.44,209.2s132.31,7.03,136.99-53.86c4.68-60.89-82.77-108.82-136.99-101.87-45.66,5.85-125.28,22.25-133.48,99.52-6.44,60.75,133.48,56.2,133.48,56.2Z"/>
    <path class="cls-6" d="M227.51,210.2c-7.12,0-11.64-.21-12.08-.24-4.3,.14-95.03,2.62-125.05-29.69-7.19-7.74-10.28-16.95-9.18-27.36,3.6-33.98,21.46-59.94,53.08-77.14,27.32-14.86,59.35-20.28,81.06-23.07,34.32-4.4,80.52,12.63,109.83,40.49,13.94,13.25,30.13,34.8,28.02,62.19-1.95,25.28-26.46,42.73-70.88,50.46-21.08,3.67-42.09,4.35-54.8,4.35Zm-12.06-1.77h.03c1.32,.07,131.62,6.29,136.19-53.15,2.06-26.79-13.84-47.94-27.55-60.97-29.01-27.57-74.68-44.43-108.59-40.08-30.67,3.93-124.02,15.9-132.82,98.85-1.06,9.95,1.9,18.75,8.78,26.15,29.63,31.88,122.98,29.24,123.92,29.2h.03Z"/>
  </g>
  <path class="cls-6" d="M16.04,538.2c-.05,0-.1,0-.16,0-2.71-.06-4.98-1.77-5.79-4.34-34.58-110.07,30.67-299.98,31.33-301.89l.62-1.78,.79,1.71c.21,.45,5.22,12.13,13.24,106.37,6.4,75.19-21.74,161.98-34.14,195.8-.92,2.52-3.23,4.12-5.91,4.12ZM42.12,234.71c-7.23,21.71-62.96,195.56-30.56,298.7,.74,2.35,2.74,3.23,4.36,3.27,1.66,0,3.73-.76,4.59-3.12,12.36-33.73,40.42-120.26,34.05-195.15-6.37-74.93-10.83-97.48-12.44-103.7Z"/>
  <g>
    <path class="cls-6" d="M392.02,333.51l-1.52-.13c8.02-94.24,13.03-105.92,13.24-106.37l1.39,.64c-.2,.46-5.16,12.5-13.1,105.86Z"/>
    <path class="cls-6" d="M430.55,533.31c-2.68,0-4.98-1.6-5.91-4.12-12.39-33.82-40.53-120.6-34.14-195.8l1.52,.13c-6.37,74.9,21.69,161.42,34.05,195.15,.86,2.36,2.93,3.19,4.59,3.12,1.63-.04,3.62-.92,4.36-3.27,34.42-109.6-30.66-299.03-31.32-300.93l1.45-.5c.66,1.91,65.9,191.81,31.33,301.89-.81,2.57-3.08,4.28-5.78,4.34-.05,0-.1,0-.16,0Z"/>
  </g>
  <g>
    <path class="cls-6" d="M178.55,247.7c-10.36,0-19.22-.67-26.03-1.44-21.22-2.42-38.04-7.5-51.83-12.01-.31,.09-.63,.18-.95,.28-26.62,7.67-68.59,14.51-71.18,7.33h0c-1.38-3.81,7.71-10.66,14.8-14.14,17.07-8.38,32.19-3.38,53.12,3.53,1.38,.46,2.79,.92,4.24,1.4,1.84-.54,3.59-1.07,5.28-1.59,10.21-3.11,18.28-5.56,30.25-5.06,11.78,.49,20.02,3.6,26.64,6.1,1.66,.63,3.25,1.23,4.79,1.75,17.63,5.98,29.9,2.37,46.88-2.62,11.7-3.44,24.97-7.34,43.35-9.12,12.79-1.24,25.31-.64,42.5,1.33,23.21-3.86,38.03-5.14,52.16-2.22l1.16,.25c6.19,1.32,17.73,3.8,28.81-1.62,1.98-.97,3.26-1.86,4.49-2.72,1.63-1.14,3.31-2.31,6.49-3.55,10.54-4.12,25.52-4.17,28.29,1.96,2.04,4.5-3.17,10.74-4.81,12.54-11.14,12.22-32.44,8.94-61.91,4.42-5.62-.86-11.43-1.76-17.59-2.61-14.75-2.05-26.75-3.71-37.05-4.89-8.04,1.34-17.1,2.99-27.49,4.89-16.39,2.99-24.62,5.86-31.89,8.39-7.95,2.77-14.82,5.17-29.81,7.23-11.91,1.64-22.97,2.23-32.7,2.23Zm-75.28-14.22c13.32,4.3,29.42,8.97,49.42,11.26,13.14,1.5,33.92,2.58,58.35-.78,14.84-2.04,21.64-4.41,29.52-7.16,7.32-2.55,15.61-5.44,32.12-8.45,8.17-1.49,15.53-2.83,22.21-3.99-14.41-1.47-25.53-1.84-36.83-.74-18.24,1.77-31.43,5.65-43.06,9.07-16.6,4.88-29.71,8.74-47.8,2.6-1.56-.53-3.16-1.13-4.84-1.77-6.86-2.59-14.63-5.52-26.17-6-11.7-.48-19.67,1.93-29.74,4.99-1.03,.31-2.09,.63-3.17,.96Zm-73.28,7.85c1.65,4.57,34.78,1.52,68.12-7.94-.71-.24-1.42-.47-2.11-.7-20.59-6.8-35.46-11.72-51.97-3.61-8.44,4.15-14.78,10.2-14.04,12.25h0Zm275.93-17.26c9.1,1.12,19.49,2.56,31.79,4.27,6.18,.86,11.99,1.75,17.62,2.62,29.01,4.45,49.96,7.67,60.55-3.94,.65-.71,6.28-7.06,4.55-10.88-2.15-4.73-15.69-5.33-26.35-1.16-3.01,1.18-4.55,2.25-6.18,3.38-1.28,.89-2.61,1.82-4.69,2.84-11.56,5.65-23.89,3.01-29.81,1.74l-1.15-.24c-12.8-2.65-26.28-1.78-46.33,1.38Z"/>
    <path class="cls-6" d="M374.13,729.91l-1.24-.89c20.05-27.91,26.59-50.51,19.43-67.16-1.72-4-3.25-5.37-6.29-8.1-2.85-2.55-6.75-6.05-13.11-13.57-11.27-13.32-32.25-38.12-35.31-69.11-.23-2.32-.3-4.14-.38-5.89-.13-3.11-.24-5.8-1.17-10.43-2.36-11.74-9.32-25.03-14.74-34.1-4.9-8.2-7.7-11.62-9.75-14.12-2.1-2.56-3.37-4.11-5.14-8.63-5.87-14.99-3.98-29.37-3.17-35.51,1.07-8.11,2.75-12.04,4.23-15.51,1.21-2.82,2.25-5.26,2.8-9.47,1.6-12.29-3.81-20.86-16.89-41.55-3.03-4.79-6.46-10.22-10.32-16.5-15.59-25.38-23.42-38.12-26.62-48.57-4.29-14.03-4.69-28.19-5.5-56.4-.33-11.62-.29-20.48-.26-27.61,.07-16.65,.1-22.25-4.93-26.47-11.87-9.95-36.66-.85-49.98,4.03-8.06,2.96-11.9,5.35-15.97,7.88-4.04,2.52-8.23,5.12-16.8,8.51-15.96,6.31-40.07,15.83-56.12,5.39-5.6-3.64-7.47-7.91-9.46-12.43-1.7-3.88-3.46-7.89-7.81-11.84-10.59-9.61-28.48-11.39-53.16-5.29l-.37-1.48c25.21-6.23,43.57-4.33,54.56,5.64,4.59,4.17,6.42,8.33,8.19,12.36,1.89,4.31,3.67,8.37,8.89,11.76,15.39,10,39.06,.65,54.72-5.53,8.45-3.34,12.57-5.9,16.56-8.39,4.13-2.57,8.04-5,16.25-8.02,13.61-4.99,38.94-14.29,51.49-3.77,5.58,4.68,5.55,10.46,5.48,27.65-.03,7.11-.07,15.97,.26,27.56,.8,28.08,1.2,42.17,5.43,56,3.14,10.27,10.93,22.95,26.46,48.22,3.85,6.27,7.28,11.7,10.31,16.48,13.29,21.02,18.79,29.72,17.12,42.56-.58,4.41-1.71,7.06-2.91,9.87-1.44,3.38-3.08,7.21-4.12,15.11-.79,6.02-2.65,20.12,3.08,34.75,1.68,4.29,2.89,5.77,4.89,8.21,2.08,2.53,4.92,6.01,9.88,14.31,5.48,9.18,12.52,22.63,14.92,34.59,.95,4.75,1.07,7.62,1.2,10.67,.07,1.73,.15,3.52,.37,5.8,3,30.52,23.79,55.08,34.95,68.27,6.29,7.44,10.15,10.89,12.96,13.42,3.11,2.79,4.82,4.32,6.67,8.63,7.38,17.18,.79,40.28-19.59,68.66Z"/>
  </g>
  <g>
    <rect class="cls-6" x="253.01" y="297.01" width="19.55" height="8.63" transform="translate(-47.54 49.22) rotate(-9.82)"/>
    <path class="cls-6" d="M253.26,308.13l-1.73-10.01,20.77-3.59,1.73,10.01-20.77,3.6Zm.04-8.76l1.21,6.99,17.76-3.07-1.21-6.99-17.76,3.07Z"/>
  </g>
  <g>
    <rect class="cls-6" x="304.21" y="403.96" width="19.08" height="8.04" transform="translate(-161.95 211.53) rotate(-30)"/>
    <path class="cls-6" d="M307.22,417.27l-4.78-8.28,17.85-10.3,4.78,8.28-17.85,10.3Zm-2.7-7.72l3.25,5.64,15.2-8.77-3.25-5.64-15.2,8.77Z"/>
  </g>
  <g>
    <rect class="cls-6" x="304.21" y="521.3" width="19.08" height="8.04" transform="translate(-220.63 227.26) rotate(-30)"/>
    <path class="cls-6" d="M307.22,534.61l-4.78-8.28,17.85-10.3,4.78,8.28-17.85,10.3Zm-2.7-7.72l3.25,5.64,15.2-8.77-3.25-5.64-15.2,8.77Z"/>
  </g>
  <g>
    <rect class="cls-6" x="376.27" y="677.94" width="19.08" height="8.04" transform="translate(123.93 -56.51) rotate(9.97)"/>
    <path class="cls-6" d="M395.13,688.45l-20.3-3.57,1.66-9.42,20.3,3.57-1.66,9.42Zm-18.53-4.81l17.28,3.04,1.13-6.41-17.29-3.04-1.13,6.41Z"/>
  </g>
  <g>
    <rect class="cls-6" x="16.63" y="223.02" width="19.55" height="8.63" transform="translate(159.23 40.95) rotate(42.1)"/>
    <path class="cls-6" d="M30.82,238.16l-15.64-14.13,6.81-7.54,15.64,14.13-6.81,7.54Zm-13.48-14.24l13.37,12.08,4.76-5.27-13.37-12.08-4.76,5.27Z"/>
  </g>
  <g>
    <rect class="cls-6" x="419.09" y="210.32" width="19.55" height="8.63" transform="translate(-41.32 120.2) rotate(-15.23)"/>
    <path class="cls-6" d="M420.03,222.3l-2.67-9.8,20.34-5.54,2.67,9.8-20.34,5.54Zm-.79-8.73l1.87,6.85,17.39-4.73-1.86-6.85-17.39,4.73Z"/>
  </g>
  <g>
    <rect class="cls-6" x="54.62" y="197.57" width="19.55" height="8.63" transform="translate(-123.55 299.77) rotate(-99.82)"/>
    <path class="cls-6" d="M61.19,213.14l-3.59-20.77,10.01-1.73,3.59,20.77-10.01,1.73Zm-1.83-19.52l3.07,17.76,6.99-1.21-3.07-17.76-6.99,1.21Z"/>
  </g>
  <g>
    <rect class="cls-6" x="337.43" y="207.1" width="19.55" height="8.63" transform="translate(88.65 525.09) rotate(-81.84)"/>
    <path class="cls-6" d="M350.74,222.56l-10.05-1.44,2.99-20.86,10.05,1.44-2.99,20.86Zm-8.32-2.74l7.03,1.01,2.56-17.84-7.03-1.01-2.56,17.84Z"/>
  </g>
  <g>
    <rect class="cls-6" x="100.94" y="253.24" width="19.55" height="8.63" transform="translate(-167.69 224.66) rotate(-60)"/>
    <path class="cls-6" d="M109.84,269.22l-8.8-5.08,10.54-18.25,8.79,5.08-10.54,18.25Zm-6.71-5.64l6.15,3.55,9.01-15.61-6.15-3.55-9.01,15.61Z"/>
  </g>
  <g>
    <ellipse class="cls-4" cx="279.32" cy="295.78" rx="10.93" ry="3.38" transform="translate(-98.83 145.76) rotate(-25)"/>
    <path class="cls-6" d="M271.86,302.09c-2.02,0-2.83-.7-3.14-1.37-.38-.81-.33-2.24,2.07-4.41,1.66-1.5,4.06-3.02,6.78-4.29,2.71-1.27,5.43-2.13,7.64-2.43,3.2-.44,4.33,.44,4.71,1.25,.38,.81,.33,2.24-2.07,4.41-1.66,1.5-4.06,3.03-6.78,4.29-2.71,1.27-5.43,2.13-7.64,2.43-.59,.08-1.11,.12-1.57,.12Zm14.93-11.09c-.38,0-.83,.03-1.37,.1-2.07,.28-4.63,1.1-7.2,2.3s-4.85,2.64-6.39,4.04c-1.63,1.48-1.83,2.37-1.71,2.63,.12,.26,.93,.68,3.12,.38,2.07-.28,4.62-1.1,7.2-2.3s4.85-2.64,6.39-4.04c1.63-1.48,1.83-2.37,1.71-2.63h0c-.09-.2-.57-.48-1.75-.48Z"/>
  </g>
  <g>
    <ellipse class="cls-3" cx="367.2" cy="678.69" rx="10.41" ry="4.4"/>
    <path class="cls-6" d="M367.2,683.85c-6.37,0-11.17-2.22-11.17-5.16s4.8-5.16,11.17-5.16,11.17,2.22,11.17,5.16-4.8,5.16-11.17,5.16Zm0-8.8c-5.68,0-9.64,1.92-9.64,3.63s3.96,3.63,9.64,3.63,9.64-1.92,9.64-3.63-3.96-3.63-9.64-3.63Z"/>
  </g>
  <g>
    <ellipse class="cls-5" cx="297.53" cy="532.54" rx="10.41" ry="3.38"/>
    <path class="cls-6" d="M297.53,536.69c-5.55,0-11.17-1.42-11.17-4.15,0-5.44,22.34-5.44,22.34,0,0,2.72-5.62,4.15-11.17,4.15Zm0-6.76c-5.8,0-9.64,1.57-9.64,2.62s3.85,2.62,9.64,2.62,9.64-1.58,9.64-2.62-3.85-2.62-9.64-2.62Z"/>
  </g>
  <g>
    <ellipse class="cls-2" cx="349.55" cy="195.08" rx="10.41" ry="3.38" transform="translate(124.75 526.3) rotate(-85)"/>
    <path class="cls-6" d="M348.75,206.22c-.06,0-.11,0-.17,0-2.71-.24-3.64-5.96-3.16-11.49,.25-2.85,.85-5.5,1.69-7.48,1.21-2.86,2.5-3.36,3.42-3.29,.89,.08,2.1,.81,2.79,3.83,.48,2.09,.61,4.81,.36,7.66-.47,5.41-2.31,10.78-4.94,10.78Zm1.62-20.74c-.33,0-1.06,.49-1.85,2.37-.78,1.83-1.34,4.32-1.57,7.01-.5,5.78,.73,9.74,1.77,9.84,.01,0,.02,0,.04,0,1.04,0,2.91-3.67,3.41-9.38,.24-2.69,.12-5.24-.33-7.18-.41-1.78-1.02-2.62-1.44-2.66h0s-.02,0-.03,0Z"/>
  </g>
  <g>
    <ellipse class="cls-5" cx="99.52" cy="270.6" rx="10.41" ry="3.38" transform="translate(-150.66 127.28) rotate(-40)"/>
    <path class="cls-6" d="M92.87,278.54c-1,0-1.57-.36-1.91-.76-.57-.68-.91-2.05,.74-4.69,1.14-1.82,2.97-3.83,5.16-5.67,2.19-1.84,4.49-3.29,6.48-4.09,2.88-1.16,4.17-.59,4.74,.09h0c.57,.68,.91,2.05-.73,4.69-1.14,1.82-2.97,3.83-5.16,5.67-2.19,1.84-4.49,3.29-6.48,4.09-1.2,.49-2.13,.67-2.84,.67Zm13.31-14.35c-.52,0-1.28,.16-2.27,.56-1.84,.74-4,2.11-6.07,3.85s-3.79,3.62-4.84,5.31c-1.11,1.77-1.06,2.65-.86,2.9,.27,.32,1.3,.34,3-.34,1.84-.74,4-2.11,6.07-3.85,2.07-1.74,3.79-3.62,4.84-5.31,1.11-1.77,1.06-2.65,.86-2.9h0c-.11-.13-.36-.22-.73-.22Z"/>
  </g>
  <g>
    <ellipse class="cls-1" cx="328.24" cy="403.12" rx="10.41" ry="3.38"/>
    <path class="cls-6" d="M328.24,407.27c-5.55,0-11.17-1.42-11.17-4.15,0-5.44,22.34-5.44,22.34,0,0,2.72-5.62,4.15-11.17,4.15Zm0-6.76c-5.8,0-9.64,1.58-9.64,2.62s3.85,2.62,9.64,2.62,9.64-1.58,9.64-2.62-3.85-2.62-9.64-2.62Z"/>
  </g>
  <g>
    <ellipse class="cls-4" cx="15.85" cy="215.05" rx="3.38" ry="10.41" transform="translate(-72.6 18.39) rotate(-20)"/>
    <path class="cls-6" d="M19.01,225.67c-.84,0-2.01-.52-3.49-2.41-1.32-1.69-2.59-4.1-3.56-6.79-.98-2.69-1.56-5.35-1.63-7.49-.11-3.11,.87-4.12,1.71-4.43,2.56-.94,5.82,3.86,7.72,9.08,.98,2.69,1.56,5.35,1.63,7.49,.11,3.11-.87,4.12-1.71,4.43-.19,.07-.41,.12-.66,.12Zm-6.29-19.7c-.06,0-.12,0-.17,.03-.29,.11-.78,.85-.7,2.94,.07,1.99,.62,4.48,1.54,7.02,.92,2.54,2.11,4.8,3.33,6.37,1.29,1.65,2.13,1.9,2.43,1.8,.29-.11,.78-.85,.7-2.94-.07-1.99-.62-4.48-1.54-7.02-1.88-5.16-4.49-8.19-5.59-8.19Z"/>
  </g>
  <g>
    <ellipse class="cls-1" cx="61.99" cy="187.96" rx="10.41" ry="3.38" transform="translate(-130.66 233.33) rotate(-85)"/>
    <path class="cls-6" d="M61.18,199.09c-.06,0-.11,0-.17,0-.89-.08-2.1-.81-2.8-3.83-.48-2.09-.61-4.81-.36-7.66,.48-5.53,2.39-11.05,5.1-10.77h0c.89,.08,2.1,.81,2.8,3.83,.48,2.09,.61,4.81,.36,7.66-.47,5.41-2.31,10.78-4.94,10.78Zm1.61-20.75c-1.05,0-2.91,3.67-3.41,9.38-.24,2.69-.12,5.24,.33,7.18,.47,2.04,1.13,2.63,1.44,2.66,1.04,.06,2.94-3.6,3.45-9.38,.24-2.69,.12-5.24-.33-7.18-.41-1.78-1.02-2.62-1.44-2.66h0s-.03,0-.04,0Z"/>
  </g>
  <g>
    <ellipse class="cls-3" cx="443.24" cy="211.41" rx="10.41" ry="3.38"/>
    <path class="cls-6" d="M443.24,215.56c-5.55,0-11.17-1.42-11.17-4.15,0-5.45,22.34-5.45,22.34,0,0,2.72-5.62,4.15-11.17,4.15Zm0-6.76c-5.8,0-9.64,1.58-9.64,2.62s3.85,2.62,9.64,2.62,9.64-1.58,9.64-2.62-3.85-2.62-9.64-2.62Z"/>
  </g>
</svg>