<?xml version="1.0" encoding="UTF-8"?>
<svg id="Layer_1" data-name="Layer 1" xmlns="http://www.w3.org/2000/svg" viewBox="0 0 951.45 729.57">
  <defs>
    <style>
      .cls-1 {
        fill: #e6c79c;
      }

      .cls-1, .cls-2, .cls-3, .cls-4, .cls-5, .cls-6, .cls-7, .cls-8 {
        stroke: #000;
        stroke-miterlimit: 10;
      }

      .cls-1, .cls-4, .cls-6, .cls-7 {
        stroke-width: 2px;
      }

      .cls-2, .cls-5, .cls-8 {
        fill: none;
      }

      .cls-9 {
        opacity: .5;
      }

      .cls-4 {
        fill: #6b8672;
      }

      .cls-5 {
        stroke-width: .25px;
      }

      .cls-10 {
        fill: #524e4e;
      }

      .cls-6 {
        fill: #b19b92;
      }

      .cls-7 {
        fill: #b8ccb8;
      }

      .cls-11 {
        opacity: .78;
      }

      .cls-8 {
        stroke-width: .5px;
      }
    </style>
  </defs>
  <path class="cls-1" d="M535.98,615.09c15.29-17.28-37.85-63.25-28.84-116.21,4.71-27.7,24.43-45.58,35.83-55.92,46.46-42.15,112.68-39.34,133.69-38.45,56.7,2.41,77.27,23.22,110.97,6.99,24.44-11.77,22.29-26.9,43.69-34.08,40.46-13.56,108.91,20.15,117.96,74.27,3.27,19.55,.63,52.84-20.1,65.53-28.35,17.36-59.66-22.7-112.72-9.61-6.36,1.57-40.26,9.93-53.3,36.7-4.44,9.11-5.05,17.46,0,71.65,4.65,49.88-6.7,53.38-12.23,60.29-11.01,13.77-17.98,8.56-76.89,8.74-45.2,.14-67.8,.21-92.62,7.86-48.74,15.04-63.4,42.73-85.63,34.08-17.7-6.89-24.63-30.76-25.34-45.44-1.34-27.7,18.11-50.82,37.57-59.42,15.47-6.83,22.41-.72,27.96-6.99Z"/>
  <path class="cls-4" d="M447.76,154.78c-3.55-.64-6.28-2.35-9.73-5.23-21.97-18.33-27.3-45.84-40.35-66.08-13.09-20.29-31.65-29.73-45.26-36.65-31.12-15.82-84.83-26.79-118.84-1.67-30.31,22.4-11.84,49-44.95,85.2-24.28,26.54-68.44,49.67-111.5,44.93-30.78-3.39-45.76-19.34-61.08-9.69C1.2,174.95-1.7,200.64,3.19,218.8c7.96,29.59,37.75,43.43,60.67,54.08,16.32,7.58,51.42,23.89,92.35,15.39,42.16-8.76,58.71-37.23,78.06-27.64,9.18,4.55,6.63,11.54,25.7,39.2,12.76,18.5,19.14,27.75,30.81,34.85,5.26,3.2,29.51,16.9,54.64,6.95,24.78-9.81,33.38-35.87,35.87-43.42,6.19-18.77-.35-23.08,5.8-44.27,3.06-10.54,11.08-38.17,29.17-43.01,15.57-4.17,22.69,12.81,53.88,16.41,9.15,1.06,20.09,2.32,31.64-2.84,16.48-7.36,33.97-27.7,29.94-52.47-3.91-23.98-26.36-42.02-42.78-39.94-17.01,2.15-25.08,25.6-41.17,22.69Z"/>
  <path class="cls-7" d="M32.35,99.87c-1.77,8.62-12.7,7.59-16.78,16.77-4.95,11.13,3.35,30.15,13.63,33,6.71,1.86,9.21-4.56,22.44-9.47,4.19-1.55,27.78-10.31,43.17,2.06,6.51,5.24,12.05,14.66,11.8,24.24-.39,14.89-14.44,17.29-16.71,34.62-.24,1.86-1.96,16.51,6.86,25.43,13.13,13.28,38.59,2.67,40.24,1.95,3.93-1.7,8.3-4.21,26.42-23.97,18.09-19.73,27.18-29.78,29.27-38.74,4.82-20.58-5.62-38.19-6.92-40.31-1.2-1.95-14.86-23.71-29.32-21.91-12.67,1.57-13.9,19.75-24.41,19.69-9.48-.05-20.47-14.88-20.81-29.38-.21-8.77,3.43-19.46,11.8-24.51,11.92-7.18,22.09,3.91,34.39-1.24,15.93-6.67,27.44-37.24,14.14-54.86C162.95,1.87,146.47-.8,134.87,2.06c-9.62,2.38-16.12,10.15-29.11,25.7-11.61,13.89-17.95,21.48-21.88,33.97-5.14,16.37-2.31,28.96-5.71,29.54-5.23,.89-9.11-29.36-24.2-33.17-11.45-2.89-27.39,9.96-27.78,21.86-.28,8.61,7.73,12.27,6.16,19.91Z"/>
  <path class="cls-6" d="M620.45,289.85c-5.17,.72-47.39,6.6-57,28-10.72,23.87,22.65,59.16,31,68,53.05,56.11,140.68,72.75,154,52,9.21-14.35-20.67-41.03-7-67,6.11-11.61,14.09-10.08,22-23,15.12-24.7,2.49-57.31,1-61-15.96-39.61-64.91-64.92-84-53-15.51,9.68-3.96,39.35-24,52-9.7,6.12-15.55,1.15-36,4Z"/>
  <path d="M475.43,541.61c-55.04,0-105.68-25.2-138.97-69.14-23.06-30.45-35.24-66.78-35.24-105.07,0-18.99,3.03-37.63,9-55.44,19.54-58.32,69.04-102.41,129.15-115.05,11.79-2.49,23.93-3.74,36.06-3.74,96.06,0,174.21,78.16,174.21,174.22,0,82.85-58.89,154.71-140.04,170.85-11.19,2.23-22.68,3.36-34.19,3.36h.02Zm0-345.42c-11.91,0-23.83,1.24-35.42,3.68-59.07,12.43-107.7,55.75-126.92,113.06-5.87,17.49-8.85,35.82-8.85,54.47,0,37.63,11.97,73.34,34.64,103.26,32.69,43.18,82.48,67.94,136.55,67.94,11.3,0,22.61-1.12,33.58-3.3,79.73-15.86,137.61-86.47,137.61-167.89,0-94.4-76.79-171.21-171.19-171.21h0Z"/>
  <g id="outlines">
    <path class="cls-8" d="M420.82,310.74s1.93-12.97,7.19-18.23c5.26-5.26,3.21-4.81,8.99-10.59s22.14-2.31,22.14-2.31c0,0,16.75,.77,16.75,16.17s29.45,33.89,29.45,33.89c0,0,7.71,6.17,7.71,15.59s-1.93,20.98-1.93,20.98c0,0-36.59,42.54-53.52,42.54s-22.05-1.82-24.45-4.24-19.06-28.68-19.06-34.26-5.2-36.77,0-41.97,6.74-17.58,6.74-17.58l-.02,.02Z"/>
    <path class="cls-8" d="M472.02,389.54s-12.32,15.02-19.63,15.02-18.67-2.88-18.67-2.88l-5.82-4.61"/>
    <path class="cls-5" d="M498.56,355.67s-4.21,13.86-13.26,13.86-15.22-3.85-15.22-3.85c0,0-6.74-3.66-6.74-10.01s-2.88-5.78-2.88-5.78"/>
    <path class="cls-5" d="M434.48,347.19s-1.43,10.39-6.59,10.39-14.21,.56-14.21-3.27-1.6-5.75-1.6-5.75"/>
    <path class="cls-2" d="M491.08,408.8s-5.62-6.95-5.62-16.47"/>
    <path class="cls-2" d="M431.21,429.2s5.38-5.58,5.38-12.89-2.11-10.68-2.11-10.68"/>
  </g>
  <g id="faceparts">
    <g id="näsa">
      <path d="M442.23,357.81c-.69,0-1.43-.09-2.19-.27-2.49-.59-4.46-2.04-5.31-3.85-.66-1.46-.72-3.33-.12-4.89,.38-1.01,1-1.73,1.73-2.05,.81-.36,1.63-.15,2.35,.02,.68,.17,1.25,.3,1.72,0,.75-.51,.8-2.07,.14-4.46l.36-.11c.72,2.64,.63,4.24-.29,4.87-.6,.41-1.28,.24-2.02,.06-.69-.17-1.42-.35-2.11-.05-.63,.29-1.18,.93-1.52,1.84-.54,1.45-.5,3.24,.12,4.6,.78,1.72,2.67,3.08,5.05,3.63,1.95,.47,3.88,.27,4.8-.47,.42-.35,.78-.26,1.16-.17,.24,.06,.53,.12,.87,.09,.32-.03,.6-.15,.87-.27,.45-.2,.92-.39,1.4-.06,2.04,1.42,4.74,1.15,6.33,.98,1.28-.14,5.2-.53,6.32-2.94,1.07-2.31-.98-5.17-1.92-6.29-1.28-1.55-2.61-2.22-3.89-2.87-1.33-.66-2.58-1.3-3.45-2.85-.65-1.15-.87-2.9-.66-5.19,.44-4.75,2.61-9.7,6.29-14.31l.3,.24c-3.63,4.55-5.79,9.44-6.21,14.1-.2,2.22,0,3.88,.62,4.96,.81,1.45,1.96,2.02,3.29,2.7,1.25,.63,2.68,1.34,4.01,2.96,.98,1.18,3.12,4.19,1.96,6.7-1.21,2.59-5.28,3.02-6.62,3.15-1.66,.17-4.43,.45-6.59-1.04-.3-.21-.57-.11-1.04,.11-.29,.12-.62,.27-.98,.3-.42,.05-.74-.03-1-.09-.35-.08-.56-.14-.84,.09-.65,.53-1.72,.8-2.94,.8h0Z"/>
    </g>
    <path d="M475.65,344.28c-3.08,0-6.14-.63-8.73-2.14-2.96-1.72-6.73-5.49-5.87-8.49,1.07-3.69,8.51-4.13,10.77-4.18,7.03-.15,14.22,2.8,16.89,5.63,.87,.92,1.27,1.81,1.21,2.65-.11,1.36-1.51,2.84-3.83,4.06-2.85,1.49-6.64,2.46-10.44,2.46v.02Zm-14.4-10.57l.18,.05c-.81,2.8,2.84,6.41,5.69,8.07,5.66,3.29,13.74,2.32,18.79-.33,2.22-1.16,3.54-2.53,3.63-3.76,.06-.74-.32-1.54-1.1-2.37-2.56-2.71-9.58-5.52-16.14-5.52h-.47c-2.19,.05-9.41,.47-10.41,3.91l-.18-.05Z"/>
    <path d="M433.25,334.78c-1.34,0-2.7-.15-4.01-.5-3.62-.95-7.45-3.6-8.88-6.15-.53-.93-.69-1.82-.48-2.55h0c.95-3.24,9.26-3.05,10.19-3.02,5.32,.18,11.46,2.29,13.71,4.71,.63,.68,.95,1.37,.92,2.04-.03,.9-.68,1.84-1.87,2.71-2.1,1.55-5.76,2.77-9.56,2.77l-.02-.02Zm-13.03-9.09c-.18,.62-.03,1.4,.45,2.26,1.4,2.47,5.11,5.05,8.66,5.97,4.92,1.3,10.5-.17,13.26-2.22,1.07-.8,1.67-1.66,1.7-2.43,.03-.57-.26-1.16-.81-1.76-2.17-2.35-8.2-4.4-13.44-4.58-.36-.02-8.93-.27-9.82,2.76h0Z"/>
    <g id="mun">
      <path d="M444.15,378.62c-3.26,0-5.61-.33-7.43-2.1-.86-.84-1.27-1.69-1.7-2.58-.5-1.06-1.07-2.25-2.55-3.79-1.07-1.12-2.1-1.87-2.84-2.41-1.01-.74-1.67-1.24-1.49-1.98h0c.14-.57,.48-.89,6.48-1.63h.11c.17-.03,.47-.08,.84-.12h.12c4.48-.45,5.88,.53,5.94,.57,.56,.41,.78,.84,.95,1.16,.17,.33,.24,.44,.48,.51,.44,.12,.8-.11,1.4-.53,.41-.29,.87-.6,1.45-.81,1.89-.65,3.76,.48,6.86,2.34,1.7,1.03,2.79,1.85,3.68,2.52,1.18,.89,2.02,1.52,3.57,2.08,1.54,.54,2.93,.78,4.3,.75,.45,0,.92-.06,1.36-.12,.45-.08,.77-.15,.97-.2,.27-.08,.59-.15,.74,.17l.06,.15-.06,.17c-.21,.5-3.09,1.99-5.61,2.88-1.45,.51-2.58,.78-3.06,.9l-.62,.15c-4.74,1.15-7.34,1.78-10.48,1.85h-.6c-1.01,.05-1.96,.06-2.84,.06l-.03-.02Zm-15.28-12.67c-.06,.26,.5,.66,1.21,1.19,.77,.56,1.81,1.34,2.93,2.5,1.54,1.63,2.14,2.87,2.67,3.97,.42,.87,.78,1.63,1.55,2.37,2.08,2.02,4.95,1.95,9.71,1.84h.6c3.06-.09,5.49-.68,10.33-1.85l.62-.15c.47-.12,1.58-.38,2.99-.89,1.51-.54,2.82-1.15,3.76-1.64-.3,.03-.62,.06-.92,.06-1.45,.03-2.94-.23-4.57-.78-1.66-.59-2.55-1.25-3.77-2.19-.86-.65-1.95-1.46-3.6-2.47-3.24-1.95-4.74-2.79-6.23-2.28-.48,.17-.87,.44-1.27,.71-.6,.42-1.24,.86-2.04,.63-.57-.17-.77-.56-.95-.89-.15-.29-.3-.59-.71-.89,0,0-1.31-.84-5.43-.44h-.17c-.33,.03-.62,.08-.77,.09h-.11c-4.49,.57-5.66,.89-5.84,1.07v.05Z"/>
      <path d="M444.53,382.65c-1.6,0-3.12-.29-4.58-1.1-2.13-1.19-3.24-3.29-4.54-5.72l-.21-.39c-.69-1.31-1.28-2.68-1.75-4.1l.72-.24c.45,1.37,1.03,2.71,1.7,3.98l.21,.39c1.3,2.43,2.31,4.34,4.24,5.41,2.79,1.57,5.78,1.03,9.53,.35,2.2-.39,4.36-1.1,6.42-2.08,1.51-.72,2.82-1.98,3.86-2.99,.45-.44,.87-.84,1.24-1.15l.47,.59c-.35,.29-.74,.66-1.19,1.1-1.09,1.04-2.44,2.35-4.06,3.12-2.13,1.01-4.36,1.73-6.62,2.14-1.95,.35-3.76,.68-5.46,.68h.02Z"/>
      <path d="M455.37,370.67h-.21c-.83-.11-1.43-.38-1.92-.59-.17-.08-.33-.15-.48-.2-.51-.18-.9-.32-1.24-.44-.89-.32-1.27-.45-1.9-.57-.17-.03-.2-.03-.97-.06l-1.55-.06c-2.53-.11-2.93-.15-3.53-.27s-.86-.23-1.1-.32c-.23-.09-.47-.18-1.09-.32-.74-.17-1.27-.21-1.73-.26-.62-.06-1.16-.12-1.92-.39-.59-.21-1.58-1.09-2.56-1.95-.24-.21-.42-.38-.51-.44l.45-.6c.09,.06,.3,.26,.57,.48,.63,.57,1.82,1.61,2.32,1.81,.65,.24,1.13,.29,1.72,.35,.48,.05,1.04,.11,1.82,.27,.66,.15,.95,.26,1.19,.36,.24,.09,.44,.18,.98,.29,.54,.11,.93,.15,3.41,.26l1.54,.06c.78,.03,.84,.03,1.07,.08,.71,.12,1.13,.27,2.04,.6,.33,.12,.72,.26,1.24,.44,.17,.06,.35,.14,.53,.23,.47,.21,.98,.44,1.7,.53,.14,.02,.56-.02,.78-.03,.18-.02,.32-.03,.38-.03v.75s-.18,0-.32,.02c-.3,.03-.54,.05-.74,.05l.02-.05Z"/>
    </g>
    <ellipse cx="432.07" cy="328.33" rx="5.41" ry="6.58" transform="translate(46.14 709.83) rotate(-81.9)"/>
    <ellipse cx="472.98" cy="335.39" rx="5.62" ry="7.01" transform="translate(74.29 756.39) rotate(-81.9)"/>
  </g>
  <g id="hair">
    <g class="cls-9">
      <path class="cls-10" d="M412.09,327.68c-2.71-.6-4.12-22.71,5.64-42.36,7.24-14.55,18.01-22.53,24.13-26.95,7.21-5.22,18.59-13.45,34.4-14.63,21.05-1.58,36.84,10.33,43.9,15.65,33.24,25.08,35.15,67.27,34.65,71.1-.03,.24-.21,1.37,0,2.82,.54,3.82,3.18,6,4.36,7.45,3.56,4.33,.41,9.59,.26,20.28-.17,11.4,3.35,10.96,2.31,17.7-1.9,12.25-13.35,13-16.42,24.64-2.71,10.28,5.49,12.47,5.64,26.44,.2,17.27-12.32,18.49-12.83,37.47-.2,7.53,1.69,10.35,2.05,28.23,.27,12.85-.66,13.54-1.03,13.6-1.67,.29-4.07-10.57-8.22-21.82-11.43-31.02-22.8-28.65-26.95-49.54-2.9-14.57,1.28-22.56-5.9-38.76-1.6-3.62-8.52-9.09-6.86-12,.57-1,1.61-.89,3.53-1.6,4.54-1.67,6.12-5.04,11.81-12.06,5.44-6.74,5.25-5.2,6.94-7.96,6.33-10.33,3.29-22.33,3.08-23.1-2.04-7.53-6.58-12.02-11.55-16.94-10.22-10.12-15.43-8.29-21.05-17.19-1.39-2.19-.59-1.54-6.42-13.86-3.65-7.71-5.49-11.58-6.42-12.58-6.7-7.19-20.43-8.72-30.03-3.85-5.1,2.58-8.07,6.48-12.32,12.06-2.76,3.63-5.79,7.62-7.71,13.6-1.87,5.85-.83,7.92-3.08,14.12-1.24,3.42-4.3,10.38-5.9,10.01h0Z"/>
      <path d="M539.06,509.73c-1.37,0-2.34-2.85-4.75-10.5-1.12-3.54-2.38-7.57-3.91-11.7-5.79-15.71-11.66-22.92-16.38-28.73-4.77-5.87-8.54-10.5-10.6-20.9-1.12-5.62-1.19-10.28-1.27-14.78-.11-7.18-.21-13.96-4.6-23.86-.56-1.27-1.89-2.87-3.17-4.42-2.41-2.91-4.9-5.93-3.66-8.1,.5-.89,1.3-1.1,2.31-1.37,.44-.12,.93-.26,1.52-.47,3.33-1.22,5.05-3.47,8.17-7.54,.97-1.27,2.07-2.7,3.39-4.34,2.96-3.66,4.25-4.9,5.11-5.72,.69-.65,1.04-.98,1.78-2.19,6.27-10.22,3.15-22.15,3.02-22.67-1.99-7.37-6.56-11.9-11.4-16.68-4.67-4.63-8.25-6.7-11.39-8.54-3.71-2.16-6.65-3.86-9.74-8.78-.66-1.06-.84-1.48-1.45-2.88-.66-1.55-1.89-4.45-5.01-11.04-3.39-7.16-5.43-11.48-6.32-12.44-6.38-6.85-19.83-8.57-29.36-3.72-4.99,2.52-7.83,6.26-12.12,11.9-2.68,3.53-5.73,7.53-7.62,13.44-.86,2.68-1.1,4.6-1.33,6.44-.27,2.14-.54,4.34-1.76,7.71-.66,1.82-4.09,10.95-6.56,10.38-.47-.11-.86-.5-1.19-1.19-2.11-4.43-2.46-24.04,6.45-41.95,7.45-14.97,18.84-23.21,24.31-27.16,7.46-5.4,18.73-13.54,34.69-14.73,21.25-1.6,37.38,10.57,44.28,15.77,32.78,24.73,35.59,66.22,34.88,71.63-.12,.92-.12,1.79,0,2.67,.42,2.97,2.19,4.9,3.48,6.3,.29,.32,.54,.6,.77,.86,2.41,2.94,1.93,6.32,1.27,10.98-.39,2.73-.83,5.81-.89,9.67-.08,5.88,.83,8.55,1.55,10.71,.68,1.99,1.27,3.72,.74,7.07-1.01,6.59-4.78,10-8.4,13.3-3.24,2.96-6.61,6-8.04,11.4-1.36,5.13,.08,8.1,1.9,11.85,1.72,3.56,3.68,7.59,3.76,14.43,.09,8.73-2.94,13.38-6.15,18.28-3.15,4.83-6.42,9.8-6.68,19.21-.09,3.24,.21,5.55,.63,8.73,.51,3.95,1.22,9.37,1.43,19.47,.29,13.86-.78,14.06-1.49,14.18-.06,0-.12,.02-.18,.02h-.03Zm-85.61-235.21c7.04,0,13.96,2.4,18.1,6.83,.97,1.04,2.59,4.43,6.51,12.73,3.12,6.61,4.36,9.52,5.02,11.08,.59,1.37,.74,1.73,1.36,2.73,2.94,4.67,5.78,6.32,9.35,8.4,3.2,1.87,6.83,3.98,11.61,8.7,4.96,4.9,9.64,9.53,11.7,17.19,.14,.53,3.38,12.91-3.14,23.54-.81,1.33-1.22,1.72-1.96,2.41-.83,.8-2.1,1.99-5.01,5.59-1.31,1.63-2.41,3.06-3.38,4.31-3.24,4.24-5.04,6.58-8.69,7.92-.62,.23-1.16,.38-1.61,.5-.97,.26-1.36,.39-1.61,.84-.86,1.49,1.49,4.33,3.56,6.82,1.39,1.69,2.71,3.27,3.33,4.67,4.48,10.1,4.58,17,4.71,24.31,.08,4.45,.14,9.05,1.24,14.57,2.01,10.12,5.7,14.66,10.38,20.4,4.77,5.87,10.71,13.17,16.56,29.06,1.52,4.15,2.8,8.19,3.92,11.75,1.33,4.19,2.82,8.93,3.62,9.64,.24-.51,.8-2.8,.6-12.97-.21-10.04-.9-15.43-1.42-19.35-.41-3.12-.72-5.58-.63-8.91,.26-9.74,3.62-14.85,6.86-19.8,3.12-4.77,6.06-9.26,5.97-17.64-.08-6.59-1.98-10.5-3.65-13.95-1.85-3.82-3.45-7.1-1.98-12.64,1.51-5.73,4.99-8.88,8.37-11.94,3.65-3.32,7.09-6.44,8.05-12.64,.47-3.08-.02-4.52-.69-6.54-.75-2.23-1.7-5.02-1.61-11.1,.06-3.94,.53-7.19,.89-9.82,.65-4.54,1.07-7.54-1.03-10.1-.2-.24-.45-.51-.72-.81-1.31-1.43-3.29-3.59-3.77-6.91-.14-.98-.14-1.96,0-2.94,.06-.44,.5-44.26-34.43-70.61-6.79-5.11-22.7-17.12-43.51-15.55-15.64,1.18-26.75,9.21-34.11,14.52-5.4,3.91-16.63,12.02-23.95,26.75-8.6,17.3-8.45,36.49-6.5,40.88,.26,.59,.45,.66,.47,.66h.02c.78,0,3.27-4.25,5.23-9.65,1.18-3.24,1.43-5.29,1.7-7.46,.24-1.89,.48-3.85,1.37-6.64,1.95-6.09,5.05-10.18,7.8-13.77,4.24-5.56,7.3-9.59,12.52-12.23,3.82-1.93,8.23-2.85,12.61-2.85h-.03Z"/>
    </g>
    <g class="cls-11">
      <path class="cls-10" d="M406.61,327.06h0c-.2,.32-.41,.62-.6,.93,0,0-.02,.03-.03,.05,0,0-5.94,9.38-8.87,20.33-1.27,4.71-3.06,14.33-1.28,31.07,1.81,17.03,5.07,20.36,10.78,48,4.64,22.47,3.59,25.65,2.31,27.97-3.85,6.97-12.09,10.54-20.54,23.87-2.74,4.34-2.41,4.8-2.31,4.87,.63,.51,4.92-4.22,11.3-10.01,10.03-9.09,10.39-7.31,14.63-12.06,2.87-3.21,10.38-11.64,11.3-23.1,.51-6.32-1.19-10.99,2.31-15.65,1.75-2.32,3.38-2.79,4.61-5.64,1.9-4.37,.53-8.9,0-10.53-1.61-5.01-4.04-5.55-7.96-11.3-2.96-4.34-1.48-3.91-6.42-13.86-4.19-8.45-6-10.25-6.71-15.38-.32-2.28,.08-1.67-.23-7.98-.09-2.01-.17-2.7-1.03-12.83-.62-7.21-.92-10.86-.51-12.32,.17-.63,.62-1.98,.26-3.59-.26-1.18-1.03-2.8-1.03-2.82l.03-.02Z"/>
      <path d="M386.19,484.77c-.18,0-.33-.06-.47-.18-.48-.39-.66-1.12,2.19-5.62,4.75-7.51,9.52-12,13.33-15.62,2.97-2.8,5.53-5.23,7.19-8.23,1.33-2.4,2.07-6.14-2.37-27.6-2.56-12.38-4.63-19.88-6.29-25.91-2.04-7.37-3.5-12.71-4.51-22.15-1.33-12.56-.89-23.09,1.3-31.26,2.93-10.9,8.88-20.39,8.93-20.48l1.19-1.87,.42,.95-.51,.23,.51-.23c.18,.41,.81,1.84,1.06,2.91,.36,1.63,0,2.99-.23,3.71l-.05,.15c-.38,1.4-.05,5.44,.53,12.12l.27,3.18c.6,7.15,.68,7.89,.75,9.68,.15,3.32,.12,4.74,.11,5.67-.02,.84-.03,1.22,.12,2.26,.5,3.54,1.52,5.46,3.57,9.27,.83,1.55,1.87,3.48,3.09,5.94,2.44,4.93,3.32,7.3,3.95,9.02,.62,1.69,.97,2.64,2.43,4.78,1.54,2.26,2.84,3.68,3.97,4.95,1.7,1.89,3.06,3.38,4.06,6.5,1.33,4.16,1.33,7.83-.02,10.92-.81,1.85-1.76,2.76-2.79,3.72-.62,.57-1.25,1.18-1.9,2.04-2.32,3.11-2.25,6.14-2.14,9.98,.05,1.69,.09,3.44-.06,5.38-.93,11.66-8.57,20.21-11.43,23.44-2.07,2.31-3.23,3.11-4.98,4.31-1.89,1.28-4.46,3.06-9.7,7.8-2.28,2.07-4.31,4.03-5.94,5.59-3.54,3.41-4.84,4.61-5.61,4.61l.02,.03Zm.38-.81h0Zm19.94-155.69l-.03,.03c-.09,.14-5.96,9.49-8.82,20.21-2.16,8.05-2.58,18.43-1.27,30.85,1,9.35,2.44,14.64,4.46,21.96,1.66,6.05,3.74,13.57,6.3,25.98,4.52,21.87,3.74,25.67,2.25,28.37-1.73,3.15-4.36,5.62-7.4,8.51-3.77,3.57-8.48,8.01-13.15,15.4-1.22,1.93-1.79,3.03-2.05,3.65,.92-.71,2.53-2.26,4.21-3.89,1.64-1.58,3.68-3.54,5.97-5.61,5.28-4.8,7.9-6.59,9.82-7.89,1.69-1.16,2.8-1.92,4.78-4.13,2.8-3.14,10.25-11.49,11.16-22.77,.15-1.89,.11-3.6,.06-5.26-.11-3.91-.2-7.27,2.37-10.69,.71-.93,1.37-1.57,2.02-2.19,.97-.92,1.81-1.7,2.53-3.35,1.85-4.27,.44-8.67-.02-10.12-.93-2.9-2.14-4.24-3.82-6.08-1.16-1.28-2.49-2.74-4.07-5.07-1.54-2.26-1.92-3.3-2.55-5.02-.62-1.7-1.48-4.03-3.91-8.9-1.21-2.44-2.25-4.36-3.08-5.9-2.11-3.94-3.17-5.91-3.69-9.65-.15-1.13-.15-1.6-.12-2.44,.02-.92,.05-2.31-.11-5.58-.09-1.76-.15-2.5-.75-9.64l-.27-3.18c-.65-7.57-.92-10.98-.5-12.52l.05-.17c.2-.68,.51-1.81,.21-3.15-.11-.5-.33-1.13-.57-1.75l-.02-.02Z"/>
    </g>
  </g>
  <g id="glasögon">
    <path class="cls-2" d="M457.34,317.48c1.16-.47,2.43-.62,3.66-.44,2.64,.39,7.53,1.12,11.01,1.64,2.43,.36,16.47,6.74,23.68,12.32l1.93,1.49c1.61,1.24,2.1,3.45,1.15,5.25-2.52,4.72-7.93,13.04-14.66,13.04-9.4,0-22.8-2.41-27.49-7.1s-3.08-19.8-3.08-19.8l2.7-5.97,1.12-.45-.02,.02Z"/>
    <path class="cls-2" d="M409.07,313.5s29.26,.2,30.81,1.73l3.74,1.81c1.67,.81,2.82,2.4,3.05,4.24,.56,4.55,1.21,13-1.39,15.59-3.62,3.62-12.98,9.35-17.37,9.35s-15.8-4.61-15.8-4.61c0,0-11.1-7.89-11.1-14.82,0,0-1.12-5.78,0-8.85l3.08-3.38,5.01-1.06h-.02Z"/>
    <polyline class="cls-2" points="447.16 324.86 449.95 323.89 453.39 325.82"/>
    <polygon class="cls-3" points="495.69 331.01 506.76 331.01 509.14 333.89 499.06 334.59 495.69 331.01"/>
  </g>
</svg>