<?xml version="1.0" encoding="UTF-8"?>
<svg id="Layer_1" data-name="Layer 1" xmlns="http://www.w3.org/2000/svg" viewBox="0 0 745.09 743">
  <defs>
    <style>
      .cls-1 {
        opacity: .7;
      }

      .cls-2 {
        fill: #c5bab7;
      }

      .cls-3 {
        fill: #919f9d;
      }

      .cls-4, .cls-5, .cls-6, .cls-7 {
        stroke: #000;
        stroke-miterlimit: 10;
      }

      .cls-4, .cls-6, .cls-7 {
        fill: none;
      }

      .cls-8 {
        opacity: .5;
      }

      .cls-9 {
        fill: #d7d8cf;
      }

      .cls-6 {
        stroke-width: .25px;
      }

      .cls-10 {
        opacity: .78;
      }

      .cls-11 {
        fill: #524e4e;
      }

      .cls-12 {
        fill: #776a65;
      }

      .cls-7 {
        stroke-width: .5px;
      }
    </style>
  </defs>
  <path class="cls-7" d="M247.82,326.49s1.93-13.01,7.21-18.29c5.28-5.28,3.22-4.83,9.01-10.62s22.21-2.32,22.21-2.32c0,0,16.81,.77,16.81,16.23s29.55,34,29.55,34c0,0,7.73,6.18,7.73,15.65s-1.93,21.06-1.93,21.06c0,0-36.7,42.69-53.7,42.69s-22.12-1.84-24.53-4.25-19.12-28.78-19.12-34.38-5.22-36.89,0-42.11c5.22-5.22,6.76-17.64,6.76-17.64Z"/>
  <path class="cls-7" d="M299.2,405.56s-12.36,15.07-19.7,15.07-18.74-2.9-18.74-2.9l-5.84-4.64"/>
  <path class="cls-6" d="M325.82,371.56s-4.22,13.91-13.3,13.91-15.26-3.86-15.26-3.86c0,0-6.76-3.67-6.76-10.04s-2.9-5.79-2.9-5.79"/>
  <path class="cls-6" d="M261.53,363.06s-1.44,10.43-6.61,10.43-14.25,.56-14.25-3.28-1.61-5.76-1.61-5.76"/>
  <path class="cls-4" d="M318.32,424.87s-5.65-6.97-5.65-16.53"/>
  <path class="cls-4" d="M258.25,445.35s5.41-5.6,5.41-12.94-2.12-10.72-2.12-10.72"/>
  <g id="näsa">
    <path d="M269.31,373.71c-.69,0-1.43-.09-2.19-.27-2.5-.59-4.49-2.04-5.32-3.86-.67-1.47-.72-3.35-.12-4.91,.38-1.01,1-1.74,1.73-2.06,.82-.36,1.64-.16,2.36,.02,.68,.17,1.26,.31,1.72,0,.76-.52,.81-2.07,.14-4.48l.36-.1c.73,2.65,.64,4.25-.29,4.89-.6,.41-1.29,.24-2.02,.06-.7-.17-1.41-.35-2.12-.04-.64,.28-1.19,.94-1.53,1.85-.55,1.45-.51,3.26,.12,4.62,.79,1.72,2.68,3.09,5.06,3.65,1.96,.46,3.89,.28,4.81-.46,.43-.34,.79-.26,1.17-.17,.25,.06,.52,.12,.88,.09,.31-.03,.6-.15,.87-.27,.46-.2,.93-.4,1.41-.06,2.05,1.43,4.75,1.15,6.36,.99,1.29-.13,5.21-.54,6.34-2.95,1.08-2.32-.98-5.19-1.92-6.32-1.29-1.56-2.62-2.23-3.91-2.88-1.33-.67-2.58-1.3-3.46-2.85-.66-1.15-.88-2.91-.67-5.2,.43-4.76,2.62-9.72,6.31-14.36l.3,.24c-3.65,4.57-5.8,9.47-6.23,14.15-.2,2.22,0,3.89,.63,4.98,.82,1.45,1.97,2.03,3.3,2.7,1.26,.63,2.69,1.35,4.03,2.97,.98,1.18,3.14,4.2,1.97,6.72-1.21,2.61-5.29,3.03-6.64,3.16-1.67,.17-4.45,.46-6.62-1.05-.3-.21-.58-.1-1.05,.1-.29,.12-.61,.27-.99,.3-.42,.04-.74-.04-1-.1-.35-.08-.56-.13-.85,.1-.66,.53-1.72,.8-2.95,.8Z"/>
  </g>
  <path d="M302.83,360.15c-3.08,0-6.16-.64-8.75-2.14-2.97-1.73-6.75-5.51-5.88-8.52,1.07-3.7,8.54-4.15,10.8-4.19,7.06-.15,14.27,2.82,16.95,5.65,.87,.92,1.28,1.82,1.21,2.67-.11,1.36-1.51,2.84-3.85,4.07-2.86,1.5-6.66,2.47-10.47,2.47Zm-14.45-10.61l.18,.05c-.81,2.82,2.85,6.43,5.71,8.09,5.67,3.3,13.78,2.33,18.86-.34,2.22-1.17,3.55-2.54,3.65-3.76,.06-.74-.32-1.54-1.11-2.38-2.57-2.72-9.61-5.54-16.19-5.54-.16,0-.32,0-.48,0-2.2,.05-9.45,.46-10.45,3.92l-.18-.05Z"/>
  <path d="M260.29,350.61c-1.35,0-2.71-.15-4.03-.5-3.64-.96-7.47-3.62-8.92-6.18-.53-.95-.7-1.83-.49-2.56h0c.96-3.26,9.29-3.06,10.23-3.03,5.34,.18,11.51,2.3,13.75,4.72,.64,.69,.95,1.38,.92,2.05-.04,.9-.68,1.85-1.87,2.72-2.1,1.55-5.78,2.78-9.6,2.78Zm-13.07-9.13c-.18,.63-.03,1.41,.45,2.27,1.4,2.48,5.13,5.06,8.68,6,4.93,1.3,10.54-.17,13.31-2.22,1.08-.8,1.69-1.66,1.72-2.43,.02-.57-.25-1.16-.82-1.77-2.19-2.35-8.24-4.42-13.49-4.6-.36-.02-8.96-.27-9.86,2.76h0Z"/>
  <g id="mun">
    <path d="M271.23,394.6c-3.27,0-5.63-.33-7.45-2.1-.87-.85-1.28-1.69-1.71-2.59-.51-1.06-1.08-2.25-2.55-3.79-1.07-1.13-2.1-1.88-2.84-2.43-1.01-.74-1.68-1.23-1.5-1.98h0c.14-.57,.49-.9,6.5-1.64h.1c.16-.04,.46-.08,.84-.12h.13c4.49-.46,5.9,.53,5.96,.57,.56,.41,.79,.85,.95,1.17,.17,.33,.23,.44,.48,.51,.43,.12,.8-.11,1.41-.53,.41-.29,.87-.61,1.46-.81,1.89-.65,3.77,.48,6.89,2.35,1.71,1.03,2.81,1.86,3.69,2.52,1.18,.89,2.03,1.53,3.58,2.08,1.54,.54,2.94,.79,4.31,.75,.46-.01,.92-.05,1.36-.13,.45-.07,.77-.15,.97-.2,.28-.07,.59-.15,.73,.17l.07,.15-.07,.17c-.22,.5-3.11,1.99-5.63,2.89-1.45,.52-2.59,.79-3.08,.91l-.62,.15c-4.75,1.15-7.37,1.78-10.52,1.86h-.6c-1.02,.04-1.96,.06-2.84,.06Zm-15.32-12.72c-.06,.26,.5,.67,1.21,1.19,.77,.57,1.82,1.34,2.94,2.51,1.55,1.63,2.15,2.88,2.68,3.98,.42,.87,.78,1.63,1.56,2.38,2.09,2.03,4.97,1.96,9.75,1.84h.6c3.07-.09,5.51-.68,10.36-1.85l.62-.15c.48-.11,1.59-.38,3-.89,1.51-.54,2.83-1.15,3.77-1.65-.31,.03-.62,.06-.93,.06-1.45,.03-2.95-.22-4.58-.79-1.67-.59-2.56-1.26-3.79-2.19-.87-.66-1.95-1.47-3.62-2.48-3.25-1.96-4.76-2.8-6.25-2.28-.48,.17-.88,.45-1.27,.72-.61,.43-1.24,.87-2.05,.64-.58-.16-.77-.55-.95-.9-.15-.29-.3-.6-.72-.9,0,0-1.31-.85-5.44-.44-.08,0-.16,.01-.16,.01-.33,.04-.62,.08-.78,.1h-.11c-4.5,.57-5.68,.9-5.86,1.08Z"/>
    <path d="M271.61,398.63c-1.6,0-3.13-.29-4.6-1.11-2.13-1.19-3.26-3.3-4.56-5.74l-.21-.4c-.7-1.31-1.29-2.7-1.76-4.12l.72-.23c.45,1.38,1.03,2.72,1.71,3.99l.21,.4c1.3,2.43,2.32,4.35,4.26,5.44,2.81,1.57,5.79,1.03,9.57,.34,2.21-.4,4.38-1.1,6.45-2.09,1.52-.73,2.83-1.99,3.88-3,.45-.43,.87-.84,1.25-1.15l.48,.59c-.35,.28-.74,.66-1.2,1.1-1.09,1.05-2.44,2.36-4.08,3.14-2.13,1.02-4.37,1.74-6.64,2.16-1.95,.35-3.76,.68-5.48,.68Z"/>
    <path d="M282.48,386.62c-.08,0-.15,0-.21-.01-.83-.11-1.43-.38-1.92-.59-.17-.08-.33-.15-.48-.2-.51-.18-.91-.32-1.25-.44-.89-.32-1.26-.46-1.91-.57-.17-.03-.2-.03-.97-.06l-1.55-.06c-2.54-.11-2.94-.15-3.54-.27-.61-.12-.86-.22-1.11-.32-.23-.09-.48-.19-1.09-.32-.74-.16-1.27-.22-1.74-.26-.63-.06-1.17-.12-1.91-.39-.59-.22-1.59-1.08-2.57-1.95-.24-.22-.43-.38-.51-.44l.45-.61c.09,.07,.3,.25,.57,.49,.64,.57,1.83,1.62,2.33,1.81,.66,.24,1.13,.29,1.73,.35,.49,.05,1.05,.11,1.83,.28,.67,.15,.95,.26,1.2,.36,.24,.09,.44,.18,.98,.28,.55,.11,.93,.15,3.42,.25l1.55,.06c.79,.03,.85,.03,1.07,.07,.71,.12,1.13,.27,2.04,.6,.33,.12,.73,.26,1.24,.44,.16,.06,.34,.14,.53,.22,.46,.21,.99,.44,1.71,.53,.14,.02,.56-.02,.79-.04,.18-.02,.32-.03,.38-.02l-.02,.76s-.16,0-.3,.02c-.3,.03-.55,.04-.74,.04Z"/>
  </g>
  <ellipse cx="259.12" cy="344.12" rx="5.42" ry="6.59" transform="translate(-118.08 552.16) rotate(-81.9)"/>
  <ellipse cx="300.15" cy="351.21" rx="5.64" ry="7.03" transform="translate(-89.84 598.88) rotate(-81.9)"/>
  <g class="cls-8">
    <path class="cls-11" d="M239.06,343.49c-2.73-.61-4.14-22.79,5.67-42.5,7.26-14.6,18.07-22.61,24.21-27.04,7.24-5.23,18.66-13.49,34.51-14.68,21.12-1.58,36.96,10.37,44.04,15.71,33.35,25.16,35.28,67.5,34.77,71.34-.03,.24-.21,1.37,0,2.83,.55,3.82,3.19,6.02,4.38,7.47,3.57,4.35,.41,9.63,.26,20.35-.16,11.44,3.36,11,2.32,17.77-1.9,12.29-13.4,13.05-16.48,24.73-2.73,10.32,5.51,12.52,5.67,26.53,.19,17.33-12.36,18.56-12.88,37.6-.2,7.55,1.69,10.38,2.06,28.33,.27,12.89-.66,13.59-1.03,13.65-1.68,.29-4.09-10.61-8.24-21.89-11.47-31.13-22.88-28.75-27.04-49.71-2.91-14.62,1.28-22.63-5.92-38.89-1.61-3.64-8.55-9.13-6.89-12.05,.57-1,1.62-.9,3.54-1.6,4.56-1.68,6.15-5.05,11.85-12.11,5.46-6.77,5.26-5.22,6.95-7.98,6.36-10.36,3.3-22.41,3.09-23.18-2.04-7.55-6.6-12.07-11.59-17-10.26-10.15-15.48-8.33-21.12-17.26-1.39-2.2-.59-1.54-6.44-13.91-3.66-7.73-5.51-11.62-6.44-12.62-6.72-7.22-20.5-8.74-30.13-3.86-5.12,2.59-8.09,6.5-12.36,12.11-2.78,3.65-5.81,7.64-7.73,13.65-1.87,5.88-.84,7.95-3.09,14.17-1.24,3.43-4.31,10.41-5.92,10.04Z"/>
    <path d="M366.46,526.15c-1.38,0-2.35-2.85-4.77-10.53-1.12-3.56-2.39-7.6-3.92-11.74-5.81-15.76-11.7-23.01-16.43-28.83-4.79-5.89-8.57-10.54-10.64-20.97-1.12-5.65-1.2-10.32-1.27-14.83-.11-7.21-.22-14.02-4.62-23.94-.56-1.27-1.9-2.88-3.18-4.43-2.42-2.92-4.92-5.94-3.68-8.13,.51-.89,1.3-1.11,2.31-1.38,.43-.12,.94-.26,1.53-.47,3.35-1.23,5.07-3.48,8.2-7.57,.97-1.27,2.08-2.71,3.4-4.36,2.97-3.68,4.27-4.91,5.13-5.73,.69-.66,1.04-.99,1.78-2.19,6.29-10.26,3.16-22.23,3.02-22.74-1.99-7.4-6.58-11.94-11.44-16.74-4.7-4.64-8.27-6.72-11.43-8.56-3.73-2.17-6.67-3.88-9.77-8.8-.67-1.06-.85-1.49-1.45-2.89-.66-1.56-1.9-4.47-5.02-11.07-3.4-7.19-5.45-11.52-6.34-12.48-6.4-6.88-19.89-8.59-29.46-3.74-5,2.53-7.85,6.28-12.17,11.94-2.7,3.54-5.75,7.55-7.64,13.48-.86,2.7-1.1,4.61-1.33,6.46-.27,2.14-.55,4.36-1.77,7.73-.66,1.84-4.09,10.98-6.58,10.41-.47-.11-.86-.5-1.2-1.2-2.12-4.44-2.46-24.12,6.48-42.1,7.47-15.02,18.9-23.28,24.39-27.25,7.48-5.41,18.79-13.59,34.8-14.79,21.32-1.6,37.52,10.61,44.42,15.82,32.9,24.82,35.71,66.45,34.99,71.87-.13,.92-.13,1.81,0,2.68,.43,2.98,2.2,4.91,3.49,6.33,.29,.32,.55,.6,.77,.87,2.42,2.95,1.94,6.33,1.27,11.01-.39,2.73-.83,5.83-.89,9.7-.08,5.89,.83,8.59,1.56,10.75,.68,2,1.27,3.74,.75,7.1-1.02,6.61-4.79,10.04-8.43,13.35-3.26,2.96-6.63,6.02-8.06,11.44-1.36,5.15,.08,8.13,1.91,11.9,1.73,3.57,3.7,7.61,3.77,14.48,.1,8.76-2.95,13.42-6.18,18.34-3.17,4.83-6.44,9.83-6.7,19.28-.09,3.26,.21,5.57,.63,8.77,.52,3.97,1.22,9.4,1.43,19.54,.29,13.91-.79,14.1-1.5,14.22-.06,.01-.12,.02-.18,.02Zm-85.9-236c7.06,0,14.01,2.4,18.15,6.85,.97,1.04,2.6,4.45,6.54,12.76,3.14,6.63,4.38,9.55,5.04,11.12,.58,1.38,.74,1.75,1.36,2.73,2.96,4.68,5.79,6.33,9.39,8.42,3.21,1.87,6.86,3.99,11.65,8.73,4.97,4.92,9.66,9.56,11.74,17.25,.14,.52,3.39,12.95-3.15,23.63-.82,1.34-1.23,1.72-1.97,2.42-.84,.8-2.11,2-5.03,5.62-1.32,1.63-2.42,3.07-3.39,4.33-3.26,4.26-5.05,6.6-8.71,7.95-.62,.23-1.16,.38-1.62,.5-.96,.26-1.36,.39-1.62,.85-.86,1.5,1.49,4.34,3.57,6.84,1.4,1.69,2.72,3.28,3.35,4.7,4.49,10.14,4.6,17.06,4.72,24.39,.07,4.46,.14,9.07,1.25,14.62,2.02,10.15,5.72,14.7,10.41,20.47,4.79,5.89,10.74,13.21,16.61,29.15,1.54,4.17,2.81,8.21,3.94,11.79,1.33,4.21,2.82,8.96,3.64,9.67,.24-.51,.81-2.81,.6-13.01-.21-10.07-.91-15.47-1.42-19.42-.41-3.13-.73-5.6-.64-8.94,.26-9.77,3.63-14.91,6.88-19.87,3.13-4.78,6.09-9.3,6-17.71-.07-6.61-1.98-10.53-3.66-14-1.86-3.82-3.46-7.13-1.99-12.68,1.52-5.74,5.01-8.92,8.39-11.99,3.66-3.32,7.11-6.46,8.08-12.68,.48-3.09-.02-4.55-.7-6.56-.76-2.25-1.71-5.04-1.62-11.13,.06-3.94,.52-7.22,.9-9.85,.65-4.55,1.08-7.56-1.03-10.13-.2-.25-.45-.52-.73-.82-1.31-1.44-3.3-3.61-3.78-6.93-.14-.98-.14-1.97,0-2.95,.06-.44,.5-44.42-34.55-70.85-6.81-5.14-22.77-17.17-43.66-15.6-15.69,1.18-26.84,9.24-34.22,14.57-5.42,3.92-16.69,12.06-24.03,26.84-8.63,17.35-8.48,36.61-6.52,41.02,.26,.59,.45,.67,.46,.67,0,0,.01,0,.02,0,.79,0,3.29-4.27,5.25-9.68,1.18-3.25,1.44-5.31,1.71-7.49,.24-1.9,.48-3.86,1.37-6.66,1.94-6.11,5.06-10.21,7.82-13.82,4.25-5.58,7.32-9.62,12.56-12.27,3.83-1.94,8.26-2.87,12.65-2.87Z"/>
  </g>
  <g class="cls-10">
    <path class="cls-11" d="M233.57,342.86h0c-.2,.31-.4,.63-.6,.94,0,.01-.02,.03-.03,.05,0,0-5.95,9.41-8.9,20.39-1.27,4.73-3.07,14.38-1.29,31.16,1.81,17.08,5.09,20.43,10.82,48.16,4.66,22.55,3.61,25.74,2.32,28.07-3.86,6.99-12.13,10.57-20.6,23.95-2.76,4.35-2.41,4.82-2.32,4.89,.64,.52,4.93-4.24,11.33-10.04,10.07-9.13,10.43-7.34,14.68-12.11,2.88-3.23,10.41-11.68,11.33-23.18,.51-6.34-1.2-11.02,2.32-15.71,1.75-2.33,3.39-2.8,4.64-5.67,1.91-4.39,.52-8.93,0-10.56-1.61-5.02-4.06-5.57-7.98-11.33-2.97-4.35-1.48-3.92-6.44-13.91-4.21-8.48-6.02-10.29-6.73-15.44-.32-2.28,.07-1.67-.22-8-.09-2.02-.16-2.71-1.03-12.88-.62-7.24-.92-10.89-.52-12.36,.17-.64,.62-1.98,.26-3.61-.26-1.18-1.03-2.82-1.03-2.83Z"/>
    <path d="M213.09,501.11c-.18,0-.33-.07-.48-.18-.48-.39-.67-1.12,2.2-5.64,4.77-7.54,9.54-12.05,13.38-15.67,2.98-2.82,5.55-5.25,7.21-8.25,1.33-2.41,2.07-6.16-2.38-27.68-2.57-12.42-4.64-19.95-6.31-26-2.04-7.4-3.51-12.75-4.52-22.22-1.34-12.61-.9-23.16,1.3-31.37,2.93-10.93,8.91-20.45,8.97-20.55l1.2-1.87,.43,.96-.52,.23,.52-.22c.19,.41,.82,1.84,1.06,2.93,.37,1.64-.01,2.99-.22,3.72l-.04,.16c-.38,1.41-.04,5.46,.53,12.17l.27,3.19c.61,7.17,.68,7.92,.76,9.71,.16,3.33,.12,4.75,.1,5.68-.02,.84-.03,1.22,.12,2.27,.49,3.56,1.52,5.48,3.58,9.31,.83,1.55,1.87,3.49,3.1,5.96,2.46,4.95,3.33,7.32,3.96,9.05,.63,1.7,.97,2.64,2.44,4.79,1.54,2.27,2.84,3.7,3.98,4.96,1.71,1.89,3.06,3.38,4.07,6.52,1.34,4.17,1.33,7.86-.02,10.96-.81,1.86-1.78,2.77-2.8,3.73-.62,.58-1.26,1.18-1.91,2.05-2.34,3.11-2.25,6.16-2.15,10.01,.05,1.7,.1,3.45-.06,5.4-.94,11.7-8.59,20.28-11.47,23.51-2.07,2.32-3.24,3.12-5,4.33-1.89,1.29-4.48,3.07-9.72,7.82-2.28,2.07-4.32,4.03-5.97,5.61-3.56,3.42-4.85,4.64-5.63,4.64Zm.38-.82h0Zm20-156.22l-.02,.04c-.09,.14-5.97,9.52-8.86,20.28-2.16,8.07-2.59,18.49-1.27,30.96,.99,9.38,2.46,14.69,4.48,22.04,1.67,6.07,3.75,13.62,6.33,26.07,4.53,21.94,3.75,25.76,2.26,28.46-1.74,3.16-4.38,5.65-7.43,8.53-3.79,3.58-8.5,8.03-13.2,15.45-1.22,1.93-1.79,3.04-2.06,3.66,.92-.72,2.54-2.27,4.23-3.9,1.65-1.58,3.7-3.56,5.99-5.63,5.3-4.81,7.93-6.61,9.84-7.92,1.7-1.16,2.82-1.93,4.79-4.15,2.81-3.15,10.28-11.53,11.19-22.85,.15-1.89,.1-3.61,.06-5.28-.11-3.92-.2-7.3,2.37-10.73,.71-.94,1.38-1.58,2.03-2.19,.98-.92,1.82-1.71,2.53-3.36,1.86-4.28,.45-8.71-.02-10.16-.93-2.9-2.15-4.24-3.83-6.1-1.17-1.29-2.49-2.75-4.08-5.08-1.54-2.27-1.93-3.31-2.56-5.04-.63-1.71-1.49-4.04-3.91-8.93-1.22-2.45-2.25-4.38-3.08-5.92-2.12-3.95-3.18-5.93-3.7-9.69-.16-1.13-.15-1.6-.13-2.45,.02-.92,.05-2.31-.1-5.6-.08-1.77-.15-2.52-.76-9.67l-.27-3.19c-.65-7.6-.92-11.02-.5-12.56l.05-.16c.19-.68,.51-1.81,.21-3.17-.11-.5-.34-1.14-.58-1.75Z"/>
  </g>
  <path d="M302.61,558.14c-55.22,0-106.04-25.28-139.43-69.37-23.14-30.55-35.37-67.01-35.37-105.43,0-19.04,3.04-37.76,9.04-55.62,19.62-58.52,69.27-102.75,129.59-115.44,11.84-2.49,24.01-3.75,36.17-3.75,96.38,0,174.8,78.42,174.8,174.81,0,83.14-59.09,155.23-140.5,171.42-11.22,2.24-22.76,3.37-34.3,3.37Zm0-346.58c-11.95,0-23.91,1.24-35.55,3.69-59.27,12.47-108.06,55.93-127.34,113.44-5.89,17.55-8.88,35.94-8.88,54.66,0,37.75,12.02,73.58,34.75,103.6,32.81,43.32,82.75,68.17,137.02,68.17,11.34,0,22.68-1.12,33.7-3.31,80-15.91,138.07-86.76,138.07-168.46,0-94.72-77.06-171.79-171.77-171.79Z"/>
  <g>
    <path class="cls-2" d="M736.99,220.68c-25.45,49.48-110.9,13.18-173.84,78.82-36.19,37.72-44.71,88.05-50.99,125.17-16.05,94.74,20.31,133.25-10.05,169.99-27.22,32.93-88.13,40.33-125.18,17.76-15.6-9.49-25.8-23.59-40.31-59.13,79.42-15.8,139.28-85.89,139.28-169.94,0-95.71-77.58-173.3-173.28-173.3-12.3,0-24.29,1.29-35.86,3.72,.57-2.03,1.24-4.09,2-6.22,12.03-33.59,37.99-56.42,56.41-72.63,10.88-9.58,20.02-15.72,27.81-13.13,12.38,4.1,8.5,25.86,19.32,38.63,17.11,20.19,64.87,10.71,121.31-10.05,116.01-42.66,133.94-83.4,173.84-73.4,51.64,12.95,92.56,98.97,69.54,143.72Z"/>
    <path d="M427.11,626.86c-18.25,0-36.32-4.23-50.97-13.15-16.4-9.97-26.73-25.07-40.93-59.85l-.69-1.7,1.8-.36c80-15.91,138.07-86.76,138.07-168.46,0-94.72-77.06-171.79-171.77-171.79-11.95,0-23.91,1.24-35.55,3.69l-2.45,.52,.68-2.41c.57-2,1.23-4.07,2.03-6.31,12.15-33.94,37.96-56.65,56.8-73.23,11.51-10.13,20.87-16.28,29.33-13.47,7.59,2.52,9.64,10.72,11.81,19.41,1.74,6.98,3.55,14.2,8.19,19.68,14.58,17.19,53.71,13.76,119.63-10.49,54.42-20.01,87.02-39.49,110.82-53.71,27.19-16.24,42.17-25.19,63.91-19.74,25.27,6.34,50.27,30.84,65.25,63.93,13.9,30.71,15.87,61.34,5.27,81.95h0c-12.44,24.18-38.71,28.43-69.13,33.36-33.88,5.49-72.27,11.71-104.97,45.81-35.88,37.39-44.38,87.67-50.59,124.37-7.55,44.56-3.48,76.39-.21,101.97,3.63,28.36,6.25,48.85-10.17,68.73-16.68,20.18-46.65,31.25-76.16,31.25Zm-88.4-72.46c13.56,32.89,23.51,47.3,39,56.72,37.2,22.65,97.09,14.18,123.23-17.44,15.59-18.87,13.16-37.78,9.5-66.42-3.3-25.77-7.4-57.85,.22-102.86,6.28-37.09,14.87-87.9,51.39-125.96,33.4-34.83,72.33-41.14,106.67-46.7,29.61-4.8,55.18-8.94,66.92-31.76l1.35,.69-1.35-.69c10.18-19.79,8.18-49.44-5.34-79.31-14.61-32.28-38.83-56.13-63.23-62.25-20.53-5.14-35.13,3.57-61.62,19.41-23.91,14.28-56.65,33.84-111.33,53.95-67.26,24.74-107.49,27.88-122.98,9.61-5.1-6.02-7.08-13.93-8.82-20.91-2.05-8.2-3.81-15.27-9.83-17.27-7.51-2.49-17.09,4.7-26.34,12.83-18.63,16.4-44.1,38.81-55.99,72-.46,1.3-.87,2.53-1.25,3.72,11.05-2.16,22.37-3.25,33.69-3.25,96.38,0,174.8,78.42,174.8,174.81,0,82.52-58.22,154.17-138.7,171.06Z"/>
  </g>
  <g>
    <path class="cls-9" d="M164.39,487.85c-4.84,17.01-10.05,35.92-15.57,57.97-14.84,59.3-15.16,94.95-20.88,121.22-3.99,18.35-24.51,27.74-41.01,18.75-3.66-2-7.01-3.77-9.62-4.9-72.63-31.41-97.34-135.88-55.18-233.31,25.42-58.77,69.36-101.56,116.16-119.37-5.81,17.31-8.96,35.86-8.96,55.14,0,39.25,13.06,75.46,35.06,104.51Z"/>
    <path d="M100.38,690.76c-4.87,0-9.72-1.22-14.18-3.65-3.36-1.83-6.83-3.69-9.5-4.84-35.58-15.39-60.97-48.39-71.51-92.94-10.5-44.38-4.98-94.94,15.54-142.36,24.53-56.71,68.27-101.64,117.01-120.18l2.99-1.14-1.02,3.03c-5.89,17.55-8.88,35.94-8.88,54.66,0,37.75,12.02,73.58,34.75,103.6l.46,.6-.21,.73c-3.74,13.15-9.43,33.46-15.56,57.92-9.42,37.65-12.96,65.56-15.79,87.98-1.6,12.65-2.98,23.58-5.08,33.19-2.01,9.22-8.08,16.76-16.67,20.68-3.97,1.82-8.17,2.72-12.36,2.72Zm35.47-359.98c-46.8,18.94-88.63,62.58-112.34,117.39-20.26,46.82-25.72,96.71-15.37,140.46,10.31,43.59,35.09,75.86,69.77,90.86,2.78,1.21,6.33,3.1,9.75,4.96,7.44,4.05,16.13,4.36,23.83,.83,7.71-3.52,13.17-10.29,14.97-18.57,2.07-9.49,3.44-20.35,5.03-32.93,2.85-22.5,6.39-50.51,15.86-88.34,6.03-24.06,11.63-44.11,15.38-57.29-22.84-30.43-34.91-66.66-34.91-104.82,0-17.96,2.7-35.62,8.04-52.56Z"/>
  </g>
  <g>
    <path class="cls-3" d="M153.05,87.99c-1.66,9.7-9.14,13.62-35.54,32.45-35.64,25.42-40.22,31.27-41.72,38.63-3.22,15.8,9.42,30.37,13.91,35.54,16.6,19.14,47.97,30.95,63.36,20.09,11.85-8.37,4.34-23.21,21.63-46.36,5.81-7.78,12.37-16.56,23.18-18.54,17.36-3.19,33.52,13.35,37.09,17,14.15,14.48,11.23,25.03,20.09,27.82,14.41,4.53,36.87-18.78,44.81-41.72,2.47-7.13,5.83-16.82,1.55-26.27-6.51-14.37-25.82-17.48-32.45-18.54-13.37-2.15-24.76,.88-30.91,3.09-16.59,5.98-17.96,14.3-26.27,13.91-16.35-.77-35.21-34.1-26.27-52.54,6.46-13.33,23.23-10.16,27.82-23.18,4.5-12.78-6.73-29.86-18.54-38.63C179.39-.7,161.63,.93,142.23,3c-31.35,3.34-86,17.31-88.08,41.72-.75,8.74,5.37,17.29,10.82,21.63,11.76,9.39,28.17,5.36,30.91,4.64,8.37-2.22,8.49-5.32,20.09-9.27,9.15-3.12,15.44-5.26,21.63-3.09,10.15,3.55,17.43,17.78,15.45,29.36Z"/>
    <path d="M138.08,220.43c-16.7,0-37.35-10.77-49.53-24.82-4.82-5.56-17.61-20.31-14.25-36.84,1.59-7.8,5.86-13.56,42.33-39.56,3.62-2.58,6.88-4.88,9.83-6.96,18.27-12.88,23.78-16.76,25.1-24.52h0c1.87-10.97-5.16-24.42-14.46-27.68-5.7-2-11.64,.03-20.65,3.09-5.76,1.96-8.6,3.7-11.11,5.24-2.45,1.5-4.77,2.92-9.08,4.06-4.59,1.22-20.48,4.46-32.24-4.92-6.22-4.96-12.15-13.98-11.38-22.95C55.02,16.8,118,4.06,142.07,1.49c18.4-1.96,37.43-3.99,53.6,8.02,12.97,9.63,23.64,27.35,19.07,40.35-2.54,7.2-8.48,9.87-14.22,12.44-5.51,2.47-10.71,4.81-13.66,10.89-4.15,8.56-2.17,21.93,5.05,34.08,5.79,9.74,13.43,15.99,19.93,16.29,3.55,.17,5.56-1.46,8.91-4.15,3.45-2.77,8.16-6.57,16.78-9.67,7.23-2.6,18.59-5.27,31.66-3.16,6.61,1.06,26.74,4.3,33.59,19.41,4.53,10,1.05,20.05-1.49,27.39-8.07,23.28-31.19,47.55-46.7,42.67-5.07-1.59-6.79-5.44-8.98-10.32-2.16-4.82-4.84-10.82-11.74-17.88-12.36-12.65-25.05-18.53-35.73-16.57-10.23,1.88-16.61,10.42-22.24,17.96-8.86,11.86-11.07,21.49-12.84,29.22-1.68,7.35-3.01,13.15-9.13,17.47-4.39,3.1-9.87,4.48-15.84,4.48Zm16.46-132.18c-1.54,8.99-7.79,13.4-26.34,26.48-2.94,2.07-6.2,4.37-9.81,6.95-35.42,25.26-39.73,30.89-41.12,37.7-3.07,15.06,9.02,29,13.57,34.25,15.39,17.74,46.18,30.55,61.34,19.84,5.17-3.65,6.33-8.7,7.93-15.67,1.84-8.01,4.12-17.98,13.36-30.36,5.96-7.98,12.72-17.03,24.12-19.13,11.87-2.19,25.17,3.84,38.44,17.43,7.28,7.45,10.2,13.99,12.34,18.76,2.09,4.67,3.35,7.49,7.12,8.67,13.75,4.31,35.46-19.21,42.93-40.78,2.38-6.86,5.63-16.25,1.6-25.15-6.17-13.63-25.1-16.67-31.31-17.67-12.43-2-23.26,.54-30.15,3.02-8.14,2.93-12.45,6.4-15.91,9.18-3.5,2.81-6.27,5.02-10.94,4.81-7.51-.35-16.08-7.16-22.39-17.77-5.87-9.87-10.74-25.47-5.17-36.95,3.43-7.08,9.66-9.87,15.15-12.33,5.63-2.53,10.5-4.71,12.6-10.69,4.11-11.68-5.93-27.94-18.02-36.92-15.22-11.3-32.83-9.43-51.48-7.44C109.9,7.97,57.61,21.98,55.66,44.85c-.67,7.81,4.85,16.01,10.25,20.32,10.65,8.5,25.33,5.48,29.58,4.36,3.88-1.03,5.82-2.22,8.27-3.72,2.64-1.62,5.64-3.45,11.72-5.52,9.25-3.15,15.94-5.43,22.62-3.09,10.74,3.76,18.58,18.56,16.45,31.04h0Z"/>
  </g>
  <g class="cls-1">
    <path class="cls-12" d="M160.75,601.4c-25.4-2.78-30.57-35.97-49.45-35.54-10.82,.24-20.71,11.4-23.18,21.63-3.82,15.8,9.92,29.9,13.91,34,9.3,9.55,13.63,6.82,24.73,17,8.43,7.73,12.65,15.46,20.09,29.36,11.58,21.64,8.75,24.1,15.45,34,11.05,16.32,27.58,22.7,44.81,29.36,17.5,6.76,37.14,14.35,60.27,7.73,17.24-4.94,60.22-2.59,64.9-6.95,19.52-18.16-12.93-65.92-29.36-64.13-15.03,1.63-60.64,29.94-66.45,32.45-8.13,3.51-16.8,7.66-26.27,4.64-13.32-4.26-23.84-21.34-20.09-32.45,2.84-8.42,11.65-6.79,17-17,6.47-12.35,.07-27.16-1.55-30.91-1.68-3.89-8.61-18.4-23.18-23.18-9.37-3.07-12.29,1.02-21.63,0Z"/>
    <path d="M249.24,743c-15.79,0-29.85-5.43-42.67-10.38-17.59-6.79-34.2-13.21-45.52-29.92-3.28-4.84-4.35-7.93-5.82-12.21-1.63-4.73-3.66-10.61-9.71-21.93-7.67-14.35-11.72-21.57-19.78-28.96-5.32-4.87-8.99-6.68-12.54-8.42-3.78-1.86-7.35-3.61-12.25-8.64-12.15-12.47-16.96-24.38-14.3-35.41,2.61-10.8,13.12-22.53,24.62-22.79,9.7-.22,15.96,7.63,22.54,15.94,7.1,8.96,14.44,18.23,27.1,19.62,3.8,.42,6.48-.07,9.08-.53,3.68-.66,7.16-1.28,12.87,.59,14.43,4.73,21.66,18.37,24.1,24.02,6.86,15.88,4.6,26.28,1.5,32.21-2.9,5.54-6.73,7.82-10.11,9.83-3.11,1.85-5.57,3.32-6.8,6.95-1.4,4.14-.62,9.63,2.13,15.08,3.72,7.37,10.23,13.29,16.99,15.45,8.44,2.7,16.33-.73,23.96-4.04l1.25-.54c1.4-.6,5.55-2.97,10.8-5.96,16.66-9.48,44.56-25.36,56.08-26.61,10.44-1.15,25.04,14.76,32.15,30.32,7.12,15.58,6.54,28.86-1.6,36.43-2.62,2.44-12.09,2.95-28.61,3.66-13.33,.57-28.44,1.21-36.91,3.64-6.45,1.85-12.63,2.61-18.56,2.61Zm-137.58-175.64c-.11,0-.21,0-.32,0-10.1,.23-19.4,10.77-21.74,20.48-2.4,9.95,2.15,20.91,13.52,32.59,4.53,4.65,7.72,6.22,11.42,8.03,3.57,1.75,7.61,3.74,13.25,8.91,8.79,8.06,13.16,16.23,20.4,29.76,6.17,11.53,8.33,17.79,9.91,22.37,1.4,4.06,2.41,6.99,5.47,11.5,10.79,15.93,26.97,22.18,44.11,28.8,17.19,6.64,36.67,14.16,59.31,7.68,8.81-2.52,24.11-3.18,37.61-3.76,11.6-.5,24.75-1.06,26.68-2.85,10.11-9.41,4-26.18,.91-32.95-7.36-16.1-20.95-29.45-29.07-28.57-10.9,1.19-39.53,17.48-54.91,26.23-5.54,3.16-9.55,5.43-11.1,6.1l-1.24,.54c-7.76,3.38-16.56,7.2-26.09,4.15-7.5-2.4-14.69-8.9-18.77-16.97-3.16-6.25-3.97-12.44-2.29-17.41,1.59-4.7,4.91-6.67,8.12-8.59,3.18-1.89,6.47-3.85,8.97-8.63,2.8-5.34,4.8-14.82-1.59-29.61-2.28-5.27-9-17.99-22.26-22.34-4.98-1.63-7.95-1.1-11.39-.49-2.68,.48-5.71,1.02-9.94,.56h0c-13.92-1.52-22.01-11.74-29.15-20.75-6.28-7.93-11.72-14.79-19.78-14.79Z"/>
  </g>
  <path class="cls-4" d="M284.48,333.25c1.17-.47,2.43-.62,3.68-.43,2.65,.39,7.55,1.12,11.05,1.65,2.43,.37,16.52,6.76,23.76,12.36l1.94,1.5c1.61,1.25,2.11,3.47,1.15,5.27-2.53,4.73-7.96,13.08-14.71,13.08-9.43,0-22.87-2.42-27.59-7.13-4.72-4.72-3.09-19.86-3.09-19.86l2.7-5.99,1.12-.45Z"/>
  <path class="cls-4" d="M236.03,329.26s29.36,.19,30.91,1.74l3.75,1.82c1.67,.81,2.83,2.41,3.06,4.25,.57,4.57,1.21,13.04-1.4,15.65-3.63,3.63-13.03,9.38-17.43,9.38s-15.86-4.64-15.86-4.64c0,0-11.14-7.92-11.14-14.87,0,0-1.12-5.79,0-8.89l3.09-3.39,5.02-1.05Z"/>
  <polyline class="cls-4" points="274.26 340.65 277.06 339.69 280.5 341.62"/>
  <polygon class="cls-5" points="322.96 346.83 334.06 346.83 336.45 349.71 326.33 350.42 322.96 346.83"/>
</svg>