<?xml version="1.0" encoding="UTF-8"?>
<svg xmlns="http://www.w3.org/2000/svg" viewBox="0 0 960 1280">
  <defs>
    <style>
      .cls-1 {
        fill: #c5bab7;
      }

      .cls-2 {
        fill: #919f9d;
      }

      .cls-3, .cls-4, .cls-5, .cls-6 {
        stroke: #000;
        stroke-miterlimit: 10;
      }

      .cls-3, .cls-5, .cls-6 {
        fill: none;
      }

      .cls-7 {
        opacity: .5;
      }

      .cls-8 {
        fill: #d7d8cf;
      }

      .cls-5 {
        stroke-width: .25px;
      }

      .cls-9 {
        opacity: .7;
      }

      .cls-10 {
        opacity: .78;
      }

      .cls-11 {
        fill: #524e4e;
      }

      .cls-12 {
        fill: #776a65;
      }

      .cls-6 {
        stroke-width: .5px;
      }
    </style>
  </defs>
  <g id="outlines">
    <path class="cls-6" d="M574.09,460.3s1.28-8.6,4.77-12.09,2.13-3.19,5.96-7.02,14.68-1.53,14.68-1.53c0,0,11.11,.51,11.11,10.72s19.53,22.47,19.53,22.47c0,0,5.11,4.09,5.11,10.34s-1.28,13.91-1.28,13.91c0,0-24.26,28.21-35.49,28.21s-14.62-1.21-16.21-2.81-12.64-19.02-12.64-22.72-3.45-24.38,0-27.83,4.47-11.66,4.47-11.66Z"/>
    <path class="cls-6" d="M608.04,512.55s-8.17,9.96-13.02,9.96-12.38-1.91-12.38-1.91l-3.86-3.06"/>
    <path class="cls-5" d="M625.64,490.09s-2.79,9.19-8.79,9.19-10.09-2.55-10.09-2.55c0,0-4.47-2.43-4.47-6.64s-1.91-3.83-1.91-3.83"/>
    <path class="cls-5" d="M583.15,484.47s-.95,6.89-4.37,6.89-9.42,.37-9.42-2.17-1.06-3.81-1.06-3.81"/>
    <path class="cls-3" d="M620.68,525.32s-3.73-4.61-3.73-10.92"/>
    <path class="cls-3" d="M580.98,538.85s3.57-3.7,3.57-8.55-1.4-7.08-1.4-7.08"/>
  </g>
  <g id="faceparts">
    <g id="näsa">
      <path d="M588.29,491.51c-.46,0-.95-.06-1.45-.18-1.65-.39-2.96-1.35-3.52-2.55-.44-.97-.48-2.21-.08-3.24,.25-.67,.66-1.15,1.15-1.36,.54-.24,1.08-.1,1.56,.01,.45,.11,.83,.2,1.14,0,.5-.34,.53-1.37,.09-2.96l.24-.07c.48,1.75,.42,2.81-.19,3.23-.4,.27-.85,.16-1.34,.04-.46-.11-.94-.23-1.4-.03-.42,.19-.78,.62-1.01,1.22-.36,.96-.33,2.15,.08,3.05,.52,1.14,1.77,2.04,3.35,2.41,1.29,.31,2.57,.18,3.18-.31,.28-.23,.52-.17,.77-.11,.16,.04,.35,.08,.58,.06,.21-.02,.4-.1,.58-.18,.3-.13,.61-.26,.93-.04,1.35,.94,3.14,.76,4.2,.65,.85-.09,3.45-.35,4.19-1.95,.71-1.53-.65-3.43-1.27-4.17-.85-1.03-1.73-1.47-2.58-1.9-.88-.44-1.71-.86-2.29-1.89-.43-.76-.58-1.92-.44-3.44,.29-3.15,1.73-6.43,4.17-9.49l.2,.16c-2.41,3.02-3.84,6.26-4.12,9.35-.13,1.47,0,2.57,.41,3.29,.54,.96,1.3,1.34,2.18,1.79,.83,.42,1.78,.89,2.66,1.96,.65,.78,2.07,2.78,1.3,4.44-.8,1.72-3.5,2-4.39,2.09-1.1,.11-2.94,.3-4.37-.69-.2-.14-.38-.07-.69,.07-.19,.08-.41,.18-.65,.2-.28,.03-.49-.02-.66-.06-.23-.05-.37-.09-.56,.06-.43,.35-1.14,.53-1.95,.53Z"/>
    </g>
    <path d="M610.45,482.54c-2.04,0-4.07-.42-5.79-1.42-1.96-1.14-4.46-3.64-3.89-5.63,.71-2.45,5.64-2.74,7.14-2.77,4.66-.1,9.43,1.86,11.2,3.73,.58,.61,.84,1.2,.8,1.76-.07,.9-1,1.88-2.54,2.69-1.89,.99-4.4,1.63-6.92,1.63Zm-9.55-7.01l.12,.03c-.54,1.86,1.88,4.25,3.77,5.35,3.75,2.18,9.11,1.54,12.46-.22,1.47-.77,2.35-1.68,2.41-2.49,.04-.49-.21-1.02-.73-1.57-1.7-1.8-6.35-3.66-10.7-3.66-.1,0-.21,0-.31,0-1.45,.03-6.24,.31-6.9,2.59l-.12-.03Z"/>
    <path d="M582.33,476.24c-.89,0-1.79-.1-2.66-.33-2.4-.63-4.94-2.39-5.89-4.08-.35-.62-.46-1.21-.32-1.69h0c.63-2.15,6.14-2.02,6.76-2,3.53,.12,7.6,1.52,9.09,3.12,.42,.45,.63,.91,.61,1.35-.02,.6-.45,1.22-1.24,1.8-1.39,1.03-3.82,1.84-6.34,1.84Zm-8.64-6.03c-.12,.41-.02,.93,.3,1.5,.93,1.64,3.39,3.35,5.74,3.96,3.26,.86,6.96-.11,8.79-1.47,.71-.53,1.11-1.1,1.13-1.61,.02-.38-.17-.77-.54-1.17-1.44-1.56-5.44-2.92-8.91-3.04-.24-.01-5.92-.18-6.51,1.83h0Z"/>
    <g id="mun">
      <path d="M589.56,505.31c-2.16,0-3.72-.22-4.93-1.39-.57-.56-.84-1.12-1.13-1.71-.33-.7-.71-1.49-1.69-2.51-.71-.74-1.39-1.24-1.88-1.6-.67-.49-1.11-.82-.99-1.31h0c.09-.38,.32-.59,4.3-1.08h.07c.11-.02,.31-.05,.56-.08h.08c2.97-.3,3.9,.35,3.94,.38,.37,.27,.52,.56,.63,.77,.11,.22,.16,.29,.32,.34,.29,.08,.53-.07,.93-.35,.27-.19,.58-.4,.96-.54,1.25-.43,2.49,.32,4.55,1.55,1.13,.68,1.85,1.23,2.44,1.67,.78,.59,1.34,1.01,2.37,1.38,1.02,.36,1.94,.52,2.85,.5,.3,0,.61-.04,.9-.08,.3-.05,.51-.1,.64-.13,.18-.05,.39-.1,.49,.11l.04,.1-.04,.11c-.14,.33-2.05,1.32-3.72,1.91-.96,.34-1.71,.52-2.03,.6l-.41,.1c-3.14,.76-4.87,1.18-6.95,1.23h-.4c-.67,.03-1.3,.04-1.88,.04Zm-10.13-8.4c-.04,.17,.33,.44,.8,.79,.51,.37,1.2,.89,1.94,1.66,1.02,1.08,1.42,1.9,1.77,2.63,.28,.58,.52,1.08,1.03,1.57,1.38,1.34,3.28,1.29,6.44,1.22h.4c2.03-.06,3.64-.45,6.85-1.23l.41-.1c.31-.08,1.05-.25,1.98-.59,1-.36,1.87-.76,2.49-1.09-.2,.02-.41,.04-.61,.04-.96,.02-1.95-.15-3.03-.52-1.1-.39-1.69-.83-2.5-1.45-.57-.43-1.29-.97-2.39-1.64-2.15-1.29-3.14-1.85-4.13-1.51-.32,.11-.58,.29-.84,.47-.4,.28-.82,.57-1.35,.42-.38-.11-.51-.37-.63-.59-.1-.19-.2-.39-.47-.59,0,0-.87-.56-3.6-.29-.05,0-.11,0-.11,0-.22,.02-.41,.05-.51,.06h-.07c-2.98,.38-3.75,.59-3.87,.71Z"/>
      <path d="M589.81,507.98c-1.06,0-2.07-.19-3.04-.73-1.41-.79-2.15-2.18-3.01-3.79l-.14-.26c-.46-.87-.85-1.78-1.16-2.72l.48-.16c.3,.91,.68,1.8,1.13,2.64l.14,.26c.86,1.61,1.53,2.88,2.81,3.59,1.85,1.04,3.83,.68,6.32,.23,1.46-.26,2.89-.73,4.26-1.38,1-.48,1.87-1.31,2.56-1.98,.3-.29,.58-.56,.82-.76l.31,.39c-.23,.19-.49,.44-.79,.73-.72,.69-1.62,1.56-2.69,2.07-1.41,.67-2.89,1.15-4.39,1.42-1.29,.23-2.49,.45-3.62,.45Z"/>
      <path d="M597,500.04c-.05,0-.1,0-.14,0-.55-.07-.95-.25-1.27-.39-.11-.05-.22-.1-.32-.13-.34-.12-.6-.21-.82-.29-.59-.21-.84-.3-1.26-.38-.11-.02-.13-.02-.64-.04l-1.03-.04c-1.68-.07-1.94-.1-2.34-.18-.4-.08-.57-.15-.73-.21-.15-.06-.31-.12-.72-.21-.49-.11-.84-.14-1.15-.17-.41-.04-.77-.08-1.27-.26-.39-.14-1.05-.72-1.7-1.29-.16-.14-.28-.25-.34-.29l.3-.4c.06,.04,.2,.17,.38,.32,.42,.38,1.21,1.07,1.54,1.2,.43,.16,.75,.19,1.14,.23,.32,.03,.69,.07,1.21,.18,.44,.1,.63,.17,.79,.24,.16,.06,.29,.12,.65,.19,.36,.07,.62,.1,2.26,.17l1.02,.04c.52,.02,.56,.02,.71,.05,.47,.08,.75,.18,1.35,.4,.22,.08,.48,.17,.82,.29,.11,.04,.23,.09,.35,.15,.31,.14,.65,.29,1.13,.35,.09,.01,.37-.01,.52-.02,.12-.01,.21-.02,.25-.02v.5s-.12,0-.21,.01c-.2,.02-.36,.03-.49,.03Z"/>
    </g>
    <ellipse cx="581.55" cy="471.95" rx="3.59" ry="4.36" transform="translate(32.37 981.21) rotate(-81.9)"/>
    <ellipse cx="608.67" cy="476.64" rx="3.73" ry="4.65" transform="translate(51.03 1012.08) rotate(-81.9)"/>
  </g>
  <g id="hair">
    <g class="cls-7">
      <path class="cls-11" d="M568.3,471.53c-1.8-.4-2.73-15.06,3.74-28.09,4.8-9.65,11.94-14.94,16-17.87,4.78-3.46,12.33-8.92,22.81-9.7,13.96-1.05,24.43,6.85,29.11,10.38,22.04,16.63,23.31,44.61,22.98,47.15-.02,.16-.14,.91,0,1.87,.36,2.53,2.11,3.98,2.89,4.94,2.36,2.87,.27,6.36,.17,13.45-.11,7.56,2.22,7.27,1.53,11.74-1.26,8.12-8.85,8.62-10.89,16.34-1.8,6.82,3.64,8.27,3.74,17.53,.13,11.45-8.17,12.26-8.51,24.85-.13,4.99,1.12,6.86,1.36,18.72,.18,8.52-.44,8.98-.68,9.02-1.11,.19-2.7-7.01-5.45-14.47-7.58-20.57-15.12-19-17.87-32.85-1.92-9.66,.85-14.96-3.91-25.7-1.06-2.4-5.65-6.03-4.55-7.96,.38-.66,1.07-.59,2.34-1.06,3.01-1.11,4.06-3.34,7.83-8,3.61-4.47,3.48-3.45,4.6-5.28,4.2-6.85,2.18-14.81,2.04-15.32-1.35-4.99-4.36-7.97-7.66-11.23-6.78-6.71-10.23-5.5-13.96-11.4-.92-1.45-.39-1.02-4.26-9.19-2.42-5.11-3.64-7.68-4.26-8.34-4.44-4.77-13.55-5.78-19.91-2.55-3.38,1.71-5.35,4.3-8.17,8-1.83,2.41-3.84,5.05-5.11,9.02-1.24,3.88-.55,5.25-2.04,9.36-.82,2.27-2.85,6.88-3.91,6.64Z"/>
      <path d="M652.5,592.25c-.91,0-1.55-1.89-3.15-6.96-.74-2.35-1.58-5.02-2.59-7.76-3.84-10.42-7.73-15.2-10.86-19.05-3.16-3.89-5.66-6.96-7.03-13.86-.74-3.73-.79-6.82-.84-9.8-.07-4.76-.14-9.26-3.05-15.82-.37-.84-1.25-1.9-2.1-2.93-1.6-1.93-3.25-3.93-2.43-5.37,.33-.59,.86-.73,1.53-.91,.29-.08,.62-.17,1.01-.31,2.21-.81,3.35-2.3,5.42-5,.64-.84,1.37-1.79,2.25-2.88,1.96-2.43,2.82-3.25,3.39-3.79,.46-.43,.69-.65,1.18-1.45,4.16-6.78,2.09-14.69,2-15.03-1.32-4.89-4.35-7.89-7.56-11.06-3.1-3.07-5.47-4.44-7.55-5.66-2.46-1.43-4.41-2.56-6.46-5.82-.44-.7-.56-.98-.96-1.91-.44-1.03-1.25-2.95-3.32-7.32-2.25-4.75-3.6-7.61-4.19-8.25-4.23-4.54-13.15-5.68-19.47-2.47-3.31,1.67-5.19,4.15-8.04,7.89-1.78,2.34-3.8,4.99-5.05,8.91-.57,1.78-.73,3.05-.88,4.27-.18,1.42-.36,2.88-1.17,5.11-.44,1.21-2.71,7.26-4.35,6.88-.31-.07-.57-.33-.79-.79-1.4-2.94-1.63-15.94,4.28-27.82,4.94-9.93,12.49-15.39,16.12-18.01,4.95-3.58,12.42-8.98,23-9.77,14.09-1.06,24.79,7.01,29.36,10.46,21.74,16.4,23.6,43.91,23.13,47.5-.08,.61-.08,1.19,0,1.77,.28,1.97,1.45,3.25,2.31,4.18,.19,.21,.36,.4,.51,.57,1.6,1.95,1.28,4.19,.84,7.28-.26,1.81-.55,3.85-.59,6.41-.05,3.9,.55,5.67,1.03,7.1,.45,1.32,.84,2.47,.49,4.69-.67,4.37-3.17,6.63-5.57,8.82-2.15,1.96-4.38,3.98-5.33,7.56-.9,3.4,.05,5.37,1.26,7.86,1.14,2.36,2.44,5.03,2.49,9.57,.06,5.79-1.95,8.87-4.08,12.12-2.09,3.2-4.26,6.5-4.43,12.74-.06,2.15,.14,3.68,.42,5.79,.34,2.62,.81,6.21,.95,12.91,.19,9.19-.52,9.32-.99,9.4-.04,0-.08,.01-.12,.01Zm-56.77-155.97c4.67,0,9.26,1.59,12,4.53,.64,.69,1.72,2.94,4.32,8.44,2.07,4.38,2.89,6.31,3.33,7.35,.39,.91,.49,1.15,.9,1.81,1.95,3.1,3.83,4.19,6.2,5.57,2.12,1.24,4.53,2.64,7.7,5.77,3.29,3.25,6.39,6.32,7.76,11.4,.09,.35,2.24,8.56-2.08,15.61-.54,.88-.81,1.14-1.3,1.6-.55,.53-1.39,1.32-3.32,3.71-.87,1.08-1.6,2.03-2.24,2.86-2.15,2.81-3.34,4.36-5.76,5.25-.41,.15-.77,.25-1.07,.33-.64,.17-.9,.26-1.07,.56-.57,.99,.99,2.87,2.36,4.52,.92,1.12,1.8,2.17,2.21,3.1,2.97,6.7,3.04,11.27,3.12,16.12,.05,2.95,.09,6,.82,9.66,1.33,6.71,3.78,9.72,6.88,13.53,3.16,3.89,7.1,8.73,10.98,19.27,1.01,2.75,1.86,5.43,2.6,7.79,.88,2.78,1.87,5.92,2.4,6.39,.16-.34,.53-1.86,.4-8.6-.14-6.66-.6-10.23-.94-12.83-.27-2.07-.48-3.7-.42-5.91,.17-6.46,2.4-9.85,4.55-13.13,2.07-3.16,4.02-6.14,3.96-11.7-.05-4.37-1.31-6.96-2.42-9.25-1.23-2.53-2.29-4.71-1.31-8.38,1-3.8,3.31-5.89,5.55-7.92,2.42-2.2,4.7-4.27,5.34-8.38,.31-2.04-.01-3-.46-4.34-.5-1.48-1.13-3.33-1.07-7.36,.04-2.61,.35-4.77,.59-6.51,.43-3.01,.71-5-.68-6.7-.13-.16-.3-.34-.48-.54-.87-.95-2.18-2.38-2.5-4.58-.09-.65-.09-1.3,0-1.95,.04-.29,.33-29.35-22.83-46.82-4.5-3.39-15.05-11.35-28.85-10.31-10.37,.78-17.74,6.11-22.62,9.63-3.58,2.59-11.03,7.97-15.88,17.74-5.7,11.47-5.6,24.2-4.31,27.11,.17,.39,.3,.44,.31,.44,0,0,0,0,.01,0,.52,0,2.17-2.82,3.47-6.4,.78-2.15,.95-3.51,1.13-4.95,.16-1.25,.32-2.55,.91-4.4,1.29-4.04,3.35-6.75,5.17-9.13,2.81-3.69,4.84-6.36,8.3-8.11,2.53-1.28,5.46-1.89,8.36-1.89Z"/>
    </g>
    <g class="cls-10">
      <path class="cls-11" d="M564.67,471.12h0c-.13,.21-.27,.41-.4,.62,0,0-.01,.02-.02,.03,0,0-3.94,6.22-5.88,13.48-.84,3.12-2.03,9.5-.85,20.6,1.2,11.29,3.36,13.5,7.15,31.83,3.08,14.9,2.38,17.01,1.53,18.55-2.55,4.62-8.02,6.99-13.62,15.83-1.82,2.88-1.6,3.18-1.53,3.23,.42,.34,3.26-2.8,7.49-6.64,6.65-6.03,6.89-4.85,9.7-8,1.9-2.13,6.88-7.72,7.49-15.32,.34-4.19-.79-7.29,1.53-10.38,1.16-1.54,2.24-1.85,3.06-3.74,1.26-2.9,.35-5.9,0-6.98-1.07-3.32-2.68-3.68-5.28-7.49-1.96-2.88-.98-2.59-4.26-9.19-2.78-5.6-3.98-6.8-4.45-10.2-.21-1.51,.05-1.11-.15-5.29-.06-1.33-.11-1.79-.68-8.51-.41-4.78-.61-7.2-.34-8.17,.11-.42,.41-1.31,.17-2.38-.17-.78-.68-1.86-.68-1.87Z"/>
      <path d="M551.13,575.7c-.12,0-.22-.04-.31-.12-.32-.26-.44-.74,1.45-3.73,3.15-4.98,6.31-7.96,8.84-10.36,1.97-1.86,3.67-3.47,4.77-5.46,.88-1.59,1.37-4.07-1.57-18.3-1.7-8.21-3.07-13.18-4.17-17.18-1.35-4.89-2.32-8.43-2.99-14.69-.88-8.33-.59-15.31,.86-20.73,1.94-7.23,5.89-13.52,5.92-13.58l.79-1.24,.28,.63-.34,.15,.34-.15c.12,.27,.54,1.22,.7,1.93,.24,1.08,0,1.98-.15,2.46l-.03,.1c-.25,.93-.03,3.61,.35,8.04l.18,2.11c.4,4.74,.45,5.23,.5,6.42,.1,2.2,.08,3.14,.07,3.76-.01,.56-.02,.81,.08,1.5,.33,2.35,1.01,3.62,2.37,6.15,.55,1.03,1.24,2.31,2.05,3.94,1.62,3.27,2.2,4.84,2.62,5.98,.41,1.12,.64,1.75,1.61,3.17,1.02,1.5,1.88,2.44,2.63,3.28,1.13,1.25,2.03,2.24,2.69,4.31,.88,2.76,.88,5.19-.01,7.24-.54,1.23-1.17,1.83-1.85,2.47-.41,.38-.83,.78-1.26,1.35-1.54,2.06-1.49,4.07-1.42,6.62,.03,1.12,.06,2.28-.04,3.57-.62,7.73-5.68,13.4-7.58,15.54-1.37,1.53-2.14,2.06-3.3,2.86-1.25,.85-2.96,2.03-6.43,5.17-1.51,1.37-2.86,2.67-3.94,3.71-2.35,2.26-3.21,3.06-3.72,3.06Zm.25-.54h0Zm13.22-103.24l-.02,.02c-.06,.09-3.95,6.29-5.85,13.4-1.43,5.34-1.71,12.22-.84,20.46,.66,6.2,1.62,9.71,2.96,14.56,1.1,4.01,2.48,9,4.18,17.23,3,14.5,2.48,17.02,1.49,18.81-1.15,2.09-2.89,3.73-4.91,5.64-2.5,2.37-5.62,5.31-8.72,10.21-.81,1.28-1.19,2.01-1.36,2.42,.61-.47,1.68-1.5,2.79-2.58,1.09-1.05,2.44-2.35,3.96-3.72,3.5-3.18,5.24-4.37,6.51-5.23,1.12-.77,1.86-1.27,3.17-2.74,1.86-2.08,6.8-7.62,7.4-15.1,.1-1.25,.07-2.39,.04-3.49-.07-2.59-.13-4.82,1.57-7.09,.47-.62,.91-1.04,1.34-1.45,.64-.61,1.2-1.13,1.68-2.22,1.23-2.83,.29-5.75-.01-6.71-.62-1.92-1.42-2.81-2.53-4.03-.77-.85-1.65-1.82-2.7-3.36-1.02-1.5-1.27-2.19-1.69-3.33-.41-1.13-.98-2.67-2.59-5.9-.8-1.62-1.49-2.89-2.04-3.91-1.4-2.61-2.1-3.92-2.45-6.4-.1-.75-.1-1.06-.08-1.62,.01-.61,.03-1.53-.07-3.7-.06-1.17-.1-1.66-.5-6.39l-.18-2.11c-.43-5.02-.61-7.28-.33-8.3l.03-.11c.13-.45,.34-1.2,.14-2.09-.07-.33-.22-.75-.38-1.16Z"/>
    </g>
  </g>
  <g id="rund_ram" data-name="rund ram">
    <path d="M610.3,613.39c-36.5,0-70.08-16.71-92.15-45.85-15.29-20.19-23.37-44.28-23.37-69.67,0-12.59,2.01-24.95,5.97-36.76,12.96-38.67,45.78-67.91,85.64-76.29,7.82-1.65,15.87-2.48,23.91-2.48,63.7,0,115.52,51.83,115.52,115.53,0,54.94-39.05,102.59-92.86,113.29-7.42,1.48-15.04,2.23-22.67,2.23Zm0-229.05c-7.9,0-15.8,.82-23.49,2.44-39.17,8.24-71.42,36.97-84.16,74.97-3.89,11.6-5.87,23.75-5.87,36.12,0,24.95,7.94,48.63,22.97,68.47,21.68,28.63,54.69,45.05,90.55,45.05,7.49,0,14.99-.74,22.27-2.19,52.87-10.52,91.25-57.34,91.25-111.33,0-62.6-50.92-113.53-113.52-113.53Z"/>
    <g>
      <path class="cls-1" d="M897.37,390.37c-16.82,32.7-73.29,8.71-114.89,52.09-23.92,24.93-29.55,58.19-33.7,82.72-10.61,62.61,13.42,88.06-6.64,112.34-17.99,21.76-58.24,26.65-82.73,11.74-10.31-6.27-17.05-15.59-26.64-39.08,52.49-10.44,92.05-56.76,92.05-112.31,0-63.25-51.27-114.53-114.52-114.53-8.13,0-16.05,.85-23.7,2.46,.38-1.34,.82-2.7,1.32-4.11,7.95-22.2,25.11-37.29,37.28-48,7.19-6.33,13.23-10.39,18.38-8.68,8.18,2.71,5.62,17.09,12.77,25.53,11.31,13.34,42.87,7.08,80.17-6.64,76.67-28.19,88.52-55.12,114.89-48.51,34.13,8.56,61.17,65.41,45.96,94.98Z"/>
      <path d="M692.58,658.81c-12.06,0-24-2.79-33.69-8.69-10.84-6.59-17.66-16.57-27.05-39.56l-.46-1.12,1.19-.24c52.87-10.52,91.25-57.34,91.25-111.33,0-62.6-50.92-113.53-113.52-113.53-7.9,0-15.8,.82-23.49,2.44l-1.62,.34,.45-1.59c.38-1.32,.81-2.69,1.34-4.17,8.03-22.43,25.08-37.44,37.54-48.39,7.6-6.7,13.79-10.76,19.38-8.9,5.02,1.66,6.37,7.08,7.8,12.82,1.15,4.61,2.34,9.38,5.41,13.01,9.63,11.36,35.5,9.09,79.06-6.93,35.96-13.22,57.51-26.1,73.24-35.49,17.97-10.73,27.87-16.65,42.24-13.05,16.7,4.19,33.22,20.38,43.12,42.25,9.18,20.29,10.49,40.54,3.48,54.16h0c-8.22,15.98-25.58,18.79-45.68,22.05-22.39,3.63-47.76,7.74-69.37,30.28-23.71,24.71-29.33,57.94-33.44,82.2-4.99,29.45-2.3,50.49-.14,67.39,2.4,18.74,4.13,32.28-6.72,45.42-11.02,13.33-30.83,20.65-50.33,20.65Zm-58.42-47.89c8.96,21.74,15.53,31.26,25.78,37.49,24.59,14.97,64.17,9.37,81.44-11.52,10.3-12.47,8.7-24.97,6.28-43.89-2.18-17.03-4.89-38.23,.15-67.98,4.15-24.51,9.83-58.09,33.96-83.25,22.07-23.02,47.8-27.19,70.5-30.87,19.57-3.17,36.47-5.91,44.22-20.99l.89,.46-.89-.46c6.73-13.08,5.41-32.67-3.53-52.42-9.65-21.33-25.67-37.09-41.79-41.14-13.57-3.4-23.21,2.36-40.73,12.82-15.8,9.44-37.44,22.37-73.58,35.65-44.45,16.35-71.04,18.43-81.28,6.35-3.37-3.98-4.68-9.21-5.83-13.82-1.35-5.42-2.52-10.09-6.49-11.41-4.96-1.65-11.3,3.1-17.4,8.48-12.31,10.84-29.14,25.65-37,47.59-.3,.86-.58,1.67-.83,2.46,7.31-1.43,14.79-2.15,22.26-2.15,63.7,0,115.52,51.83,115.52,115.53,0,54.54-38.48,101.89-91.67,113.05Z"/>
    </g>
    <g>
      <path class="cls-8" d="M518.95,566.94c-3.2,11.24-6.64,23.74-10.29,38.31-9.81,39.19-10.02,62.75-13.8,80.11-2.64,12.13-16.2,18.33-27.1,12.39-2.42-1.32-4.63-2.49-6.36-3.24-48-20.76-64.33-89.8-36.47-154.19,16.8-38.84,45.84-67.12,76.77-78.89-3.84,11.44-5.92,23.7-5.92,36.44,0,25.94,8.63,49.87,23.17,69.07Z"/>
      <path d="M476.65,701.04c-3.22,0-6.43-.81-9.37-2.41-2.22-1.21-4.51-2.44-6.28-3.2-23.51-10.17-40.29-31.98-47.26-61.42-6.94-29.33-3.29-62.75,10.27-94.08,16.21-37.48,45.12-67.17,77.33-79.43l1.98-.75-.67,2.01c-3.89,11.6-5.87,23.75-5.87,36.12,0,24.95,7.94,48.63,22.97,68.47l.3,.4-.14,.48c-2.47,8.69-6.23,22.11-10.28,38.28-6.23,24.88-8.56,43.33-10.44,58.14-1.06,8.36-1.97,15.58-3.36,21.94-1.33,6.09-5.34,11.07-11.02,13.67-2.62,1.2-5.4,1.8-8.17,1.8Zm23.44-237.9c-30.93,12.51-58.58,41.36-74.25,77.58-13.39,30.95-17,63.91-10.16,92.83,6.81,28.81,23.19,50.13,46.11,60.05,1.84,.8,4.18,2.05,6.44,3.28,4.91,2.68,10.66,2.88,15.75,.55,5.1-2.33,8.7-6.8,9.89-12.28,1.37-6.27,2.27-13.45,3.33-21.76,1.88-14.87,4.22-33.38,10.48-58.38,3.98-15.9,7.68-29.15,10.16-37.86-15.1-20.11-23.07-44.05-23.07-69.28,0-11.87,1.79-23.54,5.31-34.74Z"/>
    </g>
    <g>
      <path class="cls-2" d="M511.46,302.68c-1.09,6.41-6.04,9-23.49,21.45-23.55,16.8-26.58,20.66-27.57,25.53-2.13,10.44,6.23,20.07,9.19,23.49,10.97,12.65,31.7,20.46,41.87,13.28,7.83-5.53,2.87-15.34,14.3-30.64,3.84-5.14,8.17-10.94,15.32-12.26,11.47-2.11,22.16,8.82,24.51,11.23,9.35,9.57,7.42,16.54,13.28,18.38,9.52,2.99,24.37-12.41,29.62-27.57,1.63-4.71,3.85-11.12,1.02-17.36-4.3-9.5-17.06-11.55-21.45-12.26-8.84-1.42-16.36,.58-20.43,2.04-10.97,3.95-11.87,9.45-17.36,9.19-10.81-.51-23.27-22.54-17.36-34.72,4.27-8.81,15.35-6.72,18.38-15.32,2.97-8.45-4.45-19.74-12.26-25.53-10.16-7.55-21.91-6.47-34.72-5.11-20.72,2.21-56.83,11.44-58.21,27.57-.49,5.78,3.55,11.43,7.15,14.3,7.77,6.2,18.62,3.54,20.43,3.06,5.53-1.47,5.61-3.52,13.28-6.13,6.05-2.06,10.21-3.48,14.3-2.04,6.7,2.35,11.52,11.75,10.21,19.4Z"/>
      <path d="M501.56,390.21c-11.04,0-24.68-7.12-32.73-16.4-3.18-3.67-11.64-13.42-9.42-24.34,1.05-5.15,3.87-8.96,27.97-26.15,2.39-1.71,4.55-3.23,6.49-4.6,12.07-8.51,15.72-11.08,16.59-16.2h0c1.24-7.25-3.41-16.14-9.56-18.29-3.77-1.32-7.7,.02-13.64,2.05-3.81,1.3-5.69,2.45-7.34,3.46-1.62,.99-3.15,1.93-6,2.69-3.03,.81-13.54,2.95-21.31-3.25-4.11-3.28-8.03-9.24-7.52-15.16,1.57-18.36,43.2-26.79,59.1-28.48,12.16-1.3,24.74-2.64,35.43,5.3,8.57,6.36,15.62,18.08,12.6,26.67-1.68,4.76-5.6,6.52-9.4,8.22-3.64,1.63-7.08,3.18-9.03,7.2-2.74,5.65-1.43,14.5,3.34,22.52,3.83,6.44,8.87,10.56,13.17,10.77,2.35,.11,3.67-.96,5.89-2.74,2.28-1.83,5.4-4.34,11.09-6.39,4.78-1.72,12.28-3.48,20.92-2.09,4.37,.7,17.67,2.84,22.2,12.83,2.99,6.61,.69,13.25-.99,18.1-5.33,15.38-20.61,31.42-30.86,28.2-3.35-1.05-4.49-3.6-5.93-6.82-1.43-3.19-3.2-7.15-7.76-11.82-8.17-8.36-16.55-12.25-23.61-10.95-6.76,1.24-10.98,6.89-14.7,11.87-5.86,7.84-7.31,14.2-8.49,19.31-1.11,4.85-1.99,8.69-6.04,11.55-2.9,2.05-6.52,2.96-10.47,2.96Zm10.88-87.36c-1.01,5.94-5.15,8.86-17.41,17.5-1.94,1.37-4.1,2.89-6.49,4.59-23.41,16.7-26.26,20.41-27.18,24.92-2.03,9.96,5.96,19.17,8.97,22.63,10.17,11.73,30.52,20.19,40.54,13.11,3.42-2.41,4.18-5.75,5.24-10.36,1.21-5.29,2.72-11.88,8.83-20.06,3.94-5.28,8.41-11.26,15.94-12.64,7.84-1.45,16.63,2.54,25.41,11.52,4.81,4.92,6.74,9.24,8.16,12.4,1.38,3.08,2.21,4.95,4.71,5.73,9.09,2.85,23.43-12.69,28.37-26.95,1.57-4.53,3.72-10.74,1.06-16.62-4.08-9.01-16.59-11.02-20.69-11.68-8.22-1.32-15.37,.36-19.93,2-5.38,1.94-8.23,4.23-10.51,6.07-2.31,1.86-4.15,3.32-7.23,3.18-4.96-.23-10.63-4.73-14.79-11.74-3.88-6.52-7.1-16.83-3.42-24.42,2.27-4.68,6.38-6.52,10.01-8.15,3.72-1.67,6.94-3.11,8.33-7.06,2.72-7.72-3.92-18.47-11.91-24.4-10.06-7.47-21.7-6.23-34.02-4.92-21.48,2.29-56.03,11.55-57.32,26.67-.44,5.16,3.2,10.58,6.78,13.43,7.04,5.62,16.74,3.62,19.55,2.88,2.57-.68,3.85-1.47,5.47-2.46,1.75-1.07,3.72-2.28,7.74-3.65,6.11-2.08,10.53-3.59,14.95-2.04,7.1,2.49,12.28,12.27,10.87,20.52h0Z"/>
    </g>
    <g class="cls-9">
      <path class="cls-12" d="M516.55,641.98c-16.78-1.84-20.2-23.77-32.68-23.49-7.15,.16-13.68,7.53-15.32,14.3-2.52,10.44,6.55,19.76,9.19,22.47,6.15,6.31,9,4.51,16.34,11.23,5.57,5.11,8.36,10.22,13.28,19.4,7.65,14.3,5.78,15.93,10.21,22.47,7.3,10.78,18.22,15,29.62,19.4,11.56,4.47,24.55,9.48,39.83,5.11,11.39-3.26,39.8-1.71,42.89-4.6,12.9-12-8.54-43.56-19.4-42.38-9.93,1.08-40.07,19.79-43.91,21.45-5.37,2.32-11.11,5.06-17.36,3.06-8.8-2.81-15.76-14.1-13.28-21.45,1.88-5.57,7.7-4.49,11.23-11.23,4.28-8.16,.05-17.95-1.02-20.43-1.11-2.57-5.69-12.16-15.32-15.32-6.19-2.03-8.12,.68-14.3,0Z"/>
      <path d="M575.02,735.56c-10.44,0-19.73-3.59-28.2-6.86-11.62-4.49-22.6-8.73-30.08-19.78-2.17-3.2-2.87-5.24-3.85-8.07-1.08-3.12-2.42-7.01-6.42-14.49-5.07-9.48-7.75-14.26-13.07-19.14-3.51-3.22-5.94-4.41-8.29-5.57-2.5-1.23-4.86-2.39-8.1-5.71-8.03-8.24-11.21-16.11-9.45-23.4,1.72-7.14,8.67-14.89,16.27-15.06,6.41-.14,10.55,5.04,14.9,10.53,4.69,5.92,9.54,12.05,17.91,12.96,2.51,.28,4.28-.04,6-.35,2.43-.43,4.73-.84,8.5,.39,9.53,3.13,14.31,12.14,15.93,15.87,4.54,10.5,3.04,17.37,.99,21.29-1.92,3.66-4.45,5.17-6.68,6.49-2.06,1.22-3.68,2.19-4.49,4.6-.92,2.73-.41,6.37,1.41,9.96,2.46,4.87,6.76,8.78,11.23,10.21,5.58,1.78,10.79-.48,15.84-2.67l.82-.36c.92-.4,3.67-1.96,7.14-3.94,11.01-6.27,29.45-16.76,37.06-17.59,6.9-.76,16.55,9.76,21.25,20.04,4.71,10.3,4.32,19.07-1.06,24.07-1.73,1.61-7.99,1.95-18.91,2.42-8.81,.38-18.79,.8-24.39,2.41-4.26,1.22-8.35,1.73-12.27,1.73Zm-90.92-116.07c-.07,0-.14,0-.21,0-6.68,.15-12.82,7.12-14.37,13.53-1.59,6.58,1.42,13.82,8.94,21.54,2.99,3.07,5.1,4.11,7.54,5.31,2.36,1.16,5.03,2.47,8.76,5.89,5.81,5.33,8.7,10.73,13.48,19.67,4.07,7.62,5.5,11.76,6.55,14.78,.93,2.68,1.59,4.62,3.61,7.6,7.13,10.53,17.83,14.66,29.15,19.03,11.36,4.39,24.23,9.36,39.19,5.08,5.82-1.67,15.94-2.1,24.86-2.48,7.67-.33,16.36-.7,17.63-1.88,6.68-6.22,2.65-17.3,.6-21.78-4.86-10.64-13.84-19.47-19.21-18.88-7.21,.78-26.13,11.55-36.29,17.34-3.66,2.09-6.31,3.59-7.33,4.03l-.82,.36c-5.13,2.23-10.95,4.76-17.24,2.74-4.96-1.58-9.71-5.88-12.4-11.21-2.09-4.13-2.63-8.22-1.52-11.51,1.05-3.1,3.24-4.41,5.36-5.67,2.1-1.25,4.28-2.54,5.93-5.7,1.85-3.53,3.17-9.79-1.05-19.57-1.5-3.48-5.95-11.89-14.71-14.77-3.29-1.08-5.26-.73-7.53-.32-1.77,.32-3.77,.67-6.57,.37h0c-9.2-1.01-14.55-7.76-19.26-13.71-4.15-5.24-7.74-9.78-13.07-9.78Z"/>
    </g>
  </g>
  <g id="glasögon">
    <path class="cls-3" d="M598.31,464.77c.77-.31,1.61-.41,2.43-.29,1.75,.26,4.99,.74,7.3,1.09,1.61,.24,10.92,4.47,15.7,8.17l1.28,.99c1.07,.82,1.39,2.29,.76,3.48-1.67,3.13-5.26,8.65-9.72,8.65-6.23,0-15.12-1.6-18.23-4.71s-2.04-13.13-2.04-13.13l1.79-3.96,.74-.3Z"/>
    <path class="cls-3" d="M566.3,462.13s19.4,.13,20.43,1.15l2.48,1.2c1.11,.54,1.87,1.59,2.02,2.81,.37,3.02,.8,8.62-.92,10.34-2.4,2.4-8.61,6.2-11.52,6.2s-10.48-3.06-10.48-3.06c0,0-7.36-5.23-7.36-9.83,0,0-.74-3.83,0-5.87l2.04-2.24,3.32-.7Z"/>
    <polyline class="cls-3" points="591.56 469.66 593.41 469.02 595.69 470.3"/>
    <polygon class="cls-4" points="623.74 473.74 631.08 473.74 632.66 475.65 625.97 476.11 623.74 473.74"/>
  </g>
</svg>