<?xml version="1.0" encoding="UTF-8"?>
<svg xmlns="http://www.w3.org/2000/svg" viewBox="0 0 596.28 596.28">
  <defs>
    <style>
      .cls-1 {
        fill: #e52127;
        stroke: #e52127;
      }

      .cls-1, .cls-2, .cls-3, .cls-4 {
        stroke-miterlimit: 10;
      }

      .cls-2, .cls-3 {
        fill: none;
        stroke: #fff;
      }

      .cls-3 {
        stroke-width: 2px;
      }

      .cls-4 {
        fill: #21409a;
        stroke: #2e3192;
      }

      .cls-5 {
        fill: #fff;
        font-family: CascadiaCodeRoman-SemiBold, 'Cascadia Code';
        font-size: 16px;
        font-variation-settings: 'wght' 600;
        letter-spacing: 0em;
      }
    </style>
  </defs>
  <g id="Layer_2" data-name="Layer 2">
    <rect class="cls-4" x=".5" y=".5" width="595.28" height="595.28"/>
  </g>
  <g id="text">
    <text class="cls-5" transform="translate(508.43 573.6) scale(1 1.33)"><tspan x="0" y="0">FROSTIES</tspan></text>
  </g>
  <g id="Layer_1" data-name="Layer 1">
    <path class="cls-3" d="M341.8,166.74c5.36,3.41,11.24,3.27,17.02,3.06,8.23-.29,8.27-1.89,12.26-1.02,6.41,1.41,10.37,6.45,12.26,8.85,4.08,5.19,5.19,10.17,6.81,17.36,1.73,7.71,2.94,13.1,1.36,19.74-1.59,6.7-4.87,9.77-3.4,11.57,2.01,2.48,8.59-2.85,16.68-.34,5.39,1.67,9.56,6.22,8.85,7.83-1.15,2.6-14.42-3.99-17.36-.34-5.69,7.06,30.2,48.8,35.74,45.28,4.3-2.73-11.42-31.63-8.17-33.36,2.16-1.15,12.73,9.71,17.36,23.83,8.69,26.49-5.8,57.42-12.94,56.85-5.88-.47-8.76-22.46-10.21-22.13-1.44,.33,6.97,20.94-1.7,38.34-4.28,8.58-7.83,6.6-13.96,17.15-7.4,12.74-4.05,18.82-10.89,31.32-2.18,3.99-6.96,12.71-16,18.04-16.65,9.82-37.64,2.17-51.06-2.72-8.09-2.95-16.4-7.98-33.02-18.04-20.71-12.54-31.13-18.92-34.04-24.17-12.59-22.69,9.49-57.55,7.15-58.55-2.37-1.02-17.38,37.96-28.89,36.1-4.05-.65-7.93-9.06-15.7-25.89-3.38-7.31-4.15-10.06-4.61-12.54,0,0-2.03-10.82,2.23-22.53,9.46-26.03,87.87-38.57,87.15-43.57-.52-3.63-42.45-.97-42.98-5.42-.24-2.01,8.23-3.05,15.75-11.95,2.42-2.86,2.53-3.92,4.37-4.83,7.56-3.71,19.26,7.6,20.48,6.19,1.16-1.35-11.33-9.43-11.95-20.98-.26-4.96,2.22-9.03,7.18-17.15,8-13.09,13.06-21.37,22.47-23.15,.45-.09,9.95-1.75,17.36,3.4,2.32,1.61,2.01,2.2,4.43,3.74Z"/>
    <path class="cls-2" d="M341.8,166.74s12.6,39.83,7.49,56.17-6.81,3.4-21.79,24.85c-4.68,6.7-3.18,13.67,1.41,20.14,10.1,14.22,35.14,26.01,42.16,27.18,9.81,1.63,39.72-12.75,45.08-41.94,.4-2.2-.43-4.44-2.21-5.79-8.08-6.15-32.11-23.99-46.28-29.89-17.23-7.18-4.09-48.06-4.09-48.06"/>
    <path class="cls-2" d="M327.5,247.76s32.99-15.39,83.56-2.59"/>
    <path class="cls-2" d="M289.71,249.13c-1.19,1.45-15.85,19.97-8.85,41.19,5.6,16.98,21.15,23.75,27.57,26.55,19.38,8.44,41.49,4.52,46.64-.68,.49-.5,2.13-2.32,4.43-2.38,3.2-.09,5.46,3.32,6.81,4.77,6.18,6.62,23.6,4.59,35.06-2.72,13.48-8.6,16.38-23.01,17.02-26.21,1.9-9.46,.08-17.3-1.16-21.32"/>
    <path class="cls-2" d="M374.48,295.21s4.95,5.91-12.85,19.06"/>
    <path class="cls-2" d="M328.91,267.9c-1.65-7.1,29.23-3.45,29.23-3.45,0,0-2.48,8.15-12.48,18.54"/>
    <path class="cls-2" d="M411.06,263.51s-19.22-6.55-18.54-2.47,9.26,18.97,9.26,18.97"/>
    <path class="cls-2" d="M299.23,312.25c6.2,10.65,8.05,19.62,8.52,26.07,.47,6.47-.59,8.34,1.02,12.6,3.5,9.23,14.57,16.33,24.85,16.34,4.79,0,9.77-1.7,19.74-5.11,4.35-1.49,7.63-2.87,12.6-2.72,4.86,.14,8.59,1.67,8.85,1.02,.31-.75-4.9-2.51-7.49-5.45-3.61-4.09-4.33-12.96,5.58-33"/>
    <path class="cls-2" d="M309.8,336.61c8.84-3.91,17.82-4.21,23.15-.34,2.13,1.55,7.72,12.85,7.83,14.98"/>
    <path class="cls-2" d="M358.14,358.06c-.68-12.94-5.79-22.66-21.11-18.31"/>
    <path id="_öra" data-name="öra" class="cls-2" d="M314.4,161.04c2.37-12.87,1.1-22.61-.17-28.43-1.33-6.09-2.9-8.94-5.45-10.72-4.88-3.42-11.35-1.57-14.47-.68-10.46,2.98-15.75,11.64-17.02,13.79-3.01,5.09-3.76,9.69-4.26,12.77-.76,4.69-1.47,9.02,.68,13.62,1.65,3.53,4.2,5.55,5.79,6.81,4.43,3.51,8.96,4.45,12.09,5.11,5.82,1.22,8.06,1.74,10.04,.68,.95-.51,2.21-1.48,2.04-2.21-.17-.75-1.71-.72-4.09-1.7,0,0-1.65-.68-3.57-2.04-1.42-1.01-2.73-2.3-4.77-5.28-3.28-4.8-4.92-7.2-5.11-9.7-.3-4.07,1.8-7.22,2.89-8.85,1-1.49,3-4.5,6.81-5.79,1.32-.45,3.98-1.35,6.47,0,2.55,1.38,3.27,4.22,3.4,4.77,.25,1,.08,1.15,0,4.77-.05,2.33,.03,1.87,0,5.62-.03,3.1-.08,3.71,0,5.45,.17,3.64,.6,4.6,1.19,5.28,.43,.5,1.7,1.7,1.7,1.7,.59-1.13-.79,2.76-1.95,3.28-2.19,.97-8.9-5.29-10.47-13.32-.5-2.54-.38-4.74-.17-6.3"/>
    <path id="_öra-2" data-name="öra" class="cls-2" d="M372.98,169.34c.66-2.14,1.3-5.34,.47-8.89-1.19-5.09-4.27-6.08-5.45-10.21-1.49-5.21,.89-12.45,6.13-16,6.99-4.74,16.15-.95,20.77,2.89,4.03,3.36,5.59,7.59,6.13,9.36,1.63,5.37,.46,9.85-.17,12.26-.32,1.21-1.43,5.12-4.6,9.36-4.37,5.86-11.19,10.38-13.48,8.84-.8-.54-.76-1.62-2.37-2.69-.75-.5-1.96-1.07-1.89-1.72,0,0,0-.08,.04-.15,.38-.9,4.37-1.59,5.61-1.89,2.61-.64,4.19-2.33,6.47-4.77,2.04-2.18,4-4.27,4.6-7.66,.78-4.41-1.28-8-2.21-9.36-.71-1.04-1.94-2.8-4.26-3.91-2.67-1.29-6.95-1.81-9.87,.68-2.31,1.97-2.65,4.86-2.72,5.45-.19,1.59,.21,2.07,1.19,6.98,.59,2.95,.88,4.43,.85,5.28-.18,4.43-3.06,6.74-2.33,7.52,.74,.79,4.41-.83,6.93-3.44,2.67-2.77,3.46-6.06,3.74-7.83"/>
    <path class="cls-2" d="M412.95,285.86s65.7-27.2,108.6-11.2"/>
    <path class="cls-2" d="M411.06,276.7s28.25-17.81,64.79-24.99c12.18-2.39,25.27-3.61,38.55-2.59"/>
    <path class="cls-2" d="M308.44,263.51s-65.7-46.24-129.36-39.17"/>
    <path class="cls-2" d="M303.33,273.25s-85.79-29.74-138.55-9.74"/>
    <path class="cls-1" d="M216.52,321.3c3.47-.48,6.75,14.21,11.74,25.53,5.53,12.54,15.3,19.24,32.8,33.65,12.17,10.02,24.26,19.84,42.78,28.65,6.18,2.94,14.84,5.87,32.17,11.74,8.75,2.96,15.44,5.05,24.51,5.11,4.7,.03,8.94,.06,13.79-1.53,16.11-5.29,23.31-23.3,25.53-29.11,6.05-15.83,4.42-28.09,5.62-28.09,1.38,0,5.35,16.43,.51,33.7-1.52,5.42-5.51,16.65-18.38,29.62-26.39,26.59-64.35,34.58-76.6,36.77-60.41,10.8-110.97-9.22-127.15-16.34-58.65-25.81-107.73-76.59-107.74-76.6-1.62-.29,44.72,18.15,85.79,7.66,7.14-1.82,36.96-9.44,47.49-32.68,6.07-13.4,3.75-27.62,7.15-28.09Z"/>
    <path class="cls-1" d="M201.2,321.28s-17.87,25.54-49.53,15.33c0,0,19.91-20.45,49.53-15.33Z"/>
    <path class="cls-1" d="M196.61,307.51s-27.15,4.27-36.83-21.65c-.34-.92-.66-1.87-.96-2.87,0,0,18.38-2.54,37.79,24.52Z"/>
  </g>
</svg>