<?xml version="1.0" encoding="utf-8"?>
<!-- Generator: Adobe Illustrator 26.5.0, SVG Export Plug-In . SVG Version: 6.00 Build 0)  -->
<svg version="1.1" id="Layer_1" xmlns="http://www.w3.org/2000/svg" xmlns:xlink="http://www.w3.org/1999/xlink" x="0px" y="0px"
	 viewBox="0 0 1366 200" style="enable-background:new 0 0 1366 200;" xml:space="preserve">
<style type="text/css">
	.st0{fill:#47594C;}
</style>
<g>
	<g>
		<path d="M83.64,106.84c0,7.69-2.82,13.85-8.46,18.49c-5.87,4.82-13.9,7.23-24.08,7.23c-13.42,0-21.29-2.48-23.61-7.44
			c-1.41-3-2.82-6.82-4.23-11.46c-0.59-2.14-0.16-3.52,1.3-4.16c1.82-0.82,3.25-0.45,4.3,1.09c3.87,5.73,7.75,9.8,11.67,12.21
			c3.78,2.32,8.19,3.48,13.24,3.48c12.64,0,18.97-5.05,18.97-15.15c0-3.96-1.39-7.32-4.16-10.1c-2.68-2.59-8.23-6.16-16.65-10.71
			C41.27,84.6,34.26,80.1,30.9,76.82c-4.14-4.05-6.21-9.05-6.21-15.01c0-6.32,2.65-11.71,7.95-16.17c5.3-4.46,12.06-6.69,20.3-6.69
			c5.82,0,11.48,0.73,16.99,2.18c4.23,1.14,6.62,2.59,7.16,4.37c1.14,3.68,1.89,8.23,2.25,13.65c0.09,1.96-0.57,3.05-1.98,3.27
			c-1.77,0.27-3.03-0.34-3.75-1.84c-2.82-5.69-6.03-9.69-9.62-12.01c-3.32-2.14-7.66-3.21-13.03-3.21c-4.78,0-8.55,1.11-11.33,3.34
			c-2.77,2.23-4.16,5.39-4.16,9.48c0,3.82,1.36,7.12,4.09,9.89c2.59,2.59,7.37,5.64,14.33,9.14c10.73,5.37,18.13,9.92,22.17,13.65
			C81.11,95.47,83.64,100.8,83.64,106.84z"/>
	</g>
	<g>
		<path d="M175.08,99.11c0,9.2-3.41,17-10.22,23.4c-6.69,6.3-14.73,9.46-24.12,9.46c-9.87,0-18.07-2.96-24.6-8.88
			c-6.69-6.11-10.03-14.01-10.03-23.69c0-9.36,3.39-17.22,10.17-23.59c6.69-6.24,14.84-9.36,24.45-9.36
			c9.81,0,17.96,3.04,24.45,9.12C171.78,81.75,175.08,89.59,175.08,99.11z M165.38,100.74c0-9.27-2.53-16.59-7.59-21.97
			c-4.87-5.16-11.3-7.74-19.29-7.74c-6.62,0-12.06,2.44-16.31,7.33c-4.25,4.89-6.38,11.25-6.38,19.08c0,9.39,2.47,16.78,7.4,22.16
			c4.81,5.22,11.33,7.83,19.58,7.83c6.65,0,12.08-2.45,16.29-7.35C163.28,115.18,165.38,108.73,165.38,100.74z"/>
	</g>
	<g>
		<path d="M235.54,68.5c-0.54,2.13-0.88,5.72-1,10.75c0,0.99-0.45,1.48-1.34,1.48c-0.89,0-1.51-0.43-1.86-1.29
			c-0.96-2.32-1.86-3.95-2.72-4.87c-1.02-1.08-2.37-1.74-4.06-1.96c-1.81-0.29-6.34-0.43-13.56-0.43c-1.66,0-2.74,0.18-3.25,0.53
			c-0.32,0.22-0.48,0.7-0.48,1.43v21.64c0,0.73,0.46,1.08,1.39,1.05c2.83-0.03,6.94-0.22,12.32-0.57c1.05-0.13,1.76-0.47,2.13-1.03
			c0.37-0.56,0.72-2,1.07-4.32c0.22-1.27,0.97-1.77,2.24-1.48c1.08,0.22,1.54,0.72,1.39,1.48c-0.89,4.33-1.18,9.97-0.86,16.91
			c0.03,0.83-0.49,1.27-1.58,1.34c-0.89,0.1-1.45-0.38-1.67-1.43c-0.83-3.98-2.36-6.11-4.61-6.38c-2.24-0.27-5.9-0.41-10.96-0.41
			c-0.57,0-0.86,0.21-0.86,0.62v21.49c0,1.59,0.59,2.67,1.77,3.25c0.92,0.48,2.91,0.91,5.97,1.29c1.56,0.16,2.24,0.84,2.05,2.05
			c-0.19,1.05-1.59,1.46-4.2,1.24c-7.55-0.6-13.77-0.57-18.67,0.1c-1.37,0.19-2.05-0.37-2.05-1.67c0-0.83,0.68-1.31,2.05-1.43
			c3.12-0.35,4.68-3.09,4.68-8.21V78.77c0-2.1-0.37-3.72-1.12-4.85c-0.75-1.13-2.14-2.16-4.18-3.08c-1.27-0.57-1.75-1.35-1.43-2.34
			c0.16-0.6,0.41-0.94,0.76-1c0.32-0.1,1.16-0.03,2.53,0.19c2.01,0.32,6.73,0.48,14.18,0.48c8.79,0,16.38-0.19,22.78-0.57
			c2.13-0.13,3.2,0.05,3.2,0.53C235.59,68.25,235.57,68.37,235.54,68.5z"/>
	</g>
	<g>
		<path d="M275.65,68.79c0,0.8-0.86,1.45-2.58,1.96c-3.85,1.15-5.78,2.64-5.78,4.49v46.47c0,2.99,1.77,4.81,5.3,5.44
			c1.75,0.32,2.63,0.94,2.63,1.86c0,0.8-0.15,1.29-0.45,1.48c-0.3,0.19-1.12,0.25-2.46,0.19c-8.41-0.35-14.9-0.35-19.49,0
			c-1.18,0.1-1.86-0.13-2.05-0.67c-0.06-0.22-0.1-0.56-0.1-1c0-0.64,0.72-1.11,2.15-1.43c2.67-0.6,4.22-1.03,4.63-1.29
			c1.02-0.64,1.53-1.94,1.53-3.92V75.52c0-2.64-1.78-4.27-5.35-4.87c-1.5-0.25-2.24-0.72-2.24-1.39c0-0.92,0.12-1.49,0.36-1.7
			c0.24-0.21,0.8-0.26,1.7-0.17c6.21,0.67,12.62,0.61,19.25-0.19c1.24-0.16,1.97-0.21,2.2-0.14
			C275.4,67.23,275.65,67.8,275.65,68.79z"/>
	</g>
	<g>
		<path d="M357.89,129.63c-0.19,0.86-0.4,1.37-0.62,1.53c-0.19,0.13-0.64,0.1-1.34-0.1c-4.55-0.83-11.21-0.92-19.96-0.29
			c-1.66,0.13-2.56-0.19-2.72-0.96c-0.16-0.89,0.37-1.58,1.58-2.05c3.44-1.4,5.16-2.71,5.16-3.92c0-0.48-0.19-1.16-0.57-2.05
			c-2.36-5.64-4.31-10.17-5.87-13.61c-2.26,0.13-6.24,0.19-11.94,0.19c-4.71,0-8.72-0.13-12.04-0.38
			c-1.11,2.74-2.67,6.56-4.68,11.46c-0.45,1.11-0.67,2.12-0.67,3.01c0,1.78,0.97,3.09,2.91,3.92c2.99,1.27,4.46,2.24,4.39,2.91
			c-0.06,1.08-1.07,1.51-3.01,1.29c-5.99-0.64-11.53-0.45-16.62,0.57c-1.34,0.29-2.09-0.19-2.24-1.43c-0.13-0.83,0.91-1.72,3.1-2.67
			c2.36-0.99,4.35-3.26,5.97-6.83c6.21-13.47,10.22-22.32,12.04-26.55c4.39-10.16,7.5-18.45,9.31-24.88
			c0.25-0.99,1.51-1.91,3.77-2.77c0.54-0.19,1.23,0.73,2.05,2.77c6.88,16.56,14.58,34.26,23.12,53.11c1.37,2.99,3.68,4.98,6.93,5.97
			C357.4,128.28,358.05,128.87,357.89,129.63z M331.96,104.46c-2.1-4.78-5.38-12.18-9.84-22.21c-0.26-0.54-0.54-0.81-0.86-0.81
			c-0.32,0-0.59,0.27-0.81,0.81l-9.12,22.02c3.41,0.26,7.23,0.38,11.46,0.38C325.4,104.65,328.46,104.59,331.96,104.46z"/>
	</g>
	<g>
		<path d="M532.11,128.34c0,1.14-0.24,1.84-0.72,2.12c-0.48,0.27-1.69,0.36-3.65,0.27c-11.87-0.5-21.08-0.5-27.63,0
			c-2.05,0.14-3.07-0.66-3.07-2.39c0-0.96,1.02-1.64,3.07-2.05c4.05-0.91,6.48-1.66,7.3-2.25c1-0.77,1.46-2.5,1.36-5.19l-2.39-58.27
			c-0.05-1.18-0.36-1.77-0.96-1.77c-0.46,0-0.89,0.41-1.3,1.23c-8.1,16.28-13.78,27.86-17.06,34.73
			c-6.6,13.69-11.26,24.08-13.99,31.18c-1.23,3.32-1.87,5.03-1.91,5.12c-0.46,0.82-1.11,1.36-1.98,1.64
			c-0.46,0.14-0.84,0.2-1.16,0.2c-0.91,0-1.73-1.34-2.46-4.03c-2.87-10.28-12.74-33.09-29.61-68.43c-0.5-1.05-1.05-1.57-1.64-1.57
			c-0.73,0-1.11,0.71-1.16,2.12c-0.64,13.51-1.39,31.5-2.25,53.97c-0.27,6,2.75,9.58,9.07,10.71c2.5,0.46,3.75,1.34,3.75,2.66
			c0,1.14-0.24,1.84-0.72,2.12c-0.48,0.27-1.67,0.36-3.58,0.27c-10.46-0.41-18.58-0.41-24.36,0c-2.05,0.14-3.07-0.66-3.07-2.39
			c0-0.96,1.02-1.64,3.07-2.05c3.64-0.77,6.03-1.98,7.16-3.62c0.91-1.27,1.41-3.57,1.5-6.89l2.39-60.38
			c0.09-2.64-0.43-4.66-1.57-6.07c-1-1.23-3.03-2.55-6.07-3.96c-2.18-1-3.21-2.07-3.07-3.21c0.09-1.23,1.07-1.71,2.93-1.43
			c6.96,1,13.05,1.18,18.29,0.55c2-0.23,3.37-0.18,4.09,0.14c0.73,0.32,1.36,1.11,1.91,2.39l28.52,65.29
			c0.36,0.91,0.68,1.36,0.96,1.36c0.27,0,0.68-0.61,1.23-1.84c1.82-3.91,11.98-24.99,30.5-63.25c1.14-2.32,2.57-3.48,4.3-3.48
			c4.23,0,10.14-0.61,17.74-1.84c1.73-0.27,2.8-0.36,3.21-0.27c0.77,0.23,1.16,1.07,1.16,2.52c0,1.09-1.21,2.02-3.62,2.8
			c-5.69,1.77-8.48,3.91-8.39,6.41l2.52,66.39c0.09,2.64,0.75,4.5,1.98,5.59c1,0.96,2.84,1.68,5.53,2.18
			C530.84,126.18,532.11,127.06,532.11,128.34z"/>
	</g>
	<g>
		<path d="M617.44,129.63c-0.19,0.86-0.4,1.37-0.62,1.53c-0.19,0.13-0.64,0.1-1.34-0.1c-4.55-0.83-11.21-0.92-19.96-0.29
			c-1.66,0.13-2.56-0.19-2.72-0.96c-0.16-0.89,0.37-1.58,1.58-2.05c3.44-1.4,5.16-2.71,5.16-3.92c0-0.48-0.19-1.16-0.57-2.05
			c-2.36-5.64-4.31-10.17-5.87-13.61c-2.26,0.13-6.24,0.19-11.94,0.19c-4.71,0-8.72-0.13-12.04-0.38
			c-1.11,2.74-2.67,6.56-4.68,11.46c-0.45,1.11-0.67,2.12-0.67,3.01c0,1.78,0.97,3.09,2.91,3.92c2.99,1.27,4.46,2.24,4.39,2.91
			c-0.06,1.08-1.07,1.51-3.01,1.29c-5.99-0.64-11.53-0.45-16.62,0.57c-1.34,0.29-2.09-0.19-2.24-1.43c-0.13-0.83,0.91-1.72,3.1-2.67
			c2.36-0.99,4.35-3.26,5.97-6.83c6.21-13.47,10.22-22.32,12.04-26.55c4.39-10.16,7.5-18.45,9.31-24.88
			c0.25-0.99,1.51-1.91,3.77-2.77c0.54-0.19,1.23,0.73,2.05,2.77c6.88,16.56,14.58,34.26,23.12,53.11c1.37,2.99,3.68,4.98,6.93,5.97
			C616.94,128.28,617.6,128.87,617.44,129.63z M591.5,104.46c-2.1-4.78-5.38-12.18-9.84-22.21c-0.26-0.54-0.54-0.81-0.86-0.81
			c-0.32,0-0.59,0.27-0.81,0.81l-9.12,22.02c3.41,0.26,7.23,0.38,11.46,0.38C584.94,104.65,588,104.59,591.5,104.46z"/>
	</g>
	<g>
		<path d="M699.15,102.12c0,1.02-0.75,1.64-2.24,1.86c-2.1,0.32-3.33,0.54-3.68,0.67c-1.15,0.48-1.72,1.4-1.72,2.77v14.95
			c0,1.88-2.45,3.88-7.36,6.02c-5.51,2.39-11.7,3.58-18.58,3.58c-10,0-18.32-2.98-24.98-8.93c-6.75-6.05-10.12-13.8-10.12-23.26
			c0-9.65,3.49-17.67,10.46-24.07c6.75-6.18,14.87-9.27,24.36-9.27c7.29,0,13.48,0.88,18.58,2.63c3.76,1.27,5.71,2.55,5.87,3.82
			c0.32,2.42,0.48,6,0.48,10.75c0,1.05-0.65,1.61-1.96,1.67c-1.53,0.06-2.47-0.37-2.82-1.29c-1.75-4.74-4.21-8.16-7.38-10.24
			c-3.17-2.09-7.52-3.13-13.06-3.13c-7.64,0-13.61,2.34-17.91,7.02c-4.43,4.87-6.64,11.84-6.64,20.92c0,8.76,2.55,15.81,7.64,21.16
			c4.93,5.22,11.29,7.83,19.06,7.83c3.98,0,7.69-0.72,11.13-2.15c3.28-1.37,4.92-2.75,4.92-4.16v-9.93c0-2.36-0.48-4.06-1.43-5.11
			c-0.83-0.96-2.47-1.8-4.92-2.53c-1.81-0.54-2.67-1.19-2.58-1.96c0.13-0.83,0.34-1.34,0.64-1.53c0.3-0.19,1.07-0.21,2.32-0.05
			c6.78,0.83,13.37,0.89,19.77,0.19c0.35-0.03,0.64-0.05,0.86-0.05C698.72,100.31,699.15,100.91,699.15,102.12z"/>
	</g>
	<g>
		<path d="M785.5,68.69c0,0.8-0.86,1.45-2.58,1.96c-3.82,1.08-5.73,3.3-5.73,6.64v34.34c0,7.23,0.1,13.05,0.29,17.48
			c0.06,1.69-0.33,2.64-1.19,2.87c-1.43,0.35-2.64-0.4-3.63-2.24c-1.59-3.02-7.83-10.48-18.72-22.35
			c-9.11-9.9-17.93-19.15-26.46-27.75c-0.29-0.29-0.57-0.37-0.86-0.24c-0.32,0.16-0.48,0.53-0.48,1.1v39.16c0,4.2,2.12,6.7,6.35,7.5
			c1.75,0.35,2.63,0.97,2.63,1.86c0,1.21-0.99,1.77-2.96,1.67c-7.58-0.32-13.47-0.32-17.67,0c-1.37,0.1-2.05-0.46-2.05-1.67
			c0-0.67,0.68-1.15,2.05-1.43c2.45-0.57,4.09-1.35,4.92-2.34c0.83-0.99,1.24-2.66,1.24-5.01V77.96c0-1.85-0.38-3.26-1.15-4.25
			c-0.73-0.89-2.15-1.81-4.25-2.77c-1.56-0.73-2.31-1.48-2.24-2.24c0.1-0.86,0.81-1.19,2.15-1c4.14,0.57,7.72,0.7,10.75,0.38
			c1.56-0.16,2.96,0.43,4.2,1.77l40.02,42.65c0.54,0.61,0.91,0.91,1.1,0.91c0.25,0,0.38-0.43,0.38-1.29V77.57
			c0-4.04-2.12-6.43-6.35-7.16c-1.5-0.25-2.24-0.7-2.24-1.34c0-1.34,0.68-1.93,2.05-1.77c5.22,0.57,11.05,0.51,17.48-0.19
			c1.11-0.13,1.83-0.14,2.15-0.05C785.23,67.23,785.5,67.77,785.5,68.69z"/>
	</g>
	<g>
		<path d="M869.79,69.36c0,0.64-0.72,1.13-2.15,1.48c-2.48,0.57-4.06,1.15-4.73,1.72c-0.89,0.8-1.34,2.28-1.34,4.44v27.37
			c0,8.76-2.28,15.51-6.83,20.25c-4.68,4.9-11.46,7.35-20.35,7.35c-18.79,0-28.18-8.84-28.18-26.51V76.81c0-3.02-1.77-4.86-5.3-5.49
			c-1.21-0.22-1.95-0.43-2.22-0.62c-0.27-0.19-0.41-0.57-0.41-1.15c0-0.99,0.24-1.56,0.72-1.72c0.22-0.1,0.97-0.11,2.24-0.05
			c8.56,0.45,15.11,0.45,19.63,0c0.96-0.1,1.54-0.05,1.74,0.14c0.21,0.19,0.31,0.73,0.31,1.62c0,0.67-0.69,1.16-2.05,1.48
			c-2.67,0.57-4.22,0.99-4.63,1.24c-1.02,0.64-1.53,1.94-1.53,3.92v27.61c0,8.12,1.69,14.07,5.06,17.86
			c3.37,3.79,8.8,5.68,16.29,5.68c12.83,0,19.25-7.39,19.25-22.16V77.67c0-2.16-0.56-3.74-1.67-4.73c-0.89-0.83-2.45-1.43-4.68-1.81
			c-1.75-0.32-2.63-0.91-2.63-1.77c0-0.99,0.25-1.56,0.76-1.72c0.19-0.06,0.94-0.08,2.24-0.05c8.85,0.35,14.95,0.35,18.29,0
			c1.27-0.13,1.97,0.13,2.1,0.76C869.77,68.58,869.79,68.91,869.79,69.36z"/>
	</g>
	<g>
		<path d="M926.91,113.97c0,5.38-1.97,9.7-5.92,12.94c-4.11,3.38-9.73,5.06-16.86,5.06c-9.39,0-14.9-1.74-16.52-5.21
			c-0.99-2.1-1.97-4.78-2.96-8.02c-0.41-1.5-0.11-2.47,0.91-2.91c1.27-0.57,2.28-0.32,3.01,0.76c2.71,4.01,5.43,6.86,8.17,8.55
			c2.64,1.62,5.73,2.44,9.27,2.44c8.85,0,13.28-3.53,13.28-10.6c0-2.77-0.97-5.13-2.91-7.07c-1.88-1.81-5.76-4.31-11.65-7.5
			c-7.45-4.01-12.35-7.16-14.71-9.46c-2.9-2.83-4.35-6.34-4.35-10.51c0-4.43,1.85-8.2,5.56-11.32c3.71-3.12,8.44-4.68,14.21-4.68
			c4.07,0,8.04,0.51,11.89,1.53c2.96,0.8,4.63,1.81,5.01,3.06c0.8,2.58,1.32,5.76,1.58,9.55c0.06,1.37-0.4,2.13-1.39,2.29
			c-1.24,0.19-2.12-0.24-2.63-1.29c-1.97-3.98-4.22-6.78-6.73-8.41c-2.33-1.5-5.37-2.24-9.12-2.24c-3.34,0-5.99,0.78-7.93,2.34
			c-1.94,1.56-2.91,3.77-2.91,6.64c0,2.67,0.96,4.98,2.87,6.93c1.81,1.81,5.16,3.95,10.03,6.4c7.51,3.76,12.69,6.94,15.52,9.55
			C925.14,106.01,926.91,109.73,926.91,113.97z"/>
	</g>
	<g>
		<path d="M987.65,113.97c0,5.38-1.97,9.7-5.92,12.94c-4.11,3.38-9.73,5.06-16.86,5.06c-9.39,0-14.9-1.74-16.52-5.21
			c-0.99-2.1-1.97-4.78-2.96-8.02c-0.41-1.5-0.11-2.47,0.91-2.91c1.27-0.57,2.28-0.32,3.01,0.76c2.71,4.01,5.43,6.86,8.17,8.55
			c2.64,1.62,5.73,2.44,9.27,2.44c8.85,0,13.28-3.53,13.28-10.6c0-2.77-0.97-5.13-2.91-7.07c-1.88-1.81-5.76-4.31-11.65-7.5
			c-7.45-4.01-12.35-7.16-14.71-9.46c-2.9-2.83-4.35-6.34-4.35-10.51c0-4.43,1.85-8.2,5.56-11.32c3.71-3.12,8.44-4.68,14.21-4.68
			c4.07,0,8.04,0.51,11.89,1.53c2.96,0.8,4.63,1.81,5.01,3.06c0.8,2.58,1.32,5.76,1.58,9.55c0.06,1.37-0.4,2.13-1.39,2.29
			c-1.24,0.19-2.12-0.24-2.63-1.29c-1.97-3.98-4.22-6.78-6.73-8.41c-2.33-1.5-5.37-2.24-9.12-2.24c-3.34,0-5.99,0.78-7.93,2.34
			c-1.94,1.56-2.91,3.77-2.91,6.64c0,2.67,0.96,4.98,2.87,6.93c1.81,1.81,5.16,3.95,10.03,6.4c7.51,3.76,12.69,6.94,15.52,9.55
			C985.88,106.01,987.65,109.73,987.65,113.97z"/>
	</g>
	<g>
		<path d="M1074.14,99.11c0,9.2-3.41,17-10.22,23.4c-6.69,6.3-14.73,9.46-24.12,9.46c-9.87,0-18.07-2.96-24.6-8.88
			c-6.69-6.11-10.03-14.01-10.03-23.69c0-9.36,3.39-17.22,10.17-23.59c6.69-6.24,14.84-9.36,24.45-9.36
			c9.81,0,17.96,3.04,24.45,9.12C1070.85,81.75,1074.14,89.59,1074.14,99.11z M1064.45,100.74c0-9.27-2.53-16.59-7.59-21.97
			c-4.87-5.16-11.3-7.74-19.29-7.74c-6.62,0-12.06,2.44-16.31,7.33c-4.25,4.89-6.38,11.25-6.38,19.08c0,9.39,2.47,16.78,7.4,22.16
			c4.81,5.22,11.33,7.83,19.58,7.83c6.65,0,12.08-2.45,16.29-7.35C1062.34,115.18,1064.45,108.73,1064.45,100.74z"/>
	</g>
	<g>
		<path d="M1162.78,68.69c0,0.8-0.86,1.45-2.58,1.96c-3.82,1.08-5.73,3.3-5.73,6.64v34.34c0,7.23,0.1,13.05,0.29,17.48
			c0.06,1.69-0.33,2.64-1.19,2.87c-1.43,0.35-2.64-0.4-3.63-2.24c-1.59-3.02-7.83-10.48-18.72-22.35
			c-9.11-9.9-17.93-19.15-26.46-27.75c-0.29-0.29-0.57-0.37-0.86-0.24c-0.32,0.16-0.48,0.53-0.48,1.1v39.16c0,4.2,2.12,6.7,6.35,7.5
			c1.75,0.35,2.63,0.97,2.63,1.86c0,1.21-0.99,1.77-2.96,1.67c-7.58-0.32-13.47-0.32-17.67,0c-1.37,0.1-2.05-0.46-2.05-1.67
			c0-0.67,0.68-1.15,2.05-1.43c2.45-0.57,4.09-1.35,4.92-2.34c0.83-0.99,1.24-2.66,1.24-5.01V77.96c0-1.85-0.38-3.26-1.15-4.25
			c-0.73-0.89-2.15-1.81-4.25-2.77c-1.56-0.73-2.31-1.48-2.24-2.24c0.1-0.86,0.81-1.19,2.15-1c4.14,0.57,7.72,0.7,10.75,0.38
			c1.56-0.16,2.96,0.43,4.2,1.77l40.02,42.65c0.54,0.61,0.91,0.91,1.1,0.91c0.25,0,0.38-0.43,0.38-1.29V77.57
			c0-4.04-2.12-6.43-6.35-7.16c-1.5-0.25-2.24-0.7-2.24-1.34c0-1.34,0.68-1.93,2.05-1.77c5.22,0.57,11.05,0.51,17.48-0.19
			c1.11-0.13,1.83-0.14,2.15-0.05C1162.51,67.23,1162.78,67.77,1162.78,68.69z"/>
	</g>
</g>
<g>
	<path class="st0" d="M1258.72,141.75c4.93-9.56,7.39-14.37,6.96-15.81c-1.2-4.06-9.1-4.05-29.1-7.59
		c-18.21-3.22-21.68-5-23.41-8.22c-2.82-5.25-0.14-12.71,3.8-17.08c5.63-6.24,15.6-8.12,20.87-4.43c5.87,4.11,1.75,12.2,8.86,18.34
		c3.74,3.23,9.11,4.64,13.92,3.8c1.59-0.28,6.55-1.15,8.86-5.06c3.02-5.12-0.54-11.98-2.53-15.81c-1.91-3.67-3.15-4.47-10.75-13.28
		c-8.31-9.64-6.9-8.77-10.12-12.02c-8.87-8.94-14.01-9.88-13.92-13.92c0.1-4.27,5.93-7.75,10.12-8.86c0.87-0.23,7.97-2.01,12.02,1.9
		c2.77,2.67,1.41,5.39,3.16,14.55c1.1,5.75,2.14,10.92,5.69,15.81c2.67,3.68,3.67,2.95,8.22,7.59c8.28,8.45,8.59,14.58,12.02,14.55
		c5.03-0.04,8.52-13.28,8.86-14.55c1.87-7.09,1.63-14.48,0.83-15.28c-1.27-1.27-1.27-5.09,1.27-8.49c1.08-1.44,2.21-3.98,9.28-4.06
		c2.14-0.02,3.81,1.47,5.69,3.16c4.44,3.99,5.36,9.3,5.69,11.39c0.41,2.59,1.55,9.76-2.53,13.92c-3.11,3.17-6.73,2.02-8.22,5.06
		c-1.23,2.51-0.41,6.67,1.9,8.22c6.49,4.37,24.11-12.21,25.3-10.75c0.74,0.9-12.07-6.56-1.46-12.93c6.19-3.71-0.82,13.27,5.89,10.4
		c1.13-0.49,8.3-3.56,13.28,0.63c4.25,3.57,4.69,10.55,1.9,14.55c-2.04,2.92-5.54,3.87-7.59,4.43c-5.59,1.52-8.43-0.51-10.12,1.27
		c-2.54,2.66,1.2,10.06,1.9,11.39c4.58,8.75,10.16,8.57,13.92,15.81c2.73,5.26,4.03,13.5,0.63,16.45
		c-5.25,4.55-23.14-2.33-27.83-13.92c-2.13-5.25-0.08-7.89-3.16-13.28c-2.78-4.87-9.51-11.6-15.81-9.49
		c-5.33,1.79-8.49,9.28-6.96,14.55c1.2,4.12,4.57,4.48,12.65,11.39c6.84,5.85,11.55,9.87,10.75,13.28
		c-1.04,4.46-11.45,7.75-19.61,5.06c-9.56-3.16-15.32-14.29-15.81-13.92c-0.23,0.18,1.78,2.07,1.27,3.8
		c-0.88,2.93-7.72,0.87-12.65,5.06c-3.91,3.32-2.66,7.2-5.69,8.22c-3.76,1.26-10.02-3.24-10.75-8.22
		C1255.86,147.13,1256.74,145.6,1258.72,141.75z"/>
	<path d="M1265.55,157.96c-1.31,0-2.8-0.47-4.29-1.38c-2.79-1.71-4.85-4.54-5.25-7.21c-0.32-2.15,0.49-3.7,2.24-7.1l0.31-0.59
		c4.59-8.91,7.36-14.28,6.95-15.68c-0.88-2.97-5.75-3.73-16.42-5.4c-3.59-0.56-7.67-1.2-12.54-2.07
		c-17.89-3.16-21.71-4.93-23.53-8.31c-2.85-5.31-0.16-12.87,3.82-17.28c5.56-6.17,15.62-8.29,21.1-4.45
		c2.88,2.01,3.41,4.99,3.97,8.13c0.62,3.48,1.26,7.07,4.91,10.22c3.66,3.17,8.94,4.6,13.77,3.76c1.6-0.28,6.47-1.13,8.74-4.98
		c2.97-5.03-0.61-11.93-2.53-15.64c-1.36-2.61-2.34-3.73-5.63-7.43c-1.31-1.48-2.94-3.32-5.11-5.83c-4.31-4.99-5.98-7.14-7.09-8.56
		c-1.01-1.3-1.48-1.89-3.02-3.45c-3.72-3.75-6.82-6.12-9.09-7.85c-3.18-2.43-4.94-3.77-4.88-6.2c0.1-4.38,6.05-7.91,10.25-9.02
		c1.33-0.35,8.18-1.92,12.19,1.94c1.75,1.69,1.9,3.44,2.16,6.61c0.17,2.02,0.38,4.53,1.05,8.04c1.06,5.54,2.06,10.78,5.66,15.74
		c1.42,1.95,2.34,2.64,3.62,3.59c1.1,0.81,2.46,1.82,4.58,3.99c4.1,4.18,6.23,7.76,7.79,10.37c1.53,2.57,2.46,4.13,4.09,4.13
		c0.01,0,0.01,0,0.02,0c4.65-0.04,8.05-12.01,8.69-14.41c1.9-7.19,1.59-14.41,0.88-15.12c-1.43-1.43-1.26-5.36,1.26-8.72
		c0.09-0.12,0.19-0.26,0.28-0.39c1.03-1.46,2.59-3.67,9.14-3.74c0.02,0,0.04,0,0.05,0c2.18,0,3.84,1.49,5.76,3.21
		c4.58,4.11,5.46,9.66,5.75,11.49c0.43,2.69,1.56,9.85-2.58,14.07c-1.52,1.55-3.15,2.08-4.59,2.56c-1.53,0.5-2.85,0.94-3.6,2.46
		c-1.23,2.52-0.31,6.56,1.84,8c4.2,2.82,13.32-3.43,19.35-7.57c2.52-1.73,4.11-2.81,5.04-3.17c-1.47-0.9-4.43-3.32-4.96-6.2
		c-0.47-2.52,0.95-4.79,4.22-6.75c0.96-0.57,1.67-0.7,2.18-0.4c1.03,0.61,0.93,2.85,0.84,5.21c-0.1,2.43-0.2,4.94,0.86,5.67
		c0.46,0.32,1.12,0.29,2.03-0.1c2.52-1.08,8.89-3.19,13.46,0.66c4.42,3.71,4.66,10.87,1.93,14.78c-2.08,2.97-5.59,3.93-7.69,4.5
		c-2.82,0.76-4.98,0.64-6.56,0.54c-1.61-0.09-2.68-0.16-3.48,0.67c-2.41,2.53,1.18,9.76,1.92,11.18c2.38,4.54,5.01,6.65,7.56,8.69
		c2.34,1.87,4.55,3.64,6.36,7.13c2.58,4.96,4.22,13.52,0.59,16.66c-1.79,1.55-5.15,1.88-9.21,0.9c-6.87-1.65-15.71-7.02-18.9-14.88
		c-0.96-2.38-1.08-4.23-1.19-6.01c-0.14-2.21-0.28-4.3-1.96-7.25c-2.71-4.75-9.35-11.51-15.61-9.41c-5.4,1.81-8.28,9.4-6.85,14.34
		c0.72,2.5,2.24,3.56,5.27,5.69c1.89,1.33,4.25,2.98,7.33,5.62c7,5.98,11.63,9.94,10.81,13.46c-0.33,1.41-1.53,2.73-3.48,3.83
		c-3.65,2.05-10.32,3.35-16.35,1.36c-7.27-2.4-12.42-9.46-14.61-12.47c-0.06-0.08-0.12-0.16-0.17-0.24c0.39,0.72,0.72,1.6,0.46,2.47
		c-0.45,1.49-2.27,1.77-4.57,2.12c-2.48,0.38-5.58,0.85-8.13,3.02c-1.93,1.64-2.57,3.38-3.13,4.92c-0.55,1.5-1.03,2.8-2.62,3.34
		C1266.55,157.88,1266.07,157.96,1265.55,157.96z M1258.88,141.83l-0.31,0.59c-1.77,3.43-2.51,4.85-2.21,6.89
		c0.38,2.57,2.37,5.3,5.08,6.96c1.98,1.21,3.96,1.62,5.44,1.13c1.43-0.48,1.86-1.65,2.4-3.13c0.55-1.5,1.24-3.37,3.23-5.06
		c2.63-2.24,5.78-2.71,8.31-3.1c2.18-0.33,3.91-0.59,4.29-1.88c0.33-1.1-0.47-2.31-0.94-3.03c-0.31-0.46-0.46-0.7-0.26-0.85
		l0.06-0.05l0.11,0c0.22,0.03,0.49,0.38,1.37,1.59c2.18,2.99,7.27,9.98,14.44,12.34c5.93,1.96,12.49,0.68,16.07-1.33
		c1.86-1.05,3.01-2.29,3.31-3.6c0.77-3.31-4.04-7.42-10.7-13.11c-3.07-2.62-5.42-4.27-7.3-5.6c-2.99-2.1-4.64-3.26-5.4-5.88
		c-1.48-5.08,1.5-12.89,7.07-14.76c6.45-2.17,13.25,4.72,16.02,9.57c1.72,3.02,1.86,5.15,2,7.4c0.11,1.76,0.23,3.58,1.17,5.9
		c3.14,7.75,11.87,13.04,18.66,14.68c3.96,0.95,7.2,0.65,8.9-0.82c3.15-2.73,2.18-10.75-0.67-16.23c-1.78-3.42-3.96-5.17-6.27-7.02
		c-2.57-2.06-5.23-4.19-7.65-8.8c-1.07-2.05-4.38-8.95-1.87-11.59c0.9-0.95,2.09-0.88,3.75-0.78c1.64,0.1,3.69,0.22,6.45-0.53
		c2.05-0.56,5.49-1.49,7.49-4.36c2.65-3.79,2.41-10.72-1.87-14.31c-4.43-3.72-10.64-1.66-13.1-0.61c-1.02,0.44-1.79,0.46-2.36,0.07
		c-1.23-0.84-1.12-3.45-1.01-5.97c0.09-2.16,0.18-4.39-0.67-4.9c-0.39-0.23-1-0.1-1.83,0.4c-3.16,1.9-4.52,4.07-4.05,6.45
		c0.6,2.99,3.96,5.44,5.09,6.07c0.21-0.03,0.36,0.02,0.47,0.15c0.1,0.12,0.08,0.21,0.05,0.26c-0.02,0.04-0.08,0.11-0.23,0.09
		c-0.07-0.01-0.2-0.06-0.37-0.15c-0.83,0.21-3.15,1.8-5.24,3.23c-6.11,4.19-15.35,10.53-19.74,7.57c-2.31-1.56-3.28-5.74-1.96-8.45
		c0.81-1.65,2.2-2.11,3.8-2.64c1.41-0.46,3-0.99,4.46-2.47c4.01-4.09,2.9-11.12,2.48-13.77c-0.28-1.79-1.15-7.25-5.64-11.28
		c-1.86-1.67-3.47-3.12-5.53-3.12c-0.02,0-0.03,0-0.05,0c-6.37,0.07-7.8,2.11-8.85,3.59c-0.1,0.14-0.19,0.28-0.29,0.4
		c-2.54,3.38-2.46,7.09-1.29,8.26c0.88,0.88,1.07,8.42-0.79,15.45c-0.91,3.44-4.25,14.64-9.02,14.68c-0.01,0-0.02,0-0.02,0
		c-1.82,0-2.79-1.62-4.38-4.3c-1.55-2.6-3.67-6.16-7.74-10.31c-2.1-2.14-3.45-3.14-4.54-3.95c-1.26-0.93-2.25-1.67-3.7-3.66
		c-3.65-5.02-4.65-10.3-5.72-15.88c-0.67-3.52-0.88-6.04-1.05-8.07c-0.27-3.19-0.4-4.78-2.06-6.38c-3.86-3.73-10.55-2.2-11.85-1.85
		c-4.09,1.08-9.9,4.5-9.99,8.69c-0.05,2.25,1.65,3.55,4.75,5.91c2.27,1.73,5.38,4.11,9.12,7.88c1.56,1.57,2.03,2.17,3.05,3.48
		c1.11,1.42,2.78,3.56,7.08,8.55c2.16,2.51,3.79,4.34,5.1,5.82c3.3,3.72,4.3,4.85,5.67,7.49c1.96,3.77,5.59,10.78,2.52,15.98
		c-2.35,3.98-7.34,4.86-8.98,5.14c-4.93,0.87-10.32-0.6-14.06-3.83c-3.74-3.23-4.42-7.06-5.02-10.43c-0.55-3.07-1.06-5.98-3.82-7.91
		c-5.35-3.74-15.19-1.65-20.64,4.4c-3.9,4.32-6.55,11.71-3.77,16.88c1.75,3.27,5.54,4.99,23.28,8.13c4.87,0.86,8.94,1.5,12.54,2.06
		c11.14,1.75,15.76,2.47,16.7,5.65C1266.29,127.37,1264.16,131.59,1258.88,141.83z"/>
</g>
</svg>
