<?xml version="1.0" encoding="utf-8"?>
<!-- Generator: Adobe Illustrator 26.5.0, SVG Export Plug-In . SVG Version: 6.00 Build 0)  -->
<svg version="1.1" id="Layer_1" xmlns="http://www.w3.org/2000/svg" xmlns:xlink="http://www.w3.org/1999/xlink" x="0px" y="0px"
	 viewBox="0 0 595.28 99.11" style="enable-background:new 0 0 595.28 99.11;" xml:space="preserve">
<style type="text/css">
	.st0{fill:#258F45;}
	.st1{fill:#2AB674;}
	.st2{fill:#006838;stroke:#006838;stroke-linecap:round;stroke-miterlimit:10;}
</style>
<g>
	<g>
		<g>
			<path class="st0" d="M94.71,29.67h1.69l2.5,10.08l-2.18,0.66c-1.37-2.83-3.2-5.05-5.48-6.68c-1.87-1.36-3.95-2.04-6.23-2.04
				c-1.37,0-2.61,0.25-3.7,0.74c-1.09,0.49-1.91,1.13-2.46,1.91c-0.55,0.78-0.82,1.58-0.82,2.39c0,0.73,0.21,1.44,0.63,2.13
				c0.42,0.69,1.06,1.29,1.92,1.81c0.86,0.52,2.27,1.07,4.22,1.65l6.12,1.81c0.75,0.22,1.84,0.64,3.27,1.27
				c1.43,0.63,2.54,1.29,3.34,1.98c0.8,0.7,1.42,1.55,1.87,2.56s0.68,2.1,0.68,3.27c0,2.6-1.14,4.87-3.41,6.81s-5.21,2.92-8.82,2.92
				c-1.86,0-3.52-0.27-4.99-0.81s-3.05-1.5-4.76-2.87l-1.08,3.12H75.4l-2.18-11.74l2.18-0.45c0.8,2.17,1.86,4.02,3.18,5.53
				s2.78,2.66,4.38,3.43s3.23,1.16,4.89,1.16c2.25,0,4.22-0.68,5.91-2.04c1.41-1.14,2.11-2.48,2.11-4.03c0-1.42-0.51-2.59-1.52-3.49
				c-1.03-0.91-2.88-1.75-5.53-2.53l-5.86-1.69c-3.28-0.95-5.59-2.17-6.94-3.66s-2.02-3.19-2.02-5.11c0-1.5,0.44-2.89,1.31-4.16
				s2.22-2.34,4.03-3.2s3.8-1.29,5.95-1.29c1.81,0,3.55,0.31,5.2,0.94c1.17,0.44,2.25,1.06,3.23,1.88L94.71,29.67z"/>
			<path class="st1" d="M87.87,63.43c-1.91,0-3.65-0.28-5.16-0.84c-1.35-0.5-2.81-1.34-4.34-2.51l-0.97,2.79h-2.42l-2.34-12.63
				l3.08-0.63l0.15,0.4c0.77,2.1,1.81,3.91,3.08,5.38c1.27,1.46,2.69,2.57,4.22,3.31c1.53,0.74,3.1,1.11,4.67,1.11
				c2.12,0,4-0.65,5.59-1.93c1.29-1.05,1.92-2.24,1.92-3.64c0-1.28-0.44-2.3-1.36-3.12c-0.97-0.85-2.77-1.67-5.34-2.42L82.81,47
				c-3.36-0.98-5.77-2.25-7.17-3.8c-1.42-1.57-2.15-3.4-2.15-5.44c0-1.6,0.47-3.09,1.4-4.44c0.92-1.34,2.34-2.47,4.23-3.37
				c1.87-0.89,3.95-1.34,6.17-1.34c1.86,0,3.67,0.33,5.38,0.97c1.02,0.38,1.97,0.9,2.86,1.55l0.86-1.96h2.41l2.71,10.92l-3.04,0.92
				l-0.19-0.38c-1.33-2.74-3.12-4.92-5.32-6.49c-1.78-1.29-3.78-1.95-5.94-1.95c-1.3,0-2.47,0.23-3.49,0.69
				c-1,0.45-1.76,1.04-2.25,1.74c-0.48,0.69-0.73,1.4-0.73,2.1c0,0.64,0.19,1.26,0.56,1.87c0.38,0.62,0.97,1.17,1.76,1.65
				c0.82,0.5,2.2,1.03,4.1,1.6l6.12,1.81c0.76,0.22,1.88,0.66,3.33,1.29c1.47,0.64,2.64,1.34,3.47,2.06c0.85,0.74,1.52,1.66,2,2.73
				c0.48,1.07,0.72,2.24,0.72,3.48c0,2.74-1.21,5.16-3.58,7.19C94.66,62.41,91.58,63.43,87.87,63.43z M77.88,58.41l0.55,0.45
				c1.65,1.33,3.21,2.27,4.62,2.79c1.41,0.52,3.03,0.78,4.82,0.78c3.47,0,6.33-0.94,8.5-2.8c2.18-1.86,3.24-3.97,3.24-6.43
				c0-1.1-0.21-2.13-0.64-3.07c-0.42-0.94-1.01-1.74-1.75-2.39c-0.75-0.66-1.83-1.3-3.21-1.9c-1.4-0.61-2.48-1.03-3.21-1.24
				l-6.12-1.81c-2.02-0.6-3.44-1.15-4.34-1.7c-0.92-0.56-1.63-1.23-2.09-1.98c-0.47-0.76-0.71-1.57-0.71-2.39
				c0-0.91,0.31-1.81,0.91-2.67c0.6-0.85,1.49-1.55,2.66-2.08c1.15-0.52,2.47-0.78,3.9-0.78c2.38,0,4.57,0.72,6.52,2.13
				c2.23,1.59,4.06,3.77,5.44,6.48l1.32-0.4l-2.29-9.24h-0.97l-1.12,2.56l-0.51-0.42c-0.94-0.77-1.98-1.38-3.09-1.79
				c-1.59-0.6-3.28-0.91-5.03-0.91c-2.07,0-4,0.42-5.74,1.24c-1.72,0.82-3.01,1.84-3.83,3.03c-0.81,1.18-1.22,2.49-1.22,3.88
				c0,1.81,0.62,3.37,1.89,4.77c1.27,1.41,3.53,2.59,6.71,3.51l5.86,1.69c2.76,0.81,4.63,1.67,5.72,2.64c1.12,1,1.69,2.3,1.69,3.87
				c0,1.7-0.77,3.18-2.29,4.42c-1.77,1.43-3.86,2.15-6.22,2.15c-1.72,0-3.44-0.41-5.1-1.21c-1.66-0.8-3.18-2-4.54-3.56
				c-1.27-1.46-2.32-3.24-3.12-5.28l-1.28,0.26l2.01,10.85h0.87L77.88,58.41z"/>
		</g>
		<g>
			<path class="st0" d="M123.07,39.09c2.09,0,3.98,0.5,5.66,1.51c1.83,1.08,3.23,2.49,4.21,4.22c0.98,1.73,1.47,3.73,1.47,6
				c0,3.52-1.09,6.39-3.28,8.61s-4.98,3.33-8.37,3.33c-3.79,0-6.79-1.33-9-4c-1.81-2.18-2.71-4.78-2.71-7.81
				c0-2.25,0.51-4.27,1.53-6.06c1.02-1.79,2.46-3.2,4.33-4.24S120.84,39.09,123.07,39.09z M123.07,40.86
				c-1.71,0-3.18,0.39-4.41,1.17c-1.23,0.78-2.21,1.93-2.95,3.45c-0.74,1.52-1.11,3.4-1.11,5.63c0,2.13,0.36,3.94,1.09,5.42
				c0.73,1.48,1.71,2.62,2.93,3.4c1.23,0.79,2.61,1.18,4.14,1.18c1.52,0,2.87-0.39,4.04-1.16c1.17-0.77,2.14-1.99,2.91-3.64
				c0.77-1.66,1.15-3.5,1.15-5.52c0-2.06-0.38-3.94-1.15-5.64c-0.66-1.47-1.53-2.55-2.61-3.25
				C126.03,41.21,124.68,40.86,123.07,40.86z"/>
			<path class="st1" d="M122.76,63.26c-3.93,0-7.08-1.41-9.38-4.18c-1.87-2.26-2.82-4.99-2.82-8.13c0-2.33,0.54-4.45,1.59-6.31
				c1.06-1.86,2.58-3.35,4.53-4.43c1.94-1.08,4.09-1.62,6.4-1.62c2.17,0,4.16,0.53,5.92,1.58c1.89,1.12,3.37,2.6,4.39,4.4
				c1.02,1.8,1.53,3.9,1.53,6.25c0,3.64-1.15,6.66-3.43,8.96C129.22,62.09,126.28,63.26,122.76,63.26z M123.07,39.59
				c-2.14,0-4.13,0.5-5.91,1.5c-1.78,0.99-3.18,2.35-4.14,4.05c-0.97,1.7-1.46,3.66-1.46,5.81c0,2.9,0.87,5.42,2.59,7.49
				c2.1,2.54,5,3.82,8.61,3.82c3.24,0,5.94-1.07,8.02-3.18c2.08-2.11,3.14-4.89,3.14-8.26c0-2.18-0.47-4.11-1.4-5.76
				c-0.93-1.64-2.29-3-4.03-4.03C126.88,40.07,125.06,39.59,123.07,39.59z M122.77,61.62c-1.62,0-3.11-0.42-4.41-1.26
				c-1.3-0.83-2.35-2.05-3.11-3.6c-0.76-1.54-1.14-3.44-1.14-5.64c0-2.3,0.39-4.26,1.16-5.85c0.78-1.6,1.83-2.83,3.13-3.66
				c1.3-0.83,2.88-1.25,4.67-1.25c1.7,0,3.15,0.38,4.31,1.13c1.16,0.75,2.1,1.92,2.8,3.46c0.79,1.76,1.19,3.73,1.19,5.85
				c0,2.09-0.4,4.01-1.2,5.73c-0.8,1.74-1.84,3.03-3.09,3.85C125.84,61.2,124.39,61.62,122.77,61.62z M123.07,41.36
				c-1.6,0-3,0.37-4.14,1.1c-1.14,0.73-2.07,1.82-2.77,3.25c-0.7,1.44-1.06,3.26-1.06,5.41c0,2.05,0.35,3.8,1.04,5.2
				c0.68,1.39,1.61,2.47,2.76,3.2c1.14,0.73,2.44,1.1,3.87,1.1c1.42,0,2.69-0.36,3.77-1.07c1.09-0.72,2.01-1.87,2.73-3.43
				c0.73-1.58,1.1-3.37,1.1-5.31c0-1.98-0.37-3.8-1.11-5.44c-0.61-1.37-1.43-2.39-2.43-3.03C125.84,41.69,124.57,41.36,123.07,41.36
				z"/>
		</g>
		<g>
			<path class="st0" d="M142.52,39.48h17.51l2.12,6l-1.43,0.54c-0.6-1.4-1.19-2.41-1.77-3.02c-0.58-0.61-1.25-1.05-2.02-1.31
				s-1.97-0.39-3.61-0.39h-4.94v8.79h2.25c1.18,0,2.03-0.11,2.54-0.34c0.51-0.23,0.91-0.59,1.18-1.09c0.27-0.5,0.41-1.21,0.41-2.12
				v-0.61h1.61v10.04h-1.61v-0.89c0-0.86-0.13-1.54-0.39-2.02c-0.26-0.48-0.62-0.83-1.07-1.04c-0.45-0.21-1.26-0.32-2.42-0.32h-2.49
				v7.12c0,0.66,0.07,1.11,0.21,1.37c0.14,0.26,0.34,0.45,0.61,0.59c0.27,0.14,0.75,0.21,1.44,0.21h0.61v1.38h-8.71v-1.38h0.56
				c0.7,0,1.18-0.07,1.45-0.2c0.27-0.13,0.46-0.34,0.59-0.62c0.13-0.28,0.19-0.78,0.19-1.52V43.11c0-0.69-0.06-1.17-0.18-1.45
				c-0.12-0.28-0.3-0.48-0.55-0.61c-0.25-0.13-0.68-0.19-1.29-0.19h-0.77V39.48z"/>
			<path class="st1" d="M151.73,62.87h-9.71v-2.38h1.06c0.84,0,1.14-0.1,1.23-0.15c0.16-0.08,0.28-0.2,0.36-0.37
				c0.05-0.12,0.14-0.45,0.14-1.31V43.11c0-0.81-0.09-1.13-0.14-1.25c-0.07-0.17-0.18-0.29-0.32-0.36
				c-0.08-0.04-0.34-0.14-1.06-0.14h-1.27v-2.38h18.36l2.4,6.8l-2.33,0.88l-0.19-0.44c-0.58-1.34-1.14-2.3-1.68-2.87
				c-0.52-0.55-1.13-0.95-1.82-1.18c-0.71-0.24-1.87-0.37-3.45-0.37h-4.44v7.79h1.75c1.38,0,2.03-0.16,2.34-0.3
				c0.42-0.19,0.73-0.47,0.95-0.88c0.23-0.42,0.35-1.05,0.35-1.88v-1.11h2.61v11.04h-2.61v-1.39c0-0.77-0.11-1.37-0.33-1.78
				c-0.21-0.39-0.49-0.66-0.85-0.83c-0.26-0.12-0.86-0.27-2.21-0.27h-1.99v6.62c0,0.78,0.1,1.05,0.15,1.13
				c0.09,0.17,0.22,0.29,0.39,0.38c0.09,0.05,0.38,0.15,1.21,0.15h1.11V62.87z M143.02,61.87h7.71v-0.38h-0.11
				c-0.79,0-1.32-0.08-1.66-0.26c-0.36-0.18-0.64-0.45-0.82-0.8c-0.18-0.34-0.26-0.85-0.26-1.6V51.2h2.99
				c1.25,0,2.11,0.12,2.63,0.37c0.55,0.26,0.99,0.68,1.3,1.26c0.31,0.56,0.45,1.3,0.45,2.26v0.39h0.61v-9.04h-0.61v0.11
				c0,1.01-0.15,1.79-0.47,2.37c-0.33,0.59-0.8,1.03-1.42,1.31c-0.58,0.26-1.48,0.39-2.75,0.39h-2.75V40.8h5.44
				c1.71,0,2.95,0.14,3.77,0.42c0.84,0.29,1.59,0.77,2.22,1.44c0.56,0.59,1.11,1.49,1.67,2.73l0.53-0.2l-1.84-5.21h-16.65v0.38h0.27
				c0.71,0,1.19,0.08,1.52,0.25c0.35,0.18,0.61,0.47,0.78,0.85c0.15,0.35,0.22,0.87,0.22,1.65v15.55c0,0.82-0.07,1.37-0.23,1.72
				c-0.17,0.39-0.45,0.68-0.83,0.86c-0.34,0.17-0.88,0.25-1.67,0.25h-0.06V61.87z"/>
		</g>
		<g>
			<path class="st0" d="M168.61,39.48h8.76v1.38h-0.67c-0.63,0-1.09,0.09-1.38,0.26c-0.28,0.18-0.49,0.43-0.62,0.75
				s-0.2,0.95-0.2,1.89v14.75c0,0.74,0.07,1.27,0.21,1.58c0.14,0.31,0.34,0.54,0.6,0.68s0.72,0.21,1.39,0.21h0.67v1.38h-8.76v-1.38
				h0.72c0.65,0,1.1-0.07,1.37-0.22c0.27-0.15,0.46-0.36,0.58-0.64c0.12-0.28,0.18-0.82,0.18-1.62V43.42c0-0.85-0.06-1.42-0.18-1.71
				c-0.12-0.29-0.31-0.51-0.58-0.64c-0.27-0.14-0.73-0.21-1.37-0.21h-0.72V39.48z"/>
			<path class="st1" d="M177.87,62.87h-9.76v-2.38h1.22c0.73,0,1.02-0.1,1.13-0.16c0.17-0.09,0.29-0.22,0.36-0.4
				c0.04-0.1,0.14-0.43,0.14-1.42V43.42c0-1.02-0.09-1.39-0.14-1.52c-0.08-0.18-0.19-0.31-0.35-0.39c-0.11-0.06-0.41-0.15-1.14-0.15
				h-1.22v-2.38h9.76v2.38h-1.17c-0.7,0-1,0.12-1.11,0.19c-0.19,0.12-0.33,0.29-0.42,0.51c-0.06,0.15-0.16,0.57-0.16,1.7v14.75
				c0,0.88,0.11,1.24,0.17,1.38c0.1,0.21,0.22,0.36,0.39,0.45c0.08,0.05,0.36,0.15,1.14,0.15h1.17V62.87z M169.11,61.87h7.76v-0.38
				h-0.17c-0.77,0-1.29-0.09-1.63-0.28c-0.35-0.19-0.62-0.5-0.81-0.91c-0.17-0.38-0.26-0.97-0.26-1.79V43.76
				c0-1.02,0.07-1.68,0.23-2.08c0.17-0.42,0.45-0.76,0.82-0.99c0.37-0.23,0.91-0.34,1.64-0.34h0.17v-0.38h-7.76v0.38h0.22
				c0.73,0,1.25,0.09,1.6,0.26c0.38,0.19,0.65,0.5,0.82,0.9c0.15,0.36,0.22,0.96,0.22,1.9v15.09c0,0.89-0.07,1.46-0.22,1.81
				c-0.16,0.38-0.43,0.68-0.8,0.88c-0.35,0.19-0.87,0.28-1.61,0.28h-0.22V61.87z"/>
		</g>
		<g>
			<path class="st0" d="M193.83,39.48h2.68l7.12,19.13c0.35,0.96,0.7,1.6,1.06,1.91c0.35,0.31,0.83,0.47,1.44,0.47h0.36v1.38h-8.14
				v-1.38c0.26-0.02,0.52-0.03,0.77-0.03c0.52,0,0.87-0.05,1.03-0.16c0.32-0.21,0.48-0.47,0.48-0.79c0-0.23-0.15-0.79-0.46-1.69
				l-1.51-4.43h-8.29l-1.79,4.95c-0.19,0.51-0.28,0.87-0.28,1.07c0,0.22,0.06,0.41,0.17,0.57s0.27,0.29,0.47,0.37
				c0.2,0.08,0.51,0.12,0.95,0.12c0.3,0,0.54,0.01,0.72,0.02v1.38h-6.84v-1.38c0.63,0,1.09-0.06,1.37-0.19
				c0.28-0.13,0.52-0.33,0.73-0.61c0.21-0.28,0.48-0.87,0.82-1.76L193.83,39.48z M190.94,52.28h7.07l-3.52-9.84L190.94,52.28z"/>
			<path class="st1" d="M206.99,62.87h-9.14v-2.34l0.46-0.04c0.28-0.02,0.55-0.04,0.81-0.04c0.6,0,0.75-0.08,0.76-0.08
				c0.22-0.14,0.25-0.27,0.25-0.37c0-0.04-0.02-0.32-0.43-1.53l-1.4-4.09h-7.58l-1.67,4.62c-0.23,0.64-0.25,0.85-0.25,0.9
				c0,0.12,0.03,0.21,0.08,0.29c0.06,0.09,0.14,0.15,0.25,0.19c0.06,0.03,0.26,0.08,0.76,0.08c0.31,0,0.56,0.01,0.75,0.02l0.47,0.03
				v2.35h-7.84v-2.38h0.5c0.73,0,1.04-0.09,1.16-0.14c0.2-0.09,0.38-0.24,0.53-0.45c0.12-0.16,0.35-0.58,0.75-1.64l7.26-19.27h3.38
				l7.24,19.46c0.4,1.09,0.72,1.53,0.92,1.71c0.26,0.23,0.62,0.34,1.11,0.34h0.86V62.87z M198.85,61.87h7.14v-0.38
				c-0.66-0.02-1.21-0.22-1.63-0.59c-0.42-0.37-0.82-1.06-1.2-2.11l-7-18.8h-1.99l-7.02,18.63c-0.36,0.96-0.65,1.56-0.89,1.89
				c-0.26,0.35-0.57,0.6-0.93,0.76c-0.26,0.12-0.61,0.19-1.08,0.22v0.39h5.84v-0.39c-0.07,0-0.14,0-0.22,0
				c-0.52,0-0.88-0.05-1.14-0.16c-0.28-0.12-0.52-0.3-0.69-0.54c-0.17-0.25-0.26-0.54-0.26-0.86c0-0.27,0.1-0.65,0.31-1.24l1.9-5.28
				h9l1.63,4.77c0.43,1.26,0.49,1.64,0.49,1.85c0,0.34-0.12,0.83-0.7,1.21c-0.25,0.17-0.66,0.25-1.31,0.25c-0.09,0-0.18,0-0.27,0
				V61.87z M198.72,52.78h-8.49l4.26-11.82L198.72,52.78z M191.65,51.78h5.65l-2.81-7.86L191.65,51.78z"/>
		</g>
		<g>
			<path class="st0" d="M236.43,29.67h10.33l9.65,25.9l9.43-25.9h9.97v1.97h-0.84c-1.02,0-1.7,0.09-2.05,0.26s-0.63,0.48-0.83,0.91
				c-0.2,0.43-0.3,1.15-0.3,2.14v21.56c0,1.36,0.08,2.24,0.25,2.65s0.44,0.71,0.82,0.93s1.09,0.32,2.12,0.32h0.84v1.97h-12.49V60.4
				h0.89c0.8,0,1.38-0.06,1.75-0.19s0.67-0.33,0.91-0.62s0.38-0.59,0.41-0.9c0.08-0.64,0.12-1.14,0.12-1.5V33.12l-10.68,29.25h-2.34
				l-10.75-28.83V56.7c0,1.18,0.1,1.98,0.3,2.39c0.2,0.42,0.52,0.74,0.95,0.97s1.2,0.34,2.31,0.34h0.75v1.97h-11.51V60.4h0.66
				c1.11,0,1.9-0.12,2.38-0.35s0.82-0.57,1.02-1s0.3-1.28,0.3-2.54V35.16c0-1.2-0.09-1.99-0.26-2.37s-0.46-0.67-0.86-0.86
				c-0.4-0.19-1.11-0.28-2.12-0.28h-1.12V29.67z"/>
			<path class="st1" d="M276.31,62.87h-13.49V59.9h1.39c0.92,0,1.37-0.09,1.58-0.16c0.28-0.1,0.51-0.25,0.69-0.47
				c0.18-0.21,0.27-0.42,0.3-0.63c0.08-0.63,0.11-1.11,0.11-1.45V35.94l-9.83,26.92h-3.04l-9.9-26.56V56.7
				c0,1.44,0.16,1.98,0.25,2.18c0.16,0.32,0.4,0.56,0.73,0.74c0.24,0.13,0.8,0.28,2.07,0.28h1.25v2.97h-12.51V59.9h1.16
				c1.28,0,1.88-0.16,2.16-0.3c0.38-0.18,0.63-0.43,0.79-0.76c0.1-0.2,0.26-0.77,0.26-2.33V35.16c0-1.47-0.13-1.99-0.21-2.17
				c-0.12-0.28-0.32-0.48-0.61-0.61c-0.23-0.11-0.74-0.23-1.91-0.23h-1.62v-2.97h11.18l9.3,24.95l9.08-24.95h10.82v2.97h-1.34
				c-1.22,0-1.67,0.13-1.83,0.21c-0.25,0.12-0.45,0.34-0.6,0.67c-0.12,0.25-0.26,0.79-0.26,1.92v21.56c0,1.69,0.13,2.27,0.21,2.46
				c0.12,0.3,0.32,0.52,0.6,0.67c0.17,0.1,0.65,0.25,1.88,0.25h1.34V62.87z M263.81,61.87h11.49V60.9h-0.34
				c-1.14,0-1.89-0.12-2.36-0.38c-0.48-0.27-0.84-0.66-1.04-1.18c-0.12-0.3-0.28-0.92-0.28-2.84V34.95c0-1.08,0.12-1.84,0.35-2.35
				c0.25-0.54,0.61-0.92,1.06-1.15c0.43-0.21,1.15-0.31,2.27-0.31h0.34v-0.97h-9.12l-9.77,26.84l-10-26.84h-9.48v0.97h0.62
				c1.1,0,1.86,0.11,2.33,0.33c0.51,0.24,0.88,0.61,1.1,1.11c0.21,0.46,0.3,1.28,0.3,2.57v21.35c0,1.37-0.11,2.25-0.35,2.76
				c-0.25,0.53-0.67,0.95-1.25,1.23c-0.55,0.27-1.4,0.4-2.6,0.4h-0.16v0.97h10.51V60.9h-0.25c-1.2,0-2.04-0.13-2.54-0.4
				c-0.52-0.28-0.91-0.68-1.16-1.19c-0.24-0.5-0.36-1.33-0.36-2.61V30.77l11.59,31.1h1.65l11.53-31.58v26.9
				c0,0.38-0.04,0.89-0.12,1.56c-0.04,0.4-0.22,0.8-0.52,1.16c-0.3,0.36-0.68,0.62-1.14,0.77c-0.42,0.14-1.05,0.21-1.91,0.21h-0.39
				V61.87z"/>
		</g>
		<g>
			<path class="st0" d="M294.72,39.48h2.68l7.12,19.13c0.35,0.96,0.7,1.6,1.06,1.91c0.36,0.31,0.83,0.47,1.44,0.47h0.36v1.38h-8.14
				v-1.38c0.26-0.02,0.52-0.03,0.77-0.03c0.53,0,0.87-0.05,1.03-0.16c0.32-0.21,0.48-0.47,0.48-0.79c0-0.23-0.15-0.79-0.46-1.69
				l-1.51-4.43h-8.29l-1.79,4.95c-0.19,0.51-0.28,0.87-0.28,1.07c0,0.22,0.06,0.41,0.17,0.57s0.27,0.29,0.47,0.37
				c0.2,0.08,0.51,0.12,0.95,0.12c0.3,0,0.54,0.01,0.72,0.02v1.38h-6.84v-1.38c0.63,0,1.09-0.06,1.37-0.19
				c0.28-0.13,0.52-0.33,0.73-0.61c0.21-0.28,0.48-0.87,0.82-1.76L294.72,39.48z M291.83,52.28h7.07l-3.52-9.84L291.83,52.28z"/>
			<path class="st1" d="M307.88,62.87h-9.14v-2.34l0.46-0.04c0.28-0.02,0.55-0.04,0.81-0.04c0.6,0,0.75-0.08,0.76-0.08
				c0.22-0.15,0.25-0.27,0.25-0.37c0-0.04-0.02-0.32-0.43-1.53l-1.4-4.09h-7.58l-1.67,4.62c-0.23,0.64-0.25,0.85-0.25,0.9
				c0,0.12,0.03,0.21,0.08,0.29c0.06,0.09,0.14,0.15,0.25,0.19c0.06,0.03,0.26,0.08,0.76,0.08c0.31,0,0.56,0.01,0.75,0.02l0.47,0.03
				v2.35h-7.84v-2.38h0.5c0.73,0,1.04-0.09,1.16-0.14c0.2-0.09,0.38-0.24,0.53-0.45c0.12-0.16,0.35-0.58,0.75-1.64l7.26-19.27h3.38
				L305,58.44c0.4,1.1,0.72,1.53,0.92,1.71c0.26,0.23,0.63,0.34,1.11,0.34h0.86V62.87z M299.74,61.87h7.14v-0.38
				c-0.66-0.02-1.21-0.22-1.63-0.59c-0.42-0.37-0.81-1.06-1.2-2.11l-7-18.81h-1.99l-7.02,18.63c-0.36,0.96-0.65,1.56-0.89,1.89
				c-0.26,0.35-0.57,0.6-0.93,0.76c-0.26,0.12-0.61,0.19-1.08,0.22v0.39H291v-0.39c-0.07,0-0.14,0-0.22,0
				c-0.52,0-0.88-0.05-1.14-0.16c-0.28-0.12-0.52-0.3-0.69-0.54c-0.17-0.25-0.26-0.54-0.26-0.86c0-0.27,0.1-0.65,0.31-1.24l1.9-5.28
				h9l1.63,4.77c0.43,1.26,0.49,1.64,0.49,1.85c0,0.34-0.12,0.82-0.7,1.21c-0.25,0.17-0.66,0.25-1.31,0.25c-0.09,0-0.18,0-0.27,0
				V61.87z M299.61,52.78h-8.49l4.26-11.82L299.61,52.78z M292.54,51.78h5.65l-2.81-7.86L292.54,51.78z"/>
		</g>
		<g>
			<path class="st0" d="M331,39.48h1.2l1.87,7.05l-1.48,0.51c-0.98-2.23-2.12-3.82-3.4-4.77c-1.28-0.95-2.73-1.43-4.35-1.43
				c-2.33,0-4.28,0.97-5.86,2.9s-2.36,4.24-2.36,6.92c0,1.93,0.4,3.69,1.21,5.3s1.88,2.83,3.23,3.67c1.35,0.84,2.78,1.26,4.29,1.26
				c0.97,0,1.9-0.18,2.78-0.53c0.88-0.36,1.6-0.78,2.14-1.27c0.4-0.37,0.68-0.78,0.82-1.23c0.14-0.45,0.21-1.07,0.2-1.87v-1.08
				c0-0.86-0.1-1.48-0.3-1.84c-0.2-0.36-0.49-0.62-0.86-0.77c-0.28-0.12-1.05-0.18-2.3-0.18v-1.38h9.27v1.38h-0.75
				c-0.65,0-1.09,0.06-1.32,0.19c-0.24,0.13-0.41,0.32-0.52,0.58c-0.11,0.26-0.16,0.78-0.16,1.54v7.92h-1.62l-0.87-2
				c-0.92,0.67-1.9,1.19-2.94,1.56c-1.55,0.56-3.09,0.84-4.61,0.84c-3.07,0-5.71-1.13-7.9-3.39c-2.19-2.26-3.29-5.07-3.29-8.44
				c0-3.35,1.11-6.16,3.33-8.43c2.22-2.27,4.88-3.41,7.97-3.41c0.78,0,1.54,0.08,2.3,0.23c0.75,0.15,1.44,0.37,2.07,0.66
				c0.47,0.21,1.02,0.55,1.64,1.02L331,39.48z"/>
			<path class="st1" d="M324.3,63.26c-3.2,0-5.98-1.19-8.26-3.54c-2.28-2.34-3.43-5.3-3.43-8.79c0-3.47,1.17-6.42,3.47-8.78
				c2.31-2.36,5.11-3.56,8.33-3.56c0.81,0,1.61,0.08,2.4,0.24c0.79,0.16,1.52,0.39,2.17,0.69c0.36,0.16,0.76,0.39,1.2,0.69
				l0.47-1.22h1.92l2.09,7.88l-2.35,0.81l-0.19-0.42c-0.94-2.14-2.03-3.68-3.24-4.57c-1.19-0.88-2.55-1.33-4.05-1.33
				c-2.19,0-3.98,0.89-5.47,2.72c-1.49,1.84-2.25,4.06-2.25,6.61c0,1.84,0.39,3.55,1.15,5.08c0.76,1.52,1.78,2.69,3.04,3.47
				c1.26,0.79,2.61,1.19,4.02,1.19c0.91,0,1.78-0.17,2.6-0.5c0.82-0.33,1.49-0.73,2-1.18c0.33-0.31,0.56-0.65,0.68-1.01
				c0.12-0.39,0.18-0.97,0.17-1.71v-1.09c0-0.96-0.13-1.4-0.24-1.59c-0.15-0.26-0.35-0.44-0.62-0.55c-0.08-0.03-0.46-0.14-2.11-0.14
				h-0.5v-2.38h10.27v2.38h-1.25c-0.78,0-1.03,0.1-1.09,0.13c-0.13,0.07-0.23,0.18-0.29,0.33c-0.04,0.09-0.13,0.4-0.13,1.35v8.42
				h-2.45l-0.76-1.75c-0.81,0.53-1.66,0.96-2.55,1.27C327.48,62.97,325.88,63.26,324.3,63.26z M324.42,39.59
				c-2.94,0-5.5,1.1-7.62,3.26c-2.12,2.17-3.19,4.89-3.19,8.08c0,3.22,1.06,5.94,3.15,8.09c2.08,2.15,4.62,3.24,7.54,3.24
				c1.46,0,2.95-0.27,4.44-0.81c0.99-0.35,1.94-0.86,2.81-1.49l0.5-0.37l0.99,2.27h0.8v-7.42c0-0.85,0.06-1.4,0.2-1.73
				c0.15-0.37,0.4-0.65,0.74-0.83c0.32-0.17,0.81-0.25,1.56-0.25h0.25v-0.38h-8.27v0.38c1.35,0.02,1.77,0.12,1.99,0.22
				c0.47,0.19,0.85,0.53,1.1,0.99c0.25,0.44,0.37,1.12,0.37,2.08V56c0.01,0.85-0.06,1.52-0.22,2.02c-0.17,0.53-0.49,1.02-0.96,1.45
				c-0.59,0.53-1.36,0.99-2.29,1.37c-0.94,0.38-1.94,0.57-2.97,0.57c-1.6,0-3.13-0.45-4.55-1.34c-1.42-0.89-2.57-2.19-3.41-3.88
				c-0.84-1.67-1.26-3.53-1.26-5.52c0-2.79,0.83-5.22,2.47-7.24c1.67-2.05,3.77-3.09,6.25-3.09c1.72,0,3.28,0.51,4.65,1.53
				c1.26,0.94,2.39,2.47,3.37,4.55l0.61-0.21l-1.65-6.23h-0.47l-0.69,1.81l-0.53-0.4c-0.59-0.44-1.11-0.77-1.54-0.96
				c-0.59-0.27-1.25-0.48-1.96-0.62C325.9,39.66,325.16,39.59,324.42,39.59z"/>
		</g>
		<g>
			<path class="st0" d="M344.75,39.48h7.01l10.41,17.16V43.58c0-0.78-0.08-1.34-0.23-1.68c-0.15-0.34-0.38-0.6-0.69-0.78
				c-0.31-0.18-0.76-0.26-1.36-0.26h-0.59v-1.38h7.65v1.38h-0.41c-0.67,0-1.13,0.06-1.37,0.17c-0.34,0.15-0.59,0.43-0.76,0.84
				c-0.17,0.41-0.25,0.98-0.25,1.72v18.79h-1.99l-12.55-20.62v16.34c0,0.91,0.03,1.46,0.08,1.66c0.08,0.25,0.22,0.48,0.42,0.69
				c0.2,0.21,0.44,0.35,0.71,0.43s0.83,0.12,1.66,0.13v1.38h-7.74v-1.38h0.41c0.79,0,1.32-0.08,1.6-0.23
				c0.28-0.15,0.5-0.42,0.65-0.79c0.15-0.37,0.23-1,0.23-1.89v-14.5c0-0.91-0.02-1.47-0.07-1.67c-0.1-0.37-0.29-0.64-0.57-0.81
				c-0.28-0.17-0.83-0.25-1.67-0.25h-0.59V39.48z"/>
			<path class="st1" d="M364.66,62.87h-2.77l-11.77-19.34v14.56c0,1.23,0.05,1.48,0.06,1.52c0.05,0.16,0.15,0.32,0.29,0.47
				c0.14,0.15,0.3,0.24,0.49,0.29c0.13,0.04,0.5,0.1,1.53,0.11l0.49,0.01v2.37h-8.74v-2.38h0.91c0.95,0,1.27-0.12,1.36-0.17
				c0.18-0.1,0.32-0.27,0.43-0.54c0.09-0.21,0.19-0.68,0.19-1.7v-14.5c0-1.22-0.04-1.5-0.05-1.56c-0.06-0.22-0.17-0.39-0.33-0.48
				c-0.07-0.04-0.38-0.18-1.41-0.18h-1.09v-2.38h7.8l9.63,15.87V43.58c0-0.88-0.1-1.29-0.19-1.48c-0.11-0.24-0.27-0.42-0.48-0.55
				c-0.16-0.09-0.48-0.2-1.11-0.2h-1.09v-2.38h8.65v2.38h-0.91c-0.81,0-1.08,0.08-1.16,0.12c-0.22,0.1-0.39,0.29-0.51,0.58
				c-0.14,0.34-0.21,0.86-0.21,1.52V62.87z M362.45,61.87h1.2V43.58c0-0.81,0.09-1.44,0.29-1.91c0.22-0.53,0.56-0.9,1.01-1.11
				c0.3-0.14,0.77-0.21,1.49-0.21v-0.38h-6.65v0.38h0.09c0.7,0,1.22,0.11,1.61,0.33c0.4,0.23,0.7,0.57,0.9,1
				c0.18,0.41,0.27,1.03,0.27,1.89v14.85l-11.19-18.45h-2.35L362.45,61.87z M345.25,61.87h6.74v-0.39c-0.8-0.03-1.12-0.09-1.29-0.14
				c-0.36-0.1-0.67-0.29-0.94-0.56c-0.26-0.26-0.44-0.57-0.54-0.89c-0.05-0.18-0.1-0.53-0.1-1.8v-18.1h-3.87v0.38h0.09
				c0.95,0,1.56,0.1,1.92,0.32c0.39,0.23,0.66,0.61,0.79,1.11c0.04,0.19,0.08,0.54,0.08,1.79v14.5c0,0.96-0.09,1.64-0.27,2.08
				c-0.2,0.48-0.49,0.83-0.87,1.04c-0.35,0.19-0.91,0.29-1.75,0.29V61.87z"/>
		</g>
		<g>
			<path class="st0" d="M374.4,39.48h8.84v1.38h-0.59c-0.72,0-1.24,0.07-1.54,0.21c-0.24,0.11-0.42,0.3-0.54,0.56
				c-0.12,0.26-0.18,0.79-0.18,1.59v10.31c0,1.84,0.22,3.2,0.67,4.09c0.44,0.89,1.18,1.63,2.21,2.23c1.03,0.6,2.17,0.9,3.4,0.9
				c1.25,0,2.43-0.32,3.54-0.97c1.12-0.65,1.9-1.41,2.35-2.3c0.45-0.89,0.67-2.29,0.67-4.2v-9.92c0-0.73-0.07-1.25-0.21-1.57
				c-0.14-0.32-0.36-0.56-0.65-0.71c-0.29-0.15-0.74-0.23-1.35-0.23h-0.64v-1.38h7.66v1.38h-0.52c-0.86,0-1.46,0.17-1.78,0.5
				c-0.32,0.33-0.48,0.95-0.48,1.87v10.55c0,1.92-0.36,3.53-1.08,4.81c-0.72,1.29-1.77,2.3-3.15,3.05s-2.98,1.12-4.81,1.12
				c-1.73,0-3.31-0.38-4.74-1.15c-1.43-0.77-2.49-1.72-3.16-2.86c-0.67-1.14-1.01-2.58-1.01-4.31V43.22c0-0.73-0.07-1.24-0.2-1.53
				c-0.13-0.29-0.32-0.5-0.57-0.64c-0.25-0.13-0.69-0.2-1.31-0.2h-0.82V39.48z"/>
			<path class="st1" d="M386.21,63.26c-1.8,0-3.48-0.41-4.98-1.21c-1.51-0.81-2.64-1.83-3.35-3.05c-0.72-1.21-1.08-2.75-1.08-4.56
				V43.22c0-0.86-0.1-1.2-0.15-1.32c-0.08-0.19-0.2-0.32-0.35-0.4c-0.08-0.04-0.35-0.14-1.08-0.14h-1.32v-2.38h9.84v2.38h-1.09
				c-0.85,0-1.2,0.1-1.33,0.17c-0.13,0.06-0.23,0.16-0.3,0.32c-0.04,0.09-0.14,0.4-0.14,1.38v10.31c0,1.75,0.21,3.05,0.61,3.87
				c0.4,0.79,1.08,1.48,2.02,2.02c1.91,1.11,4.39,1.12,6.45-0.07c1.02-0.59,1.75-1.3,2.15-2.09c0.41-0.81,0.62-2.15,0.62-3.98v-9.92
				c0-0.81-0.09-1.19-0.17-1.37c-0.1-0.22-0.24-0.37-0.43-0.47c-0.15-0.08-0.46-0.17-1.12-0.17h-1.14v-2.38h8.66v2.38h-1.02
				c-0.7,0-1.21,0.12-1.42,0.35c-0.13,0.13-0.34,0.5-0.34,1.52v10.55c0,2-0.39,3.71-1.15,5.06c-0.76,1.36-1.89,2.45-3.35,3.25
				C389.81,62.86,388.11,63.26,386.21,63.26z M374.9,40.36h0.32c0.72,0,1.21,0.08,1.55,0.26c0.35,0.18,0.62,0.48,0.8,0.87
				c0.16,0.36,0.24,0.92,0.24,1.73v11.22c0,1.63,0.32,2.99,0.94,4.05c0.62,1.06,1.62,1.96,2.96,2.68c1.35,0.72,2.87,1.09,4.51,1.09
				c1.73,0,3.27-0.36,4.57-1.06c1.29-0.7,2.28-1.66,2.95-2.86c0.68-1.2,1.02-2.74,1.02-4.57V43.22c0-1.06,0.21-1.79,0.63-2.22
				c0.42-0.44,1.12-0.65,2.14-0.65h0.02v-0.38h-6.66v0.38h0.14c0.7,0,1.22,0.09,1.59,0.29c0.39,0.21,0.68,0.53,0.87,0.95
				c0.17,0.39,0.26,0.97,0.26,1.77v9.92c0,2.01-0.24,3.46-0.73,4.43c-0.49,0.97-1.35,1.81-2.54,2.51c-2.37,1.37-5.23,1.36-7.45,0.07
				c-1.12-0.65-1.93-1.47-2.41-2.44c-0.48-0.97-0.72-2.38-0.72-4.31V43.22c0-0.88,0.07-1.45,0.23-1.79
				c0.17-0.38,0.44-0.65,0.79-0.81c0.37-0.17,0.95-0.26,1.75-0.26h0.09v-0.38h-7.84V40.36z"/>
		</g>
		<g>
			<path class="st0" d="M421.36,39.48h1.18l1.75,7.05l-1.53,0.46c-0.96-1.98-2.24-3.54-3.83-4.68c-1.31-0.95-2.76-1.43-4.36-1.43
				c-0.96,0-1.82,0.17-2.59,0.52c-0.76,0.34-1.34,0.79-1.72,1.33c-0.38,0.55-0.57,1.1-0.57,1.67c0,0.51,0.15,1.01,0.44,1.49
				s0.74,0.9,1.35,1.27c0.6,0.37,1.59,0.75,2.96,1.15l4.28,1.27c0.52,0.15,1.29,0.45,2.29,0.89s1.78,0.9,2.34,1.39
				c0.56,0.49,1,1.08,1.31,1.79c0.32,0.71,0.48,1.47,0.48,2.29c0,1.82-0.8,3.41-2.39,4.77c-1.59,1.36-3.65,2.04-6.18,2.04
				c-1.3,0-2.47-0.19-3.49-0.57c-1.03-0.38-2.14-1.05-3.33-2.01l-0.75,2.18h-1.15l-1.52-8.22l1.53-0.31
				c0.56,1.52,1.3,2.81,2.22,3.87c0.92,1.06,1.95,1.86,3.07,2.4c1.12,0.54,2.26,0.81,3.42,0.81c1.58,0,2.95-0.48,4.13-1.43
				c0.98-0.8,1.48-1.74,1.48-2.82c0-1-0.36-1.81-1.07-2.44c-0.72-0.63-2.01-1.22-3.87-1.77l-4.1-1.18c-2.3-0.67-3.92-1.52-4.86-2.56
				c-0.94-1.04-1.41-2.23-1.41-3.58c0-1.05,0.31-2.02,0.92-2.91c0.61-0.89,1.55-1.64,2.82-2.24s2.66-0.9,4.17-0.9
				c1.27,0,2.48,0.22,3.64,0.66c0.82,0.31,1.58,0.74,2.26,1.31L421.36,39.48z"/>
			<path class="st1" d="M416.56,63.26c-1.36,0-2.59-0.2-3.67-0.6c-0.91-0.33-1.89-0.89-2.91-1.66l-0.64,1.86h-1.92l-1.69-9.11
				l2.43-0.5l0.15,0.4c0.53,1.46,1.25,2.71,2.13,3.72c0.88,1,1.85,1.77,2.91,2.28c1.05,0.51,2.12,0.76,3.2,0.76
				c1.47,0,2.72-0.43,3.82-1.32c0.87-0.7,1.29-1.5,1.29-2.43c0-0.85-0.29-1.53-0.9-2.07c-0.66-0.58-1.9-1.14-3.68-1.67l-4.1-1.18
				c-2.41-0.7-4.07-1.58-5.09-2.7c-1.02-1.13-1.54-2.45-1.54-3.91c0-1.15,0.34-2.22,1.01-3.2c0.66-0.96,1.68-1.77,3.02-2.41
				c2.45-1.16,5.55-1.26,8.2-0.26c0.67,0.25,1.3,0.58,1.88,1l0.57-1.29h1.9l1.96,7.9l-2.39,0.72l-0.19-0.38
				c-0.92-1.89-2.16-3.4-3.67-4.49c-1.22-0.89-2.59-1.33-4.07-1.33c-0.89,0-1.69,0.16-2.38,0.47c-0.68,0.31-1.19,0.7-1.52,1.17
				c-0.32,0.46-0.48,0.92-0.48,1.38c0,0.42,0.12,0.82,0.37,1.23c0.25,0.41,0.65,0.78,1.18,1.1c0.56,0.34,1.52,0.71,2.84,1.1
				l4.28,1.27c0.54,0.16,1.33,0.46,2.35,0.91c1.04,0.46,1.87,0.95,2.47,1.47c0.61,0.53,1.09,1.19,1.44,1.96
				c0.34,0.77,0.52,1.61,0.52,2.5c0,1.96-0.86,3.69-2.56,5.15C421.39,62.53,419.2,63.26,416.56,63.26z M409.5,59.35l0.55,0.45
				c1.14,0.92,2.22,1.57,3.19,1.93c0.97,0.35,2.08,0.54,3.32,0.54c2.39,0,4.36-0.65,5.85-1.92c1.49-1.27,2.21-2.71,2.21-4.39
				c0-0.74-0.15-1.45-0.43-2.09c-0.29-0.64-0.68-1.18-1.19-1.62c-0.51-0.45-1.26-0.89-2.21-1.31c-0.97-0.43-1.72-0.72-2.23-0.86
				l-4.28-1.27c-1.42-0.42-2.43-0.81-3.07-1.21c-0.67-0.4-1.18-0.89-1.51-1.43c-0.34-0.56-0.52-1.15-0.52-1.75
				c0-0.67,0.22-1.33,0.66-1.96c0.43-0.62,1.08-1.12,1.93-1.5c0.83-0.37,1.77-0.56,2.79-0.56c1.7,0,3.26,0.51,4.65,1.52
				c1.55,1.1,2.83,2.61,3.8,4.48l0.67-0.2l-1.54-6.21h-0.47l-0.83,1.88l-0.51-0.42c-0.64-0.53-1.36-0.94-2.12-1.23
				c-2.4-0.91-5.22-0.81-7.42,0.23c-1.18,0.56-2.06,1.26-2.62,2.07c-0.56,0.81-0.83,1.67-0.83,2.63c0,1.23,0.42,2.29,1.28,3.24
				c0.87,0.96,2.43,1.78,4.62,2.41l4.1,1.18c1.95,0.57,3.28,1.19,4.06,1.88c0.82,0.73,1.24,1.68,1.24,2.82
				c0,1.24-0.56,2.32-1.66,3.21c-1.27,1.02-2.77,1.54-4.45,1.54c-1.23,0-2.45-0.29-3.64-0.86c-1.18-0.57-2.26-1.42-3.23-2.53
				c-0.88-1.01-1.6-2.22-2.16-3.63l-0.63,0.13l1.36,7.33h0.38L409.5,59.35z"/>
		</g>
		<g>
			<path class="st0" d="M448.58,39.48h1.18l1.75,7.05l-1.53,0.46c-0.96-1.98-2.24-3.54-3.83-4.68c-1.31-0.95-2.76-1.43-4.36-1.43
				c-0.96,0-1.82,0.17-2.59,0.52c-0.76,0.34-1.34,0.79-1.72,1.33c-0.38,0.55-0.57,1.1-0.57,1.67c0,0.51,0.15,1.01,0.44,1.49
				s0.74,0.9,1.35,1.27c0.6,0.37,1.59,0.75,2.96,1.15l4.28,1.27c0.52,0.15,1.29,0.45,2.29,0.89s1.78,0.9,2.34,1.39
				c0.56,0.49,1,1.08,1.31,1.79c0.32,0.71,0.48,1.47,0.48,2.29c0,1.82-0.8,3.41-2.39,4.77c-1.59,1.36-3.65,2.04-6.18,2.04
				c-1.3,0-2.47-0.19-3.49-0.57c-1.03-0.38-2.14-1.05-3.33-2.01l-0.75,2.18h-1.15l-1.52-8.22l1.53-0.31
				c0.56,1.52,1.3,2.81,2.22,3.87c0.92,1.06,1.95,1.86,3.07,2.4c1.12,0.54,2.26,0.81,3.42,0.81c1.58,0,2.95-0.48,4.13-1.43
				c0.98-0.8,1.48-1.74,1.48-2.82c0-1-0.36-1.81-1.07-2.44c-0.72-0.63-2.01-1.22-3.87-1.77l-4.1-1.18c-2.3-0.67-3.92-1.52-4.86-2.56
				c-0.94-1.04-1.41-2.23-1.41-3.58c0-1.05,0.31-2.02,0.92-2.91c0.61-0.89,1.55-1.64,2.82-2.24s2.66-0.9,4.17-0.9
				c1.27,0,2.48,0.22,3.64,0.66c0.82,0.31,1.58,0.74,2.26,1.31L448.58,39.48z"/>
			<path class="st1" d="M443.79,63.26c-1.36,0-2.59-0.2-3.67-0.6c-0.91-0.33-1.89-0.89-2.91-1.66l-0.64,1.86h-1.92l-1.69-9.11
				l2.43-0.5l0.15,0.4c0.53,1.46,1.25,2.71,2.13,3.72c0.88,1,1.85,1.77,2.91,2.28c1.05,0.51,2.12,0.76,3.2,0.76
				c1.47,0,2.72-0.43,3.82-1.32c0.87-0.7,1.29-1.5,1.29-2.43c0-0.85-0.29-1.53-0.9-2.07c-0.66-0.58-1.9-1.14-3.68-1.67l-4.1-1.18
				c-2.41-0.7-4.07-1.58-5.09-2.7c-1.02-1.13-1.54-2.45-1.54-3.91c0-1.15,0.34-2.22,1.01-3.2c0.66-0.96,1.68-1.77,3.02-2.41
				c2.45-1.16,5.55-1.26,8.2-0.26c0.67,0.25,1.3,0.58,1.88,1l0.57-1.29h1.9l1.96,7.9l-2.39,0.72l-0.19-0.38
				c-0.92-1.89-2.16-3.4-3.67-4.49c-1.22-0.89-2.59-1.33-4.07-1.33c-0.89,0-1.69,0.16-2.38,0.47c-0.68,0.31-1.19,0.7-1.52,1.17
				c-0.32,0.46-0.48,0.92-0.48,1.38c0,0.42,0.12,0.82,0.37,1.23c0.25,0.41,0.65,0.78,1.18,1.1c0.56,0.34,1.52,0.71,2.84,1.1
				l4.28,1.27c0.54,0.16,1.33,0.46,2.35,0.91c1.04,0.46,1.87,0.95,2.47,1.47c0.61,0.53,1.09,1.19,1.44,1.96
				c0.34,0.77,0.52,1.61,0.52,2.5c0,1.96-0.86,3.69-2.56,5.15C448.61,62.53,446.42,63.26,443.79,63.26z M436.72,59.35l0.55,0.45
				c1.14,0.92,2.22,1.57,3.19,1.93c0.97,0.35,2.08,0.54,3.32,0.54c2.39,0,4.36-0.65,5.85-1.92c1.49-1.27,2.21-2.71,2.21-4.39
				c0-0.74-0.15-1.45-0.43-2.09c-0.29-0.64-0.68-1.18-1.19-1.62c-0.51-0.45-1.26-0.89-2.21-1.31c-0.97-0.43-1.72-0.72-2.23-0.86
				l-4.28-1.27c-1.42-0.42-2.43-0.81-3.07-1.21c-0.67-0.4-1.18-0.89-1.51-1.43c-0.34-0.56-0.52-1.15-0.52-1.75
				c0-0.67,0.22-1.33,0.66-1.96c0.43-0.62,1.08-1.12,1.93-1.5c0.83-0.37,1.77-0.56,2.79-0.56c1.7,0,3.26,0.51,4.65,1.52
				c1.55,1.1,2.83,2.61,3.8,4.48l0.67-0.2l-1.54-6.21h-0.47l-0.83,1.88l-0.51-0.42c-0.64-0.53-1.36-0.94-2.12-1.23
				c-2.4-0.91-5.22-0.81-7.42,0.23c-1.18,0.56-2.06,1.26-2.62,2.07c-0.56,0.81-0.83,1.67-0.83,2.63c0,1.23,0.42,2.29,1.28,3.24
				c0.87,0.96,2.43,1.78,4.62,2.41l4.1,1.18c1.95,0.57,3.28,1.19,4.06,1.88c0.82,0.73,1.24,1.68,1.24,2.82
				c0,1.24-0.56,2.32-1.66,3.21c-1.27,1.02-2.77,1.54-4.45,1.54c-1.23,0-2.45-0.29-3.64-0.86c-1.18-0.57-2.26-1.42-3.23-2.53
				c-0.88-1.01-1.6-2.22-2.16-3.63l-0.63,0.13l1.36,7.33h0.38L436.72,59.35z"/>
		</g>
		<g>
			<path class="st0" d="M472.56,39.09c2.09,0,3.98,0.5,5.66,1.51c1.83,1.08,3.23,2.49,4.21,4.22c0.98,1.73,1.47,3.73,1.47,6
				c0,3.52-1.09,6.39-3.28,8.61c-2.19,2.22-4.98,3.33-8.37,3.33c-3.79,0-6.79-1.33-9-4c-1.81-2.18-2.71-4.78-2.71-7.81
				c0-2.25,0.51-4.27,1.53-6.06c1.02-1.79,2.46-3.2,4.33-4.24C468.27,39.61,470.33,39.09,472.56,39.09z M472.55,40.86
				c-1.71,0-3.18,0.39-4.41,1.17c-1.23,0.78-2.21,1.93-2.95,3.45c-0.74,1.52-1.11,3.4-1.11,5.63c0,2.13,0.36,3.94,1.09,5.42
				c0.73,1.48,1.71,2.62,2.93,3.4s2.61,1.18,4.14,1.18c1.52,0,2.87-0.39,4.04-1.16c1.17-0.77,2.14-1.99,2.91-3.64
				c0.77-1.66,1.15-3.5,1.15-5.52c0-2.06-0.38-3.94-1.15-5.64c-0.66-1.47-1.53-2.55-2.61-3.25
				C475.51,41.21,474.16,40.86,472.55,40.86z"/>
			<path class="st1" d="M472.25,63.26c-3.93,0-7.08-1.41-9.38-4.18c-1.87-2.26-2.82-4.99-2.82-8.13c0-2.33,0.54-4.45,1.59-6.31
				c1.06-1.86,2.58-3.35,4.53-4.43c1.94-1.08,4.09-1.62,6.4-1.62c2.17,0,4.16,0.53,5.92,1.58c1.89,1.12,3.37,2.6,4.39,4.4
				s1.54,3.9,1.54,6.25c0,3.64-1.15,6.66-3.43,8.96C478.7,62.09,475.76,63.26,472.25,63.26z M472.56,39.59
				c-2.14,0-4.13,0.5-5.91,1.5c-1.78,0.99-3.18,2.35-4.14,4.05c-0.97,1.7-1.46,3.66-1.46,5.81c0,2.9,0.87,5.42,2.59,7.49
				c2.1,2.54,5,3.82,8.61,3.82c3.24,0,5.94-1.07,8.02-3.18c2.08-2.11,3.14-4.89,3.14-8.26c0-2.18-0.47-4.11-1.4-5.76
				c-0.93-1.64-2.29-3-4.03-4.03C476.37,40.07,474.55,39.59,472.56,39.59z M472.25,61.62c-1.62,0-3.11-0.42-4.41-1.26
				c-1.3-0.83-2.35-2.05-3.11-3.6c-0.76-1.54-1.14-3.44-1.14-5.64c0-2.3,0.39-4.27,1.16-5.85c0.78-1.6,1.83-2.83,3.13-3.66
				c1.3-0.83,2.88-1.25,4.67-1.25c1.7,0,3.15,0.38,4.31,1.13c1.16,0.75,2.1,1.92,2.8,3.46c0.79,1.76,1.19,3.73,1.19,5.85
				c0,2.09-0.4,4.01-1.2,5.73c-0.8,1.74-1.84,3.03-3.09,3.85C475.32,61.2,473.87,61.62,472.25,61.62z M472.55,41.36
				c-1.6,0-3,0.37-4.14,1.1c-1.14,0.73-2.07,1.82-2.77,3.25c-0.7,1.44-1.06,3.26-1.06,5.41c0,2.05,0.35,3.8,1.04,5.2
				c0.68,1.39,1.61,2.47,2.76,3.2c1.14,0.73,2.44,1.1,3.87,1.1c1.42,0,2.69-0.36,3.77-1.07c1.09-0.72,2.01-1.87,2.73-3.43
				c0.73-1.58,1.1-3.37,1.1-5.31c0-1.98-0.37-3.8-1.11-5.44c-0.62-1.37-1.43-2.39-2.43-3.03C475.33,41.69,474.06,41.36,472.55,41.36
				z"/>
		</g>
		<g>
			<path class="st0" d="M492.17,39.48h7.01l10.41,17.16V43.58c0-0.78-0.08-1.34-0.23-1.68c-0.15-0.34-0.38-0.6-0.69-0.78
				c-0.31-0.18-0.76-0.26-1.36-0.26h-0.59v-1.38h7.65v1.38h-0.41c-0.67,0-1.13,0.06-1.37,0.17c-0.34,0.15-0.59,0.43-0.76,0.84
				c-0.17,0.41-0.25,0.98-0.25,1.72v18.79h-1.99l-12.55-20.62v16.34c0,0.91,0.03,1.46,0.08,1.66c0.08,0.25,0.22,0.48,0.42,0.69
				c0.2,0.21,0.44,0.35,0.71,0.43s0.83,0.12,1.66,0.13v1.38h-7.74v-1.38h0.41c0.79,0,1.32-0.08,1.6-0.23
				c0.28-0.15,0.5-0.42,0.65-0.79c0.15-0.37,0.23-1,0.23-1.89v-14.5c0-0.91-0.02-1.47-0.07-1.67c-0.1-0.37-0.29-0.64-0.57-0.81
				c-0.28-0.17-0.83-0.25-1.67-0.25h-0.59V39.48z"/>
			<path class="st1" d="M512.08,62.87h-2.77l-11.77-19.34v14.56c0,1.23,0.05,1.48,0.06,1.52c0.05,0.16,0.15,0.32,0.29,0.47
				c0.14,0.15,0.3,0.24,0.49,0.29c0.13,0.04,0.5,0.1,1.53,0.11l0.49,0.01v2.37h-8.74v-2.38h0.91c0.95,0,1.27-0.12,1.36-0.17
				c0.18-0.1,0.32-0.27,0.43-0.54c0.09-0.21,0.19-0.68,0.19-1.7v-14.5c0-1.22-0.04-1.5-0.05-1.56c-0.06-0.22-0.17-0.39-0.33-0.48
				c-0.07-0.04-0.38-0.18-1.41-0.18h-1.09v-2.38h7.8l9.63,15.87V43.58c0-0.88-0.1-1.29-0.19-1.48c-0.11-0.24-0.27-0.42-0.48-0.55
				c-0.16-0.09-0.48-0.2-1.11-0.2h-1.09v-2.38h8.65v2.38h-0.91c-0.81,0-1.08,0.08-1.16,0.12c-0.22,0.1-0.39,0.29-0.51,0.58
				c-0.14,0.34-0.21,0.86-0.21,1.52V62.87z M509.88,61.87h1.2V43.58c0-0.81,0.09-1.44,0.29-1.91c0.22-0.53,0.56-0.9,1.01-1.11
				c0.3-0.14,0.77-0.21,1.49-0.21v-0.38h-6.65v0.38h0.09c0.7,0,1.22,0.11,1.61,0.33c0.4,0.23,0.7,0.57,0.9,1
				c0.18,0.41,0.27,1.03,0.27,1.89v14.85l-11.19-18.45h-2.35L509.88,61.87z M492.67,61.87h6.74v-0.39c-0.8-0.03-1.12-0.09-1.29-0.14
				c-0.36-0.1-0.67-0.29-0.94-0.56c-0.26-0.26-0.44-0.57-0.54-0.89c-0.05-0.18-0.1-0.53-0.1-1.8v-18.1h-3.87v0.38h0.09
				c0.95,0,1.56,0.1,1.92,0.32c0.39,0.23,0.66,0.61,0.79,1.11c0.04,0.19,0.08,0.54,0.08,1.79v14.5c0,0.96-0.09,1.64-0.27,2.08
				c-0.2,0.48-0.49,0.83-0.87,1.04c-0.35,0.19-0.91,0.29-1.75,0.29V61.87z"/>
		</g>
	</g>
	<path class="st0" d="M502.09,89.3c11.66-2.29,24.08-7.68,29.46-18.95c2.63-5.45,2.66-12.17,5.08-17.87
		c5.5-13.86,18.29-23.11,31.13-29.63c-14.24,7.72-28.46,19.28-31.52,36.01c-0.8,4.09-1.23,8.39-2.99,12.27
		c-2.61,5.94-7.32,10.75-12.78,14.15c-5.44,3.36-11.57,5.51-17.75,6.95c-0.81,0.19-1.61-0.31-1.8-1.12
		C500.72,90.29,501.26,89.46,502.09,89.3L502.09,89.3z"/>
	<path class="st2" d="M538.47,69.63c-0.44-2.14,0.22-4.2,1.17-5.58c1.62-2.34,4.24-2.93,5.58-3.23c3.81-0.86,4.93,0.79,9.55,0.15
		c3.2-0.45,4.14-1.45,4.7-0.88c1.34,1.35-1.9,9.19-8.37,12.19c-3.91,1.82-9.76,2.22-11.75-0.44
		C538.76,71.05,538.55,70.05,538.47,69.63z"/>
	<path class="st2" d="M539.86,42.36c1.34-1.05,1.98-2.62,2.11-3.92c0.21-2.21-1.06-3.88-1.71-4.74c-1.84-2.43-3.34-2.01-5.77-4.72
		c-1.68-1.88-1.74-2.95-2.36-2.89c-1.48,0.13-3.49,6.44-1.14,11.49c1.42,3.05,4.71,6.24,7.24,5.65
		C538.97,43.05,539.59,42.56,539.86,42.36z"/>
</g>
</svg>
